<svg width="85" height="85" viewBox="0 0 85 85" fill="none" xmlns="http://www.w3.org/2000/svg">
<path d="M22 78.9225V61.6923H28.1053V76.9231V77.9231H29.1053H72.8947H73.8947V76.9231V14.0769V13.0769H72.8947H58.4211V7H74.8942C76.2494 7.00147 77.5477 7.538 78.5046 8.49042C79.4614 9.44278 79.9986 10.7331 80 12.0779V78.9221C79.9986 80.2669 79.4614 81.5572 78.5046 82.5096C77.5476 83.4621 76.2491 83.9986 74.8937 84H27.1063C25.7509 83.9986 24.4524 83.4621 23.4954 82.5096C22.5387 81.5573 22.0015 80.2672 22 78.9225Z" stroke="#7AC834" stroke-width="2"/>
<path d="M56 25H68V29H56V25ZM54 40H68V44H54V40ZM68 55V59H42V55H68Z" stroke="#7AC834" stroke-width="2"/>
<path d="M23.5186 1.64746C24.2777 1.22283 25.1317 1 26 1C26.8683 1 27.7223 1.22283 28.4814 1.64746L47.6864 12.3919C48.0846 12.6149 48.4163 12.9411 48.6473 13.3366C48.8782 13.7322 49 14.1828 49 14.6417V35.8396C48.9998 36.7577 48.7559 37.659 48.2935 38.4501C47.8311 39.2412 47.1671 39.8935 46.3703 40.3392L28.4814 50.3525C27.7223 50.7772 26.8683 51 26 51C25.1317 51 24.2777 50.7772 23.5186 50.3525L5.62967 40.3392C4.83324 39.8937 4.1695 39.2419 3.70716 38.4512C3.24482 37.6606 3.00067 36.7598 3 35.8422V14.6417C2.99998 14.1828 3.12175 13.7322 3.35271 13.3366C3.58366 12.9411 3.91539 12.6149 4.31356 12.3919L23.5211 1.64746H23.5186Z" stroke="#7AC834" stroke-width="2" stroke-linecap="round" stroke-linejoin="round"/>
<path d="M3 13L26 26.1034M26 26.1034L49 13M26 26.1034V51" stroke="#7AC834" stroke-width="2" stroke-linejoin="round"/>
<path d="M26.5 35L49 22M11 27.6L18.7143 32M26.5 44L49 31" stroke="#7AC834" stroke-width="2" stroke-linecap="round" stroke-linejoin="round"/>
</svg>
