<svg width="85" height="85" viewBox="0 0 85 85" fill="none" xmlns="http://www.w3.org/2000/svg">
<g clip-path="url(#clip0_69_15)">
<path d="M77.5251 77.5251C77.1104 77.9398 76.8105 78.4479 76.6459 79H73.5774C73.7881 77.6464 74.4231 76.3845 75.4038 75.4038C76.3845 74.4231 77.6464 73.7881 79 73.5774V76.6459C78.4479 76.8105 77.9399 77.1104 77.5251 77.5251ZM77.5251 62.4749C77.9399 62.8896 78.4479 63.1895 79 63.3541V66.4226C77.6464 66.2119 76.3845 65.5769 75.4038 64.5962C74.4231 63.6155 73.7881 62.3536 73.5774 61H76.6459C76.8105 61.5521 77.1104 62.0601 77.5251 62.4749ZM47.4749 62.4749C47.8896 62.0601 48.1895 61.5521 48.3541 61H51.4226C51.2119 62.3536 50.5769 63.6155 49.5962 64.5962C48.6155 65.5769 47.3536 66.2119 46 66.4226V63.3541C46.5521 63.1895 47.0601 62.8896 47.4749 62.4749ZM47.4749 77.5251C47.0601 77.1104 46.5521 76.8105 46 76.6459V73.5774C47.3536 73.7881 48.6155 74.4231 49.5962 75.4038C50.5769 76.3845 51.2119 77.6464 51.4226 79H48.3541C48.1895 78.4479 47.8896 77.9398 47.4749 77.5251ZM57.9038 65.4038C59.1228 64.1848 60.7761 63.5 62.5 63.5C64.2239 63.5 65.8772 64.1848 67.0962 65.4038C68.3152 66.6228 69 68.2761 69 70C69 71.7239 68.3152 73.3772 67.0962 74.5962C65.8772 75.8152 64.2239 76.5 62.5 76.5C60.7761 76.5 59.1228 75.8152 57.9038 74.5962C56.6848 73.3772 56 71.7239 56 70C56 68.2761 56.6848 66.6228 57.9038 65.4038Z" stroke="#7AC834" stroke-width="2"/>
<path d="M84 62.5V77.5C84 79.2239 83.3152 80.8772 82.0962 82.0962C80.8772 83.3152 79.2239 84 77.5 84H47.5C45.7761 84 44.1228 83.3152 42.9038 82.0962C41.6848 80.8772 41 79.2239 41 77.5V62.5C41 60.7761 41.6848 59.1228 42.9038 57.9038C44.1228 56.6848 45.7761 56 47.5 56H77.5C79.2239 56 80.8772 56.6848 82.0962 57.9038C83.3152 59.1228 84 60.7761 84 62.5Z" stroke="#7AC834" stroke-width="2"/>
<path d="M1 7.50053V7.50001C1 5.7761 1.68482 4.1228 2.90381 2.90381C4.12279 1.68483 5.77609 1.00001 7.5 1.00001L72.5 1.00001L72.5015 1.00001C74.0365 0.99772 75.5228 1.53877 76.6972 2.52734C77.8715 3.51591 78.6581 4.88819 78.9176 6.40112C79.1771 7.91407 78.8928 9.47003 78.115 10.7934C77.3372 12.1168 76.1162 13.1223 74.6682 13.6317L74 13.8667V14.575V49H67V15V14H66H14H13V15V66V67H14H18H19V66V52.5C19 52.1022 19.158 51.7206 19.4393 51.4393C19.7206 51.158 20.1022 51 20.5 51H41.5H41.5008C41.7895 50.9998 42.0722 51.0829 42.3148 51.2393C42.3335 51.2513 42.3519 51.2638 42.3699 51.2766C42.0782 51.5176 41.7616 51.7954 41.4368 52.0903C40.7136 52.7468 39.8862 53.5472 39.0818 54.3632C38.2777 55.1789 37.4888 56.018 36.8443 56.7527C36.4576 57.1934 36.0989 57.6232 35.8183 58H35H25H24V59V66V67H25H34V74H7.5C7.10217 74 6.72064 73.842 6.43934 73.5607C6.15804 73.2794 6 72.8978 6 72.5V14.575V13.8679L5.33333 13.6322C4.0655 13.1839 2.96789 12.3535 2.19179 11.2553C1.41569 10.1571 0.999296 8.84528 1 7.50053ZM24.4393 24.4393C24.7206 24.158 25.1022 24 25.5 24H54.5C54.8978 24 55.2794 24.158 55.5607 24.4393C55.842 24.7206 56 25.1022 56 25.5V40.5C56 40.8978 55.842 41.2794 55.5607 41.5607C55.2794 41.842 54.8978 42 54.5 42H25.5C25.1022 42 24.7206 41.842 24.4393 41.5607C24.158 41.2794 24 40.8978 24 40.5V25.5C24 25.1022 24.158 24.7207 24.4393 24.4393Z" stroke="#7AC834" stroke-width="2"/>
</g>
<defs>
<clipPath id="clip0_69_15">
<rect width="85" height="85" fill="white"/>
</clipPath>
</defs>
</svg>
