<svg width="252" height="158" viewBox="0 0 252 158" fill="none" xmlns="http://www.w3.org/2000/svg">
<path d="M26 152H1V18.7169L126 2L251 18.7169V152H226M26 152H226M26 152V96.3012V35.8675M226 152V96.3012V35.8675M26 35.8675V29.4337H226V35.8675M26 35.8675H226M226 41.8674H26M226 47.8674H26" stroke="#7AC834" stroke-width="2" stroke-linecap="round" stroke-linejoin="round"/>
<path opacity="0.7" fill-rule="evenodd" clip-rule="evenodd" d="M225.425 49.4038C233.019 51.344 236.532 57.1765 236.87 63.2661C237.296 70.949 231.591 76.1047 226.876 77.717C225.457 78.2019 223.811 78.8143 221.984 78.5653C220.803 85.0201 217.579 87.8673 213.133 89.2923C211.812 89.7159 210.275 90.1865 208.485 89.7742C206.692 98.1754 200.901 101.753 193.683 101.497C192.194 101.445 190.98 100.8 189.603 100.404C188.323 103.513 183.658 105.044 179.759 103.956C178.415 107.146 174.158 109.594 171.144 109.996C170.488 110.084 166.924 109.704 166.64 109.941C167.549 112.054 165.327 116.952 164.201 118.499C160.796 123.182 156.732 124.748 150.366 124.436C148.347 124.338 146.742 123.098 145.342 122.514C143.921 124.145 141.987 125.074 139.774 125.341C138.968 125.268 138.161 125.196 137.354 125.124C136.941 125.397 136.528 125.67 136.114 125.943C135.039 126.555 133.778 127.174 132.611 127.595C128.589 129.046 124.074 129.829 119.603 130.443C117.356 130.752 114.949 130.927 112.635 130.879C111.657 130.859 110.517 130.206 110.331 129.686C109.672 127.841 112.384 126.265 113.223 125.423C115.48 123.157 117.45 120.766 119.534 118.19C120.438 117.073 121.835 116.047 122.417 114.5C120.207 113.055 119.271 106.966 121.544 103.615C122.312 102.483 123.621 101.806 124.348 100.768C118.898 96.0927 120.985 85.4447 128.402 84.0054C128.292 83.8602 128.378 83.9478 128.166 83.7982C127.806 83.3335 127.132 83.1278 126.714 82.6895C126.091 82.0368 125.265 80.8847 124.942 80.0555C123.526 76.4267 124.883 72.2207 127.813 69.8853C128.673 69.199 130.127 68.7363 131.244 68.5018C131.836 68.4685 132.428 68.4352 133.02 68.4019C133.14 67.9543 133.26 67.5065 133.38 67.0589C133.122 66.2306 134.299 64.3606 134.688 63.8108C136.549 61.1773 138.516 59.4494 141.547 58.8836C141.559 58.8389 141.571 58.794 141.583 58.7493C141.538 58.7372 141.492 58.725 141.447 58.7128C141.348 56.8229 140.33 56.3099 137.871 55.7394C137.556 55.3929 137.079 55.3989 136.583 55.1064C135.648 54.4242 134.713 53.7418 133.779 53.0596C130.507 49.6752 129.603 46.6306 129.813 41.2016C129.841 40.4882 130.069 38.9047 130.505 38.0763C130.875 37.3729 132.625 34.7695 132.673 34.3389C132.75 33.6473 132.61 32.5243 132.64 31.7394C132.741 29.156 134.777 25.7449 135.88 24.5466C137.289 23.0153 139.346 21.5091 141.255 20.8052C142.077 20.5022 144.879 20.2791 145.331 19.7382C145.752 19.3661 145.822 18.7652 146.171 18.2359C146.993 17.161 147.816 16.0857 148.638 15.0107C152.873 11.0156 157.345 9.10694 163.941 9.0354C166.329 9.00957 170.048 9.76811 172.274 11.124C173.822 12.0671 175.615 13.1216 176.802 14.3525C177.467 15.0429 177.986 16.0522 178.818 16.6201C180.152 15.4815 182.23 15.3254 183.962 14.8316C187.165 13.9181 194.413 13.5377 199.098 16.0085C203.104 18.1211 206.24 20.2351 208.69 23.1849C210.297 25.1203 211.783 27.7946 212.655 30.1488C213.026 31.151 213.061 32.3423 213.567 33.272C215.301 32.7056 218.67 34.6094 219.715 35.3512C223.995 38.3889 227.008 43.1267 225.425 49.4038Z" fill="white"/>
<g opacity="0.7">
<mask id="path-3-inside-1_302_2" fill="white">
<path fill-rule="evenodd" clip-rule="evenodd" d="M225.425 49.4038C233.019 51.344 236.532 57.1765 236.87 63.2661C237.296 70.949 231.591 76.1047 226.876 77.717C225.457 78.2019 223.811 78.8143 221.984 78.5653C220.803 85.0201 217.578 87.8673 213.133 89.2923C211.812 89.7159 210.275 90.1865 208.485 89.7742C206.692 98.1754 200.901 101.753 193.683 101.497C192.194 101.445 190.98 100.8 189.603 100.404C188.323 103.513 183.658 105.044 179.759 103.956C178.415 107.146 174.158 109.594 171.144 109.996C170.488 110.084 166.924 109.704 166.64 109.941C167.549 112.054 165.327 116.952 164.201 118.499C160.796 123.182 156.732 124.748 150.366 124.436C148.347 124.338 146.742 123.098 145.342 122.514C143.921 124.145 141.987 125.074 139.774 125.341C138.968 125.268 138.161 125.196 137.354 125.124C136.941 125.397 136.528 125.67 136.114 125.943C135.039 126.555 133.778 127.174 132.611 127.595C128.589 129.046 124.074 129.829 119.603 130.443C117.356 130.752 114.949 130.927 112.635 130.879C111.657 130.859 110.517 130.206 110.331 129.686C109.672 127.841 112.384 126.265 113.223 125.423C115.48 123.157 117.45 120.766 119.534 118.19C120.438 117.073 121.835 116.047 122.417 114.5C120.207 113.055 119.271 106.966 121.544 103.615C122.312 102.483 123.621 101.806 124.348 100.768C118.898 96.0927 120.985 85.4447 128.402 84.0054C128.292 83.8603 128.378 83.9478 128.166 83.7983C127.806 83.3335 127.132 83.1278 126.714 82.6895C126.091 82.0368 125.265 80.8847 124.942 80.0555C123.526 76.4267 124.883 72.2207 127.813 69.8853C128.673 69.1991 130.127 68.7363 131.244 68.5018C131.836 68.4686 132.428 68.4352 133.02 68.4019C133.14 67.9543 133.26 67.5065 133.38 67.0589C133.122 66.2306 134.299 64.3606 134.688 63.8108C136.549 61.1773 138.516 59.4494 141.547 58.8836C141.559 58.8389 141.571 58.794 141.583 58.7493C141.538 58.7372 141.492 58.725 141.447 58.7129C141.348 56.8229 140.33 56.3099 137.871 55.7394C137.556 55.3929 137.079 55.3989 136.583 55.1064C135.648 54.4242 134.713 53.7418 133.779 53.0596C130.507 49.6752 129.603 46.6306 129.813 41.2016C129.841 40.4882 130.069 38.9047 130.505 38.0763C130.875 37.3729 132.625 34.7695 132.673 34.3389C132.75 33.6473 132.61 32.5243 132.64 31.7394C132.741 29.156 134.777 25.7449 135.88 24.5467C137.289 23.0153 139.346 21.5091 141.255 20.8052C142.077 20.5022 144.879 20.2791 145.331 19.7382C145.752 19.3661 145.822 18.7652 146.171 18.2359C146.993 17.161 147.816 16.0857 148.638 15.0108C152.873 11.0156 157.345 9.10694 163.941 9.0354C166.329 9.00957 170.048 9.76811 172.274 11.124C173.822 12.0671 175.615 13.1216 176.802 14.3525C177.467 15.0429 177.986 16.0522 178.818 16.6201C180.152 15.4815 182.231 15.3254 183.962 14.8316C187.165 13.9181 194.413 13.5377 199.098 16.0085C203.104 18.1211 206.24 20.2351 208.69 23.1849C210.297 25.1203 211.783 27.7946 212.655 30.1488C213.026 31.151 213.061 32.3423 213.567 33.272C215.301 32.7056 218.67 34.6094 219.715 35.3512C223.995 38.3889 227.008 43.1267 225.425 49.4038ZM178.861 80.1091C182.442 80.9998 184.834 85.5907 182.15 89.051C180.984 90.5529 179.382 91.1734 177.442 91.388C177.669 93.9708 174.386 96.0649 172.367 95.6417C171.573 98.7323 169.658 100.156 167.183 100.298C166.512 100.337 165.66 99.8555 165.071 100.02C163.848 100.772 163.296 101.698 161.267 101.16C160.641 102.675 158.977 103.488 157.548 103.618C157.055 103.663 156.649 103.433 156.252 103.559C156.649 104.557 155.71 106.244 155.216 106.88C153.572 108.995 151.435 109.824 148.096 108.427C147.607 108.902 146.894 109.398 146.205 109.503C145.702 109.579 145.238 109.299 144.873 109.578C143.742 110.442 142.645 112.272 141.545 113.292C139.623 115.076 137.545 116.788 135.502 118.438C133.409 120.128 130.914 121.731 128.578 123.06C127.301 123.788 125.741 124.345 124.623 125.311C124.668 125.323 124.713 125.335 124.759 125.348C126.383 124.512 128.938 124.417 130.718 123.778C132.653 123.083 134.359 121.529 136.286 120.951C137.434 120.607 139.072 121.329 140.21 120.995C142.108 120.439 142.987 118.293 145.197 118.157C146.905 118.053 148.546 119.355 149.95 120.006C151.706 120.821 154.946 120.216 156.129 119.791C158.646 118.887 160.413 116.879 161.873 114.133C163.573 110.935 161.025 107.066 165.164 105.659C166.985 105.04 169.921 106.134 171.924 105.455C173.365 104.966 174.815 103.738 175.787 102.46C176.294 101.793 176.428 101.123 177.007 100.628C178.965 98.952 181.438 100.724 183.739 99.9844C185.706 99.3522 186.523 96.7913 188.534 96.2314C190.345 95.7273 191.816 97.2348 194.082 97.2862C196.245 97.3352 198.697 96.8998 200.178 95.7529C201.48 94.7445 202.673 93.438 203.578 91.7698C204.478 90.1104 204.233 87.8553 205.353 86.7758C207.439 84.7645 211.781 86.2359 214.157 84.3847C215.392 83.422 216.351 82.2144 217.212 80.5974C218.118 78.8957 217.608 76.7662 218.852 75.5669C220.32 74.1513 222.154 74.7902 224.159 74.2543C226.835 73.5391 232.256 70.3139 232.434 65.676C232.629 60.6025 231.281 57.0078 227.129 54.4666C225.315 53.3559 222.97 53.2804 221.841 51.8981C220.59 50.3666 221.627 48.6598 221.576 46.3575C221.552 45.2326 221.293 43.8595 220.908 42.8678C220.062 40.6896 218.146 39.1583 215.688 37.8705C213.742 36.8513 211.683 37.6335 210.32 36.1443C209.069 34.7775 208.954 32.4082 208.279 30.7035C207.113 27.7594 204.673 24.604 202.01 22.5465C197.73 19.2392 189.962 17.3725 185.102 18.7357C183.316 19.2368 180.399 20.8936 178.69 20.9041C175.934 20.9209 174.985 18.5653 173.926 17.4684C172.167 15.6459 168.113 13.2204 164.294 13.1602C159.006 13.0767 154.209 14.8475 151.183 18.5713C150.126 19.8716 149.459 22.141 148.183 23.2373C146.43 24.7442 142.723 24.2611 140.604 25.9564C139.435 26.8916 136.988 29.6366 136.9 32.1611C136.864 33.2108 137.204 34.8148 136.781 35.8715C135.939 37.9718 133.842 39.5218 133.822 42.5635C133.797 46.2312 135.379 49.3003 138.342 51.2597C139.511 52.0327 141.211 51.9075 142.622 52.6944C144.268 53.6114 145.933 57.0886 145.915 58.9025C145.876 62.8296 142.385 62.6191 140.56 63.6569C139.708 64.1414 138.737 65.1359 138.172 66.0399C136.812 68.2185 137.664 70.6794 135.565 71.9625C133.276 73.3611 131.158 71.9271 129.317 74.6066C129.068 74.9691 128.592 75.5773 128.577 76.2796C128.493 80.2464 132.768 80.3601 132.942 83.9264C133.205 89.3241 125.471 86.9673 125.375 93.1262C125.316 96.9171 128.323 97.4581 128.724 100.213C129.341 104.453 124.578 104.178 124.453 107.993C124.349 111.16 126.435 111.777 126.757 114.08C127.002 115.827 125.879 117.123 125.098 118.097C123.584 119.986 122.168 121.702 120.722 123.546C120.768 123.558 120.813 123.571 120.858 123.583C120.87 123.538 120.882 123.493 120.894 123.448C122.159 122.744 123.24 121.703 124.378 120.783C126.666 118.935 129.214 117.198 131.417 115.185C132.34 114.341 132.956 113.404 133.877 112.533C135.788 110.726 138.201 108.303 139.3 105.35C137.552 103.473 138.847 101.673 140.024 99.9301C138.235 98.4206 138.699 93.7445 141.579 93.5816C141.591 93.5369 141.603 93.492 141.615 93.4473C140.58 92.8731 140.52 92.0246 140.043 91.1548C140.44 88.7751 141.352 87.3737 143.506 87.4768C143.31 85.1523 145.497 84.3942 146.698 83.7259C146.652 83.7138 146.607 83.7016 146.562 83.6895C146.546 82.9426 146.193 82.8184 145.246 82.6171C144.924 82.2659 144.394 82.1695 143.994 81.8498C143.319 81.3111 142.567 80.1838 142.321 79.3866C141.857 77.8765 142.312 76.231 143.101 74.8454C143.343 73.759 143.586 72.6722 143.828 71.5858C144.854 69.7705 146.321 69.0525 148.236 68.7365C149.298 65.5422 152.786 64.4199 155.804 64.4308C157.614 64.4375 159.175 65.7002 159.94 66.4028C160.236 66.6748 160.966 67.4153 161.156 67.3044C164.952 66.1314 169.024 65.964 172.216 69.5482C172.761 70.414 173.307 71.2799 173.852 72.1457C173.942 72.3752 174.079 73.5633 174.172 73.6709C174.807 73.841 175.442 74.0111 176.076 74.1811C176.513 74.6662 177.222 74.8575 177.664 75.3263C178.705 76.4293 179.247 78.1992 178.861 80.1091ZM187.591 31.2058C196.791 33.5635 201.147 37.0495 203.12 43.4274C203.656 45.1581 204.675 48.0565 203.641 50.1882C203.207 50.2636 202.989 50.3603 202.445 50.2995C202.341 50.1567 202.124 50.0054 201.973 49.8852C201.788 48.7608 201.921 47.576 201.749 46.3705C201.031 41.3423 198.066 37.6665 193.136 34.9944C190.699 33.6737 186.162 33.7687 184.704 32.735C184.631 32.3082 184.601 32.077 184.755 31.4535C184.956 31.3528 185.052 31.2444 185.271 31.1599C185.898 30.919 186.911 31.4173 187.591 31.2058ZM165.871 27.4011C166.421 27.5879 166.478 27.7274 166.887 27.9612C166.879 28.4293 166.969 28.5428 166.872 29.1085C165.089 30.0761 161.343 29.4334 159.18 30.0702C156.247 30.9332 153.845 32.6934 152.14 35.6689C151.34 37.066 151.169 39.3294 150.573 40.4308C150.1 40.42 149.986 40.5075 149.413 40.4078C149.276 40.1531 149.117 40.0104 149.013 39.7249C148.386 38.219 149.943 35.2653 150.66 34.1208C153.067 30.2823 156.333 28.1677 160.579 27.5665C161.709 27.4065 162.904 27.3766 163.995 27.3302C164.667 27.3017 165.308 27.5833 165.871 27.4011ZM207.275 68.7226C208.043 68.9963 208.371 69.2963 208.211 70.1249C208.604 71.3631 206.525 74.3761 206.028 75.0096C203.314 78.4663 200.358 79.5401 195.824 79.9044C194.473 80.013 192.368 80.1174 190.985 79.4712C190.844 79.0105 190.392 78.428 190.972 77.8846C191.607 77.2897 192.58 77.8589 193.6 77.8691C195.698 77.8898 197.98 77.8435 199.752 77.2144C202.138 76.3673 204.123 74.5326 205.523 71.9957C206.014 71.1058 206.116 69.7074 206.487 68.9433C206.765 68.8981 207.046 68.85 207.275 68.7226ZM165.78 68.5434C165.04 68.5849 164.3 68.6267 163.56 68.6682C162.209 69.0291 161.749 69.7507 159.764 69.2345C158.15 66.5535 153.782 65.8785 151.56 67.7559C150.764 68.4284 150.503 69.6892 149.68 70.4189C148.914 71.099 147.431 70.8189 146.628 71.4724C145.083 72.7313 146.04 74.0778 145.277 75.4285C144.984 75.9464 144.205 76.6665 144.221 77.7365C144.273 81.2057 149.271 80.311 148.91 84.1747C148.756 85.8152 147.066 85.571 146.322 86.2161C145.634 86.8126 145.635 88.551 144.95 89.1592C144.344 89.6984 143.216 89.3328 142.686 89.992C142.398 90.1723 142.359 90.2658 142.199 90.7249C143.022 91.9522 144.218 92.4944 143.647 94.5676C142.845 95.1478 142.204 95.6602 141.339 96.1083C141.132 96.7043 140.908 96.9611 141.115 97.4877C141.142 97.8364 142.111 99.5748 142.344 99.9759C141.963 101.304 140.437 102.324 140.728 103.285C140.768 103.902 141.242 104.608 141.556 105.091C141.118 107.556 139.371 109.446 138.061 111.063C134.973 114.875 131.619 117.603 128.202 120.657C128.247 120.669 128.293 120.681 128.338 120.693C128.35 120.648 128.362 120.603 128.374 120.559C129.842 120.052 131.253 118.726 132.474 117.771C135.355 115.515 138.328 113.301 141.069 110.718C142.077 109.767 142.699 108.391 143.808 107.565C144.436 107.099 145.289 107.561 146.064 107.306C146.89 107.035 147.171 106.156 148.264 106.168C148.874 106.175 149.14 106.611 149.416 106.765C150.581 107.413 152.239 106.979 152.832 106.529C154.201 105.49 153.998 103.27 154.844 101.742C155.254 101.615 155.704 101.256 156.147 101.228C157.138 101.165 157.573 101.531 158.331 101.237C159.362 100.838 159.66 99.2617 160.819 99.0249C161.432 99.0932 162.046 99.1617 162.659 99.2301C163.347 99.0516 163.682 97.9032 164.387 97.6779C165.671 97.2675 167.33 98.5045 168.583 97.7946C169.144 97.4769 169.742 96.6898 170.075 96.0352C170.406 95.383 170.074 94.9931 170.506 94.4236C171.47 93.1557 173.464 93.9186 174.554 92.9173C175.278 92.2526 175.274 90.3632 175.998 89.7056C176.706 89.0627 177.718 89.4237 178.634 89.1164C179.732 88.7482 181.175 87.1947 181.073 85.4519C181.007 84.3165 180.244 82.9863 179.273 82.3786C178.514 81.9033 177.666 82.0707 177.169 81.527C176.121 80.3802 177.185 77.9821 176.108 76.7807C175.286 75.8626 173.76 76.2911 172.816 75.4667C172.043 74.7917 171.977 73.325 171.596 72.4049C170.794 70.4688 168.698 69.3107 165.78 68.5434ZM158.076 72.8126C158.336 72.9302 158.596 73.048 158.856 73.1656C159.062 73.8279 159.349 74.733 158.353 75.0457C157.701 75.2503 156.101 74.7193 155.353 74.8177C152.568 75.1836 152.36 76.826 150.921 79.3879C150.448 79.377 150.334 79.4646 149.761 79.3649C149.624 79.1102 149.465 78.9675 149.361 78.682C149.054 77.9555 149.626 76.9023 150.009 76.2646C151.304 74.1056 152.97 72.8791 155.348 72.6574C156.213 72.5769 157.27 73.0444 158.076 72.8126ZM169.522 86.6749C170.088 86.8859 170.304 87.0699 170.466 87.5036C170.805 88.2664 170.153 89.4181 169.782 90.0553C168.387 92.4523 166.95 93.6461 164.27 93.7603C163.11 93.8098 161.154 93.4665 160.806 92.5442C160.674 92.2343 160.674 92.0311 160.85 91.8363C160.974 91.5342 161.001 91.5201 161.13 91.3355C162.169 91.0916 163.244 91.7306 164.402 91.6365C167.01 91.4245 167.451 89.6637 168.698 87.0299C168.976 86.9487 169.28 86.8239 169.522 86.6749Z"/>
</mask>
<path fill-rule="evenodd" clip-rule="evenodd" d="M225.425 49.4038C233.019 51.344 236.532 57.1765 236.87 63.2661C237.296 70.949 231.591 76.1047 226.876 77.717C225.457 78.2019 223.811 78.8143 221.984 78.5653C220.803 85.0201 217.578 87.8673 213.133 89.2923C211.812 89.7159 210.275 90.1865 208.485 89.7742C206.692 98.1754 200.901 101.753 193.683 101.497C192.194 101.445 190.98 100.8 189.603 100.404C188.323 103.513 183.658 105.044 179.759 103.956C178.415 107.146 174.158 109.594 171.144 109.996C170.488 110.084 166.924 109.704 166.64 109.941C167.549 112.054 165.327 116.952 164.201 118.499C160.796 123.182 156.732 124.748 150.366 124.436C148.347 124.338 146.742 123.098 145.342 122.514C143.921 124.145 141.987 125.074 139.774 125.341C138.968 125.268 138.161 125.196 137.354 125.124C136.941 125.397 136.528 125.67 136.114 125.943C135.039 126.555 133.778 127.174 132.611 127.595C128.589 129.046 124.074 129.829 119.603 130.443C117.356 130.752 114.949 130.927 112.635 130.879C111.657 130.859 110.517 130.206 110.331 129.686C109.672 127.841 112.384 126.265 113.223 125.423C115.48 123.157 117.45 120.766 119.534 118.19C120.438 117.073 121.835 116.047 122.417 114.5C120.207 113.055 119.271 106.966 121.544 103.615C122.312 102.483 123.621 101.806 124.348 100.768C118.898 96.0927 120.985 85.4447 128.402 84.0054C128.292 83.8603 128.378 83.9478 128.166 83.7983C127.806 83.3335 127.132 83.1278 126.714 82.6895C126.091 82.0368 125.265 80.8847 124.942 80.0555C123.526 76.4267 124.883 72.2207 127.813 69.8853C128.673 69.1991 130.127 68.7363 131.244 68.5018C131.836 68.4686 132.428 68.4352 133.02 68.4019C133.14 67.9543 133.26 67.5065 133.38 67.0589C133.122 66.2306 134.299 64.3606 134.688 63.8108C136.549 61.1773 138.516 59.4494 141.547 58.8836C141.559 58.8389 141.571 58.794 141.583 58.7493C141.538 58.7372 141.492 58.725 141.447 58.7129C141.348 56.8229 140.33 56.3099 137.871 55.7394C137.556 55.3929 137.079 55.3989 136.583 55.1064C135.648 54.4242 134.713 53.7418 133.779 53.0596C130.507 49.6752 129.603 46.6306 129.813 41.2016C129.841 40.4882 130.069 38.9047 130.505 38.0763C130.875 37.3729 132.625 34.7695 132.673 34.3389C132.75 33.6473 132.61 32.5243 132.64 31.7394C132.741 29.156 134.777 25.7449 135.88 24.5467C137.289 23.0153 139.346 21.5091 141.255 20.8052C142.077 20.5022 144.879 20.2791 145.331 19.7382C145.752 19.3661 145.822 18.7652 146.171 18.2359C146.993 17.161 147.816 16.0857 148.638 15.0108C152.873 11.0156 157.345 9.10694 163.941 9.0354C166.329 9.00957 170.048 9.76811 172.274 11.124C173.822 12.0671 175.615 13.1216 176.802 14.3525C177.467 15.0429 177.986 16.0522 178.818 16.6201C180.152 15.4815 182.231 15.3254 183.962 14.8316C187.165 13.9181 194.413 13.5377 199.098 16.0085C203.104 18.1211 206.24 20.2351 208.69 23.1849C210.297 25.1203 211.783 27.7946 212.655 30.1488C213.026 31.151 213.061 32.3423 213.567 33.272C215.301 32.7056 218.67 34.6094 219.715 35.3512C223.995 38.3889 227.008 43.1267 225.425 49.4038ZM178.861 80.1091C182.442 80.9998 184.834 85.5907 182.15 89.051C180.984 90.5529 179.382 91.1734 177.442 91.388C177.669 93.9708 174.386 96.0649 172.367 95.6417C171.573 98.7323 169.658 100.156 167.183 100.298C166.512 100.337 165.66 99.8555 165.071 100.02C163.848 100.772 163.296 101.698 161.267 101.16C160.641 102.675 158.977 103.488 157.548 103.618C157.055 103.663 156.649 103.433 156.252 103.559C156.649 104.557 155.71 106.244 155.216 106.88C153.572 108.995 151.435 109.824 148.096 108.427C147.607 108.902 146.894 109.398 146.205 109.503C145.702 109.579 145.238 109.299 144.873 109.578C143.742 110.442 142.645 112.272 141.545 113.292C139.623 115.076 137.545 116.788 135.502 118.438C133.409 120.128 130.914 121.731 128.578 123.06C127.301 123.788 125.741 124.345 124.623 125.311C124.668 125.323 124.713 125.335 124.759 125.348C126.383 124.512 128.938 124.417 130.718 123.778C132.653 123.083 134.359 121.529 136.286 120.951C137.434 120.607 139.072 121.329 140.21 120.995C142.108 120.439 142.987 118.293 145.197 118.157C146.905 118.053 148.546 119.355 149.95 120.006C151.706 120.821 154.946 120.216 156.129 119.791C158.646 118.887 160.413 116.879 161.873 114.133C163.573 110.935 161.025 107.066 165.164 105.659C166.985 105.04 169.921 106.134 171.924 105.455C173.365 104.966 174.815 103.738 175.787 102.46C176.294 101.793 176.428 101.123 177.007 100.628C178.965 98.952 181.438 100.724 183.739 99.9844C185.706 99.3522 186.523 96.7913 188.534 96.2314C190.345 95.7273 191.816 97.2348 194.082 97.2862C196.245 97.3352 198.697 96.8998 200.178 95.7529C201.48 94.7445 202.673 93.438 203.578 91.7698C204.478 90.1104 204.233 87.8553 205.353 86.7758C207.439 84.7645 211.781 86.2359 214.157 84.3847C215.392 83.422 216.351 82.2144 217.212 80.5974C218.118 78.8957 217.608 76.7662 218.852 75.5669C220.32 74.1513 222.154 74.7902 224.159 74.2543C226.835 73.5391 232.256 70.3139 232.434 65.676C232.629 60.6025 231.281 57.0078 227.129 54.4666C225.315 53.3559 222.97 53.2804 221.841 51.8981C220.59 50.3666 221.627 48.6598 221.576 46.3575C221.552 45.2326 221.293 43.8595 220.908 42.8678C220.062 40.6896 218.146 39.1583 215.688 37.8705C213.742 36.8513 211.683 37.6335 210.32 36.1443C209.069 34.7775 208.954 32.4082 208.279 30.7035C207.113 27.7594 204.673 24.604 202.01 22.5465C197.73 19.2392 189.962 17.3725 185.102 18.7357C183.316 19.2368 180.399 20.8936 178.69 20.9041C175.934 20.9209 174.985 18.5653 173.926 17.4684C172.167 15.6459 168.113 13.2204 164.294 13.1602C159.006 13.0767 154.209 14.8475 151.183 18.5713C150.126 19.8716 149.459 22.141 148.183 23.2373C146.43 24.7442 142.723 24.2611 140.604 25.9564C139.435 26.8916 136.988 29.6366 136.9 32.1611C136.864 33.2108 137.204 34.8148 136.781 35.8715C135.939 37.9718 133.842 39.5218 133.822 42.5635C133.797 46.2312 135.379 49.3003 138.342 51.2597C139.511 52.0327 141.211 51.9075 142.622 52.6944C144.268 53.6114 145.933 57.0886 145.915 58.9025C145.876 62.8296 142.385 62.6191 140.56 63.6569C139.708 64.1414 138.737 65.1359 138.172 66.0399C136.812 68.2185 137.664 70.6794 135.565 71.9625C133.276 73.3611 131.158 71.9271 129.317 74.6066C129.068 74.9691 128.592 75.5773 128.577 76.2796C128.493 80.2464 132.768 80.3601 132.942 83.9264C133.205 89.3241 125.471 86.9673 125.375 93.1262C125.316 96.9171 128.323 97.4581 128.724 100.213C129.341 104.453 124.578 104.178 124.453 107.993C124.349 111.16 126.435 111.777 126.757 114.08C127.002 115.827 125.879 117.123 125.098 118.097C123.584 119.986 122.168 121.702 120.722 123.546C120.768 123.558 120.813 123.571 120.858 123.583C120.87 123.538 120.882 123.493 120.894 123.448C122.159 122.744 123.24 121.703 124.378 120.783C126.666 118.935 129.214 117.198 131.417 115.185C132.34 114.341 132.956 113.404 133.877 112.533C135.788 110.726 138.201 108.303 139.3 105.35C137.552 103.473 138.847 101.673 140.024 99.9301C138.235 98.4206 138.699 93.7445 141.579 93.5816C141.591 93.5369 141.603 93.492 141.615 93.4473C140.58 92.8731 140.52 92.0246 140.043 91.1548C140.44 88.7751 141.352 87.3737 143.506 87.4768C143.31 85.1523 145.497 84.3942 146.698 83.7259C146.652 83.7138 146.607 83.7016 146.562 83.6895C146.546 82.9426 146.193 82.8184 145.246 82.6171C144.924 82.2659 144.394 82.1695 143.994 81.8498C143.319 81.3111 142.567 80.1838 142.321 79.3866C141.857 77.8765 142.312 76.231 143.101 74.8454C143.343 73.759 143.586 72.6722 143.828 71.5858C144.854 69.7705 146.321 69.0525 148.236 68.7365C149.298 65.5422 152.786 64.4199 155.804 64.4308C157.614 64.4375 159.175 65.7002 159.94 66.4028C160.236 66.6748 160.966 67.4153 161.156 67.3044C164.952 66.1314 169.024 65.964 172.216 69.5482C172.761 70.414 173.307 71.2799 173.852 72.1457C173.942 72.3752 174.079 73.5633 174.172 73.6709C174.807 73.841 175.442 74.0111 176.076 74.1811C176.513 74.6662 177.222 74.8575 177.664 75.3263C178.705 76.4293 179.247 78.1992 178.861 80.1091ZM187.591 31.2058C196.791 33.5635 201.147 37.0495 203.12 43.4274C203.656 45.1581 204.675 48.0565 203.641 50.1882C203.207 50.2636 202.989 50.3603 202.445 50.2995C202.341 50.1567 202.124 50.0054 201.973 49.8852C201.788 48.7608 201.921 47.576 201.749 46.3705C201.031 41.3423 198.066 37.6665 193.136 34.9944C190.699 33.6737 186.162 33.7687 184.704 32.735C184.631 32.3082 184.601 32.077 184.755 31.4535C184.956 31.3528 185.052 31.2444 185.271 31.1599C185.898 30.919 186.911 31.4173 187.591 31.2058ZM165.871 27.4011C166.421 27.5879 166.478 27.7274 166.887 27.9612C166.879 28.4293 166.969 28.5428 166.872 29.1085C165.089 30.0761 161.343 29.4334 159.18 30.0702C156.247 30.9332 153.845 32.6934 152.14 35.6689C151.34 37.066 151.169 39.3294 150.573 40.4308C150.1 40.42 149.986 40.5075 149.413 40.4078C149.276 40.1531 149.117 40.0104 149.013 39.7249C148.386 38.219 149.943 35.2653 150.66 34.1208C153.067 30.2823 156.333 28.1677 160.579 27.5665C161.709 27.4065 162.904 27.3766 163.995 27.3302C164.667 27.3017 165.308 27.5833 165.871 27.4011ZM207.275 68.7226C208.043 68.9963 208.371 69.2963 208.211 70.1249C208.604 71.3631 206.525 74.3761 206.028 75.0096C203.314 78.4663 200.358 79.5401 195.824 79.9044C194.473 80.013 192.368 80.1174 190.985 79.4712C190.844 79.0105 190.392 78.428 190.972 77.8846C191.607 77.2897 192.58 77.8589 193.6 77.8691C195.698 77.8898 197.98 77.8435 199.752 77.2144C202.138 76.3673 204.123 74.5326 205.523 71.9957C206.014 71.1058 206.116 69.7074 206.487 68.9433C206.765 68.8981 207.046 68.85 207.275 68.7226ZM165.78 68.5434C165.04 68.5849 164.3 68.6267 163.56 68.6682C162.209 69.0291 161.749 69.7507 159.764 69.2345C158.15 66.5535 153.782 65.8785 151.56 67.7559C150.764 68.4284 150.503 69.6892 149.68 70.4189C148.914 71.099 147.431 70.8189 146.628 71.4724C145.083 72.7313 146.04 74.0778 145.277 75.4285C144.984 75.9464 144.205 76.6665 144.221 77.7365C144.273 81.2057 149.271 80.311 148.91 84.1747C148.756 85.8152 147.066 85.571 146.322 86.2161C145.634 86.8126 145.635 88.551 144.95 89.1592C144.344 89.6984 143.216 89.3328 142.686 89.992C142.398 90.1723 142.359 90.2658 142.199 90.7249C143.022 91.9522 144.218 92.4944 143.647 94.5676C142.845 95.1478 142.204 95.6602 141.339 96.1083C141.132 96.7043 140.908 96.9611 141.115 97.4877C141.142 97.8364 142.111 99.5748 142.344 99.9759C141.963 101.304 140.437 102.324 140.728 103.285C140.768 103.902 141.242 104.608 141.556 105.091C141.118 107.556 139.371 109.446 138.061 111.063C134.973 114.875 131.619 117.603 128.202 120.657C128.247 120.669 128.293 120.681 128.338 120.693C128.35 120.648 128.362 120.603 128.374 120.559C129.842 120.052 131.253 118.726 132.474 117.771C135.355 115.515 138.328 113.301 141.069 110.718C142.077 109.767 142.699 108.391 143.808 107.565C144.436 107.099 145.289 107.561 146.064 107.306C146.89 107.035 147.171 106.156 148.264 106.168C148.874 106.175 149.14 106.611 149.416 106.765C150.581 107.413 152.239 106.979 152.832 106.529C154.201 105.49 153.998 103.27 154.844 101.742C155.254 101.615 155.704 101.256 156.147 101.228C157.138 101.165 157.573 101.531 158.331 101.237C159.362 100.838 159.66 99.2617 160.819 99.0249C161.432 99.0932 162.046 99.1617 162.659 99.2301C163.347 99.0516 163.682 97.9032 164.387 97.6779C165.671 97.2675 167.33 98.5045 168.583 97.7946C169.144 97.4769 169.742 96.6898 170.075 96.0352C170.406 95.383 170.074 94.9931 170.506 94.4236C171.47 93.1557 173.464 93.9186 174.554 92.9173C175.278 92.2526 175.274 90.3632 175.998 89.7056C176.706 89.0627 177.718 89.4237 178.634 89.1164C179.732 88.7482 181.175 87.1947 181.073 85.4519C181.007 84.3165 180.244 82.9863 179.273 82.3786C178.514 81.9033 177.666 82.0707 177.169 81.527C176.121 80.3802 177.185 77.9821 176.108 76.7807C175.286 75.8626 173.76 76.2911 172.816 75.4667C172.043 74.7917 171.977 73.325 171.596 72.4049C170.794 70.4688 168.698 69.3107 165.78 68.5434ZM158.076 72.8126C158.336 72.9302 158.596 73.048 158.856 73.1656C159.062 73.8279 159.349 74.733 158.353 75.0457C157.701 75.2503 156.101 74.7193 155.353 74.8177C152.568 75.1836 152.36 76.826 150.921 79.3879C150.448 79.377 150.334 79.4646 149.761 79.3649C149.624 79.1102 149.465 78.9675 149.361 78.682C149.054 77.9555 149.626 76.9023 150.009 76.2646C151.304 74.1056 152.97 72.8791 155.348 72.6574C156.213 72.5769 157.27 73.0444 158.076 72.8126ZM169.522 86.6749C170.088 86.8859 170.304 87.0699 170.466 87.5036C170.805 88.2664 170.153 89.4181 169.782 90.0553C168.387 92.4523 166.95 93.6461 164.27 93.7603C163.11 93.8098 161.154 93.4665 160.806 92.5442C160.674 92.2343 160.674 92.0311 160.85 91.8363C160.974 91.5342 161.001 91.5201 161.13 91.3355C162.169 91.0916 163.244 91.7306 164.402 91.6365C167.01 91.4245 167.451 89.6637 168.698 87.0299C168.976 86.9487 169.28 86.8239 169.522 86.6749Z" stroke="#7AC834" mask="url(#path-3-inside-1_302_2)"/>
</g>
<path opacity="0.5" fill-rule="evenodd" clip-rule="evenodd" d="M43.3548 73.7201C39.1519 74.7938 37.2078 78.0216 37.0207 81.3917C36.7847 85.6435 39.942 88.4968 42.5518 89.389C43.3367 89.6574 44.2477 89.9963 45.259 89.8585C45.9127 93.4307 47.697 95.0064 50.1571 95.795C50.8882 96.0294 51.7388 96.2899 52.7293 96.0617C53.7219 100.711 56.9265 102.691 60.9212 102.549C61.7451 102.52 62.4171 102.164 63.1792 101.944C63.8875 103.665 66.469 104.512 68.6267 103.91C69.3706 105.676 71.7265 107.03 73.3945 107.253C73.7576 107.301 75.7298 107.091 75.8871 107.222C75.384 108.392 76.614 111.102 77.2369 111.959C79.1213 114.55 81.3703 115.417 84.8935 115.244C86.0109 115.19 86.8989 114.503 87.6739 114.181C88.46 115.083 89.5305 115.597 90.7551 115.745C91.2015 115.705 91.648 115.665 92.0944 115.625C92.323 115.776 92.5518 115.927 92.7805 116.078C93.3758 116.417 94.0733 116.759 94.7196 116.993C96.9454 117.795 99.4437 118.229 101.918 118.569C103.162 118.74 104.494 118.836 105.774 118.81C106.316 118.799 106.947 118.437 107.049 118.15C107.414 117.129 105.913 116.256 105.449 115.79C104.2 114.536 103.109 113.213 101.956 111.787C101.456 111.169 100.683 110.602 100.361 109.746C101.584 108.945 102.102 105.576 100.844 103.721C100.419 103.095 99.6946 102.72 99.2923 102.146C102.308 99.5584 101.153 93.6657 97.0487 92.8692C97.1095 92.7888 97.0622 92.8372 97.1793 92.7545C97.3787 92.4973 97.7515 92.3835 97.9829 92.1409C98.3275 91.7797 98.7847 91.1421 98.9637 90.6832C99.747 88.6749 98.9961 86.3473 97.3749 85.0548C96.8985 84.6751 96.094 84.419 95.4757 84.2892C95.1481 84.2708 94.8205 84.2523 94.4929 84.2339C94.4265 83.9862 94.3601 83.7384 94.2937 83.4907C94.4367 83.0323 93.7851 81.9974 93.5701 81.6931C92.5399 80.2357 91.4517 79.2794 89.774 78.9663C89.7673 78.9416 89.7607 78.9167 89.7541 78.892C89.7791 78.8853 89.8043 78.8785 89.8293 78.8718C89.884 77.8259 90.4478 77.542 91.8085 77.2263C91.9829 77.0345 92.2469 77.0378 92.5213 76.876C93.0385 76.4984 93.5559 76.1208 94.0732 75.7432C95.8836 73.8702 96.3841 72.1853 96.2676 69.1808C96.2523 68.786 96.126 67.9096 95.8848 67.4512C95.68 67.0619 94.7119 65.6212 94.6852 65.3829C94.6425 65.0001 94.72 64.3786 94.7031 63.9442C94.6474 62.5146 93.5207 60.6268 92.9105 59.9637C92.1307 59.1162 90.9921 58.2826 89.9356 57.8931C89.4807 57.7254 87.9303 57.6019 87.68 57.3026C87.4472 57.0967 87.4085 56.7641 87.2152 56.4712C86.7601 55.8763 86.3047 55.2812 85.8496 54.6864C83.506 52.4754 81.0313 51.4191 77.3806 51.3795C76.0593 51.3652 74.0012 51.785 72.7695 52.5354C71.9128 53.0573 70.9203 53.6409 70.2635 54.3221C69.8951 54.7041 69.6083 55.2627 69.1477 55.577C68.4094 54.9469 67.2591 54.8605 66.3011 54.5872C64.5282 54.0817 60.5173 53.8712 57.9246 55.2385C55.7076 56.4077 53.9717 57.5776 52.6159 59.2101C51.7264 60.2811 50.9041 61.7611 50.4218 63.064C50.2164 63.6186 50.1972 64.2779 49.9169 64.7924C48.9576 64.479 47.0928 65.5326 46.5144 65.9431C44.1459 67.6242 42.4787 70.2462 43.3548 73.7201Z" fill="white"/>
<g opacity="0.5">
<mask id="path-5-inside-2_302_2" fill="white">
<path fill-rule="evenodd" clip-rule="evenodd" d="M43.3548 73.7201C39.1519 74.7938 37.2078 78.0216 37.0207 81.3917C36.7847 85.6435 39.942 88.4968 42.5518 89.389C43.3367 89.6574 44.2477 89.9963 45.259 89.8585C45.9127 93.4307 47.697 95.0064 50.1571 95.795C50.8882 96.0294 51.7388 96.2899 52.7293 96.0617C53.722 100.711 56.9265 102.691 60.9212 102.549C61.7451 102.52 62.4171 102.164 63.1792 101.944C63.8875 103.665 66.469 104.512 68.6267 103.91C69.3706 105.676 71.7265 107.03 73.3945 107.253C73.7576 107.301 75.7298 107.091 75.8871 107.222C75.384 108.392 76.6139 111.102 77.2369 111.959C79.1213 114.55 81.3703 115.417 84.8935 115.244C86.0109 115.19 86.8989 114.503 87.6739 114.181C88.46 115.083 89.5305 115.597 90.7551 115.745C91.2015 115.705 91.648 115.665 92.0944 115.625C92.323 115.776 92.5518 115.927 92.7805 116.078C93.3758 116.417 94.0733 116.759 94.7196 116.993C96.9454 117.795 99.4437 118.229 101.918 118.569C103.162 118.74 104.494 118.836 105.774 118.81C106.316 118.799 106.947 118.437 107.049 118.15C107.414 117.129 105.913 116.256 105.449 115.79C104.2 114.536 103.109 113.213 101.956 111.787C101.456 111.169 100.683 110.602 100.361 109.746C101.584 108.945 102.102 105.576 100.844 103.721C100.419 103.095 99.6946 102.72 99.2923 102.146C102.308 99.5585 101.153 93.6656 97.0487 92.8692C97.1095 92.7888 97.0622 92.8372 97.1793 92.7545C97.3787 92.4973 97.7515 92.3835 97.9829 92.1409C98.3275 91.7797 98.7847 91.1421 98.9637 90.6832C99.747 88.6749 98.9961 86.3473 97.3749 85.0548C96.8985 84.6751 96.094 84.419 95.4757 84.2892C95.1481 84.2708 94.8205 84.2523 94.4929 84.2339C94.4265 83.9862 94.3601 83.7384 94.2937 83.4907C94.4367 83.0323 93.7851 81.9974 93.57 81.6931C92.5399 80.2357 91.4517 79.2794 89.774 78.9663C89.7673 78.9416 89.7607 78.9167 89.7541 78.892C89.7791 78.8853 89.8043 78.8785 89.8293 78.8718C89.884 77.8259 90.4478 77.542 91.8085 77.2263C91.9829 77.0345 92.2469 77.0378 92.5213 76.876C93.0385 76.4984 93.5559 76.1208 94.0732 75.7432C95.8836 73.8702 96.3841 72.1853 96.2676 69.1808C96.2523 68.786 96.126 67.9096 95.8848 67.4512C95.68 67.0619 94.7119 65.6212 94.6852 65.3829C94.6425 65.0001 94.72 64.3786 94.7031 63.9442C94.6474 62.5146 93.5207 60.6268 92.9105 59.9637C92.1307 59.1162 90.9921 58.2826 89.9356 57.8931C89.4807 57.7254 87.9303 57.6019 87.68 57.3026C87.4472 57.0967 87.4085 56.7641 87.2152 56.4712C86.7601 55.8763 86.3047 55.2812 85.8496 54.6863C83.506 52.4754 81.0313 51.4191 77.3806 51.3795C76.0593 51.3652 74.0012 51.785 72.7695 52.5354C71.9128 53.0573 70.9203 53.6409 70.2635 54.3221C69.8951 54.7041 69.6083 55.2627 69.1477 55.577C68.4094 54.9469 67.2591 54.8605 66.3011 54.5872C64.5282 54.0817 60.5173 53.8712 57.9246 55.2385C55.7076 56.4077 53.9717 57.5776 52.6159 59.2101C51.7264 60.2811 50.9041 61.7611 50.4218 63.064C50.2164 63.6186 50.1972 64.2779 49.9169 64.7924C48.9576 64.479 47.0928 65.5326 46.5144 65.9431C44.1459 67.6242 42.4787 70.2462 43.3548 73.7201ZM69.124 90.7128C67.1422 91.2058 65.8181 93.7465 67.3039 95.6614C67.9487 96.4927 68.8353 96.8361 69.9092 96.9548C69.7834 98.3841 71.6002 99.5431 72.718 99.3089C73.1573 101.019 74.2172 101.807 75.5866 101.886C75.9581 101.907 76.4293 101.641 76.7554 101.732C77.4326 102.148 77.7377 102.661 78.8605 102.363C79.2073 103.201 80.1283 103.651 80.919 103.723C81.1918 103.748 81.4164 103.62 81.6362 103.69C81.4165 104.243 81.9361 105.176 82.2094 105.528C83.1194 106.699 84.3017 107.158 86.1495 106.384C86.4204 106.647 86.8149 106.922 87.1965 106.98C87.4745 107.022 87.7316 106.867 87.9337 107.021C88.5594 107.499 89.1665 108.512 89.7752 109.077C90.8389 110.064 91.9888 111.011 93.1197 111.925C94.2775 112.86 95.6588 113.747 96.9512 114.483C97.6579 114.885 98.5212 115.194 99.1403 115.728C99.1153 115.735 99.0901 115.742 99.0651 115.749C98.1658 115.286 96.7521 115.234 95.7668 114.88C94.6963 114.495 93.7519 113.635 92.6856 113.316C92.0503 113.125 91.1439 113.525 90.5141 113.34C89.4636 113.032 88.9772 111.844 87.7538 111.769C86.8088 111.711 85.901 112.432 85.1239 112.793C84.152 113.243 82.3588 112.909 81.7039 112.674C80.3112 112.173 79.3334 111.062 78.5255 109.542C77.5845 107.772 78.9948 105.631 76.7042 104.852C75.6962 104.51 74.0714 105.116 72.9631 104.74C72.1655 104.469 71.3629 103.789 70.825 103.082C70.5444 102.713 70.4705 102.343 70.1499 102.068C69.0664 101.141 67.6978 102.121 66.4244 101.712C65.3358 101.362 64.8835 99.945 63.7705 99.6352C62.7682 99.3562 61.9541 100.191 60.7001 100.219C59.5031 100.246 58.1463 100.005 57.3266 99.3704C56.606 98.8123 55.9461 98.0893 55.4453 97.1661C54.9472 96.2477 55.0824 94.9997 54.4627 94.4023C53.3083 93.2892 50.9054 94.1035 49.5907 93.0791C48.907 92.5463 48.3763 91.878 47.8997 90.9831C47.3983 90.0413 47.6807 88.8629 46.9924 88.1992C46.18 87.4157 45.1647 87.7693 44.055 87.4727C42.5744 87.0769 39.574 85.292 39.4755 82.7254C39.3678 79.9176 40.1139 77.9282 42.4115 76.5219C43.4156 75.9072 44.7131 75.8654 45.338 75.1004C46.0304 74.2529 45.4564 73.3083 45.4845 72.0342C45.4982 71.4116 45.6413 70.6517 45.8543 70.1029C46.3223 68.8974 47.383 68.05 48.7434 67.3373C49.8201 66.7733 50.9599 67.2062 51.7142 66.382C52.4065 65.6256 52.4698 64.3144 52.8435 63.371C53.4889 61.7417 54.839 59.9954 56.3127 58.8568C58.6816 57.0264 62.9804 55.9934 65.6699 56.7478C66.6586 57.0251 68.2725 57.942 69.2183 57.9478C70.7435 57.9571 71.269 56.6535 71.8549 56.0465C72.8285 55.0378 75.0719 53.6956 77.1856 53.6622C80.112 53.616 82.7667 54.596 84.4415 56.6568C85.0264 57.3764 85.3953 58.6323 86.1015 59.2391C87.0719 60.073 89.1235 59.8057 90.2961 60.7439C90.943 61.2614 92.297 62.7805 92.3456 64.1776C92.3657 64.7585 92.1775 65.6462 92.4118 66.231C92.8774 67.3934 94.0381 68.2512 94.0495 69.9345C94.0632 71.9643 93.1876 73.6628 91.5475 74.7471C90.9006 75.1749 89.9601 75.1056 89.1789 75.5411C88.2685 76.0486 87.3467 77.9729 87.3567 78.9767C87.3784 81.1501 89.3103 81.0336 90.3205 81.6079C90.792 81.8761 91.3294 82.4264 91.6418 82.9267C92.3947 84.1324 91.9229 85.4943 93.0848 86.2044C94.3513 86.9784 95.5236 86.1848 96.5423 87.6677C96.6801 87.8683 96.9435 88.2049 96.9517 88.5936C96.9984 90.7889 94.6323 90.8518 94.5362 92.8254C94.3907 95.8126 98.6709 94.5083 98.7239 97.9167C98.7565 100.015 97.0926 100.314 96.8706 101.839C96.5291 104.185 99.1652 104.033 99.2343 106.144C99.2917 107.897 98.1371 108.239 97.9589 109.513C97.8237 110.48 98.4449 111.197 98.8773 111.736C99.715 112.781 100.499 113.731 101.299 114.752C101.274 114.758 101.249 114.765 101.223 114.772C101.217 114.747 101.21 114.722 101.204 114.698C100.504 114.308 99.9057 113.732 99.2756 113.223C98.0094 112.2 96.5993 111.238 95.38 110.124C94.8692 109.658 94.5283 109.139 94.0187 108.657C92.9612 107.657 91.6256 106.316 91.0175 104.682C91.9852 103.643 91.268 102.647 90.6171 101.682C91.6068 100.847 91.35 98.2589 89.7564 98.1688C89.7498 98.144 89.7431 98.1192 89.7365 98.0945C90.3093 97.7766 90.3426 97.3071 90.6066 96.8258C90.3866 95.5088 89.882 94.7332 88.6898 94.7903C88.7986 93.5039 87.5878 93.0843 86.9236 92.7145C86.9486 92.7077 86.9738 92.701 86.9988 92.6943C87.0077 92.281 87.2027 92.2122 87.7272 92.1008C87.9049 91.9065 88.1984 91.8531 88.4201 91.6762C88.7936 91.3781 89.2098 90.7542 89.3455 90.313C89.6026 89.4773 89.3509 88.5666 88.9141 87.7999C88.7799 87.1986 88.6457 86.5972 88.5115 85.9959C87.944 84.9913 87.132 84.5939 86.0722 84.4191C85.4848 82.6513 83.5543 82.0302 81.8843 82.0363C80.8821 82.0399 80.0183 82.7387 79.5953 83.1275C79.4314 83.2781 79.0273 83.6879 78.9223 83.6265C76.8213 82.9774 74.5678 82.8847 72.8015 84.8683C72.4996 85.3474 72.1977 85.8266 71.8959 86.3058C71.8463 86.4328 71.7703 87.0903 71.7187 87.1499C71.3676 87.244 71.0162 87.3381 70.665 87.4322C70.4231 87.7006 70.0309 87.8065 69.7862 88.066C69.2104 88.6764 68.9103 89.6559 69.124 90.7128ZM64.2923 63.649C59.2009 64.9538 56.7902 66.883 55.6983 70.4126C55.402 71.3704 54.838 72.9744 55.4101 74.1541C55.6504 74.1959 55.7709 74.2494 56.072 74.2158C56.1299 74.1367 56.2497 74.053 56.3332 73.9864C56.4357 73.3642 56.3622 72.7085 56.4574 72.0414C56.8544 69.2587 58.4955 67.2244 61.224 65.7456C62.5727 65.0147 65.0832 65.0673 65.8905 64.4953C65.9305 64.259 65.9474 64.1311 65.8618 63.786C65.7509 63.7303 65.6979 63.6703 65.5762 63.6236C65.2293 63.4902 64.6688 63.766 64.2923 63.649ZM76.3125 61.5434C76.0084 61.6468 75.9769 61.724 75.7503 61.8534C75.7547 62.1124 75.7052 62.1752 75.759 62.4883C76.7455 63.0238 78.8184 62.6681 80.0158 63.0205C81.6386 63.4981 82.9681 64.4722 83.9114 66.1189C84.3543 66.8921 84.4488 68.1447 84.7789 68.7542C85.0408 68.7482 85.104 68.7967 85.4209 68.7415C85.4969 68.6005 85.5849 68.5216 85.6423 68.3636C85.9895 67.5302 85.1276 65.8956 84.7306 65.2622C83.3988 63.1379 81.5912 61.9676 79.2412 61.6349C78.6163 61.5464 77.9546 61.5298 77.3507 61.5042C76.9791 61.4884 76.6241 61.6442 76.3125 61.5434ZM53.3991 84.4114C52.9741 84.5628 52.7926 84.7289 52.881 85.1875C52.6636 85.8727 53.8141 87.5401 54.0893 87.8907C55.5913 89.8037 57.2273 90.398 59.736 90.5996C60.4839 90.6597 61.649 90.7174 62.4145 90.3598C62.4925 90.1049 62.7422 89.7825 62.4213 89.4818C62.0699 89.1526 61.5317 89.4676 60.9669 89.4732C59.8059 89.4847 58.543 89.4591 57.5624 89.1109C56.2419 88.6421 55.1432 87.6267 54.3684 86.2228C54.0967 85.7303 54.0407 84.9564 53.8351 84.5335C53.6814 84.5085 53.526 84.4819 53.3991 84.4114ZM76.3632 84.3122C76.7727 84.3352 77.1823 84.3583 77.5918 84.3813C78.3392 84.581 78.5941 84.9804 79.6925 84.6947C80.5854 83.211 83.0032 82.8374 84.2327 83.8764C84.6731 84.2485 84.8177 84.9463 85.273 85.3502C85.6973 85.7265 86.5178 85.5715 86.9619 85.9332C87.8173 86.6298 87.2877 87.375 87.7099 88.1225C87.8718 88.4092 88.303 88.8077 88.2942 89.3998C88.2657 91.3197 85.4995 90.8246 85.6994 92.9628C85.7843 93.8707 86.7195 93.7356 87.1315 94.0926C87.5124 94.4227 87.5118 95.3847 87.8906 95.7214C88.2263 96.0197 88.8502 95.8174 89.1435 96.1822C89.3033 96.282 89.3249 96.3337 89.4135 96.5878C88.958 97.267 88.296 97.5671 88.6119 98.7144C89.0555 99.0355 89.4107 99.3191 89.8891 99.5671C90.004 99.8969 90.1277 100.039 90.013 100.33C89.9983 100.523 89.4619 101.486 89.3332 101.707C89.5438 102.442 90.3883 103.007 90.2274 103.539C90.2052 103.88 89.9429 104.271 89.769 104.538C90.0116 105.902 90.9785 106.949 91.7034 107.843C93.4122 109.953 95.2682 111.462 97.1594 113.152C97.1343 113.159 97.1092 113.166 97.0841 113.173C97.0775 113.148 97.0709 113.123 97.0642 113.098C96.2518 112.818 95.471 112.084 94.7954 111.555C93.2008 110.307 91.5554 109.082 90.0388 107.652C89.4806 107.126 89.1367 106.364 88.5226 105.908C88.1754 105.649 87.7034 105.905 87.2741 105.764C86.8172 105.614 86.6618 105.127 86.0567 105.135C85.7193 105.138 85.5719 105.38 85.4191 105.465C84.7743 105.824 83.8568 105.583 83.5287 105.334C82.7709 104.759 82.8836 103.53 82.4156 102.685C82.1883 102.614 81.9395 102.416 81.6939 102.4C81.1457 102.366 80.9051 102.568 80.4853 102.405C79.915 102.185 79.7501 101.312 79.1086 101.181C78.7691 101.219 78.4297 101.257 78.0903 101.295C77.7097 101.196 77.5243 100.56 77.1341 100.436C76.4234 100.209 75.5056 100.893 74.812 100.5C74.5016 100.325 74.1706 99.8889 73.9864 99.5266C73.8029 99.1657 73.987 98.9499 73.7474 98.6348C73.2141 97.9331 72.1108 98.3553 71.5073 97.8011C71.1066 97.4333 71.109 96.3876 70.7084 96.0237C70.3167 95.668 69.7566 95.8677 69.2496 95.6977C68.642 95.4939 67.8434 94.6342 67.8995 93.6697C67.9362 93.0413 68.3587 92.3052 68.8959 91.9689C69.3161 91.7058 69.7854 91.7984 70.0603 91.4975C70.64 90.8629 70.0515 89.5357 70.6472 88.8708C71.1023 88.3628 71.9467 88.5999 72.4691 88.1437C72.8969 87.7701 72.9335 86.9584 73.1444 86.4492C73.5882 85.3777 74.748 84.7369 76.3632 84.3122ZM80.6264 86.6749C80.4825 86.7399 80.3387 86.8051 80.1948 86.8702C80.0807 87.2367 79.922 87.7376 80.4736 87.9107C80.8344 88.0239 81.7197 87.7301 82.1338 87.7845C83.675 87.987 83.7901 88.8959 84.5862 90.3137C84.8482 90.3077 84.9113 90.3562 85.2282 90.301C85.3042 90.16 85.3922 90.0811 85.4496 89.9231C85.6196 89.521 85.3029 88.9382 85.0911 88.5852C84.3742 87.3904 83.4522 86.7117 82.1361 86.589C81.6576 86.5444 81.0729 86.8031 80.6264 86.6749ZM74.2924 94.3465C73.9793 94.4633 73.8595 94.5651 73.77 94.8051C73.5823 95.2272 73.9431 95.8646 74.1483 96.2172C74.9204 97.5438 75.7159 98.2045 77.1985 98.2677C77.8407 98.295 78.9234 98.1051 79.1156 97.5947C79.189 97.4231 79.1887 97.3107 79.0913 97.2029C79.0228 97.0357 79.008 97.0279 78.9363 96.9258C78.3616 96.7907 77.7663 97.1444 77.1256 97.0923C75.6827 96.975 75.4381 96.0005 74.7484 94.5429C74.5946 94.498 74.426 94.429 74.2924 94.3465Z"/>
</mask>
<path fill-rule="evenodd" clip-rule="evenodd" d="M43.3548 73.7201C39.1519 74.7938 37.2078 78.0216 37.0207 81.3917C36.7847 85.6435 39.942 88.4968 42.5518 89.389C43.3367 89.6574 44.2477 89.9963 45.259 89.8585C45.9127 93.4307 47.697 95.0064 50.1571 95.795C50.8882 96.0294 51.7388 96.2899 52.7293 96.0617C53.722 100.711 56.9265 102.691 60.9212 102.549C61.7451 102.52 62.4171 102.164 63.1792 101.944C63.8875 103.665 66.469 104.512 68.6267 103.91C69.3706 105.676 71.7265 107.03 73.3945 107.253C73.7576 107.301 75.7298 107.091 75.8871 107.222C75.384 108.392 76.6139 111.102 77.2369 111.959C79.1213 114.55 81.3703 115.417 84.8935 115.244C86.0109 115.19 86.8989 114.503 87.6739 114.181C88.46 115.083 89.5305 115.597 90.7551 115.745C91.2015 115.705 91.648 115.665 92.0944 115.625C92.323 115.776 92.5518 115.927 92.7805 116.078C93.3758 116.417 94.0733 116.759 94.7196 116.993C96.9454 117.795 99.4437 118.229 101.918 118.569C103.162 118.74 104.494 118.836 105.774 118.81C106.316 118.799 106.947 118.437 107.049 118.15C107.414 117.129 105.913 116.256 105.449 115.79C104.2 114.536 103.109 113.213 101.956 111.787C101.456 111.169 100.683 110.602 100.361 109.746C101.584 108.945 102.102 105.576 100.844 103.721C100.419 103.095 99.6946 102.72 99.2923 102.146C102.308 99.5585 101.153 93.6656 97.0487 92.8692C97.1095 92.7888 97.0622 92.8372 97.1793 92.7545C97.3787 92.4973 97.7515 92.3835 97.9829 92.1409C98.3275 91.7797 98.7847 91.1421 98.9637 90.6832C99.747 88.6749 98.9961 86.3473 97.3749 85.0548C96.8985 84.6751 96.094 84.419 95.4757 84.2892C95.1481 84.2708 94.8205 84.2523 94.4929 84.2339C94.4265 83.9862 94.3601 83.7384 94.2937 83.4907C94.4367 83.0323 93.7851 81.9974 93.57 81.6931C92.5399 80.2357 91.4517 79.2794 89.774 78.9663C89.7673 78.9416 89.7607 78.9167 89.7541 78.892C89.7791 78.8853 89.8043 78.8785 89.8293 78.8718C89.884 77.8259 90.4478 77.542 91.8085 77.2263C91.9829 77.0345 92.2469 77.0378 92.5213 76.876C93.0385 76.4984 93.5559 76.1208 94.0732 75.7432C95.8836 73.8702 96.3841 72.1853 96.2676 69.1808C96.2523 68.786 96.126 67.9096 95.8848 67.4512C95.68 67.0619 94.7119 65.6212 94.6852 65.3829C94.6425 65.0001 94.72 64.3786 94.7031 63.9442C94.6474 62.5146 93.5207 60.6268 92.9105 59.9637C92.1307 59.1162 90.9921 58.2826 89.9356 57.8931C89.4807 57.7254 87.9303 57.6019 87.68 57.3026C87.4472 57.0967 87.4085 56.7641 87.2152 56.4712C86.7601 55.8763 86.3047 55.2812 85.8496 54.6863C83.506 52.4754 81.0313 51.4191 77.3806 51.3795C76.0593 51.3652 74.0012 51.785 72.7695 52.5354C71.9128 53.0573 70.9203 53.6409 70.2635 54.3221C69.8951 54.7041 69.6083 55.2627 69.1477 55.577C68.4094 54.9469 67.2591 54.8605 66.3011 54.5872C64.5282 54.0817 60.5173 53.8712 57.9246 55.2385C55.7076 56.4077 53.9717 57.5776 52.6159 59.2101C51.7264 60.2811 50.9041 61.7611 50.4218 63.064C50.2164 63.6186 50.1972 64.2779 49.9169 64.7924C48.9576 64.479 47.0928 65.5326 46.5144 65.9431C44.1459 67.6242 42.4787 70.2462 43.3548 73.7201ZM69.124 90.7128C67.1422 91.2058 65.8181 93.7465 67.3039 95.6614C67.9487 96.4927 68.8353 96.8361 69.9092 96.9548C69.7834 98.3841 71.6002 99.5431 72.718 99.3089C73.1573 101.019 74.2172 101.807 75.5866 101.886C75.9581 101.907 76.4293 101.641 76.7554 101.732C77.4326 102.148 77.7377 102.661 78.8605 102.363C79.2073 103.201 80.1283 103.651 80.919 103.723C81.1918 103.748 81.4164 103.62 81.6362 103.69C81.4165 104.243 81.9361 105.176 82.2094 105.528C83.1194 106.699 84.3017 107.158 86.1495 106.384C86.4204 106.647 86.8149 106.922 87.1965 106.98C87.4745 107.022 87.7316 106.867 87.9337 107.021C88.5594 107.499 89.1665 108.512 89.7752 109.077C90.8389 110.064 91.9888 111.011 93.1197 111.925C94.2775 112.86 95.6588 113.747 96.9512 114.483C97.6579 114.885 98.5212 115.194 99.1403 115.728C99.1153 115.735 99.0901 115.742 99.0651 115.749C98.1658 115.286 96.7521 115.234 95.7668 114.88C94.6963 114.495 93.7519 113.635 92.6856 113.316C92.0503 113.125 91.1439 113.525 90.5141 113.34C89.4636 113.032 88.9772 111.844 87.7538 111.769C86.8088 111.711 85.901 112.432 85.1239 112.793C84.152 113.243 82.3588 112.909 81.7039 112.674C80.3112 112.173 79.3334 111.062 78.5255 109.542C77.5845 107.772 78.9948 105.631 76.7042 104.852C75.6962 104.51 74.0714 105.116 72.9631 104.74C72.1655 104.469 71.3629 103.789 70.825 103.082C70.5444 102.713 70.4705 102.343 70.1499 102.068C69.0664 101.141 67.6978 102.121 66.4244 101.712C65.3358 101.362 64.8835 99.945 63.7705 99.6352C62.7682 99.3562 61.9541 100.191 60.7001 100.219C59.5031 100.246 58.1463 100.005 57.3266 99.3704C56.606 98.8123 55.9461 98.0893 55.4453 97.1661C54.9472 96.2477 55.0824 94.9997 54.4627 94.4023C53.3083 93.2892 50.9054 94.1035 49.5907 93.0791C48.907 92.5463 48.3763 91.878 47.8997 90.9831C47.3983 90.0413 47.6807 88.8629 46.9924 88.1992C46.18 87.4157 45.1647 87.7693 44.055 87.4727C42.5744 87.0769 39.574 85.292 39.4755 82.7254C39.3678 79.9176 40.1139 77.9282 42.4115 76.5219C43.4156 75.9072 44.7131 75.8654 45.338 75.1004C46.0304 74.2529 45.4564 73.3083 45.4845 72.0342C45.4982 71.4116 45.6413 70.6517 45.8543 70.1029C46.3223 68.8974 47.383 68.05 48.7434 67.3373C49.8201 66.7733 50.9599 67.2062 51.7142 66.382C52.4065 65.6256 52.4698 64.3144 52.8435 63.371C53.4889 61.7417 54.839 59.9954 56.3127 58.8568C58.6816 57.0264 62.9804 55.9934 65.6699 56.7478C66.6586 57.0251 68.2725 57.942 69.2183 57.9478C70.7435 57.9571 71.269 56.6535 71.8549 56.0465C72.8285 55.0378 75.0719 53.6956 77.1856 53.6622C80.112 53.616 82.7667 54.596 84.4415 56.6568C85.0264 57.3764 85.3953 58.6323 86.1015 59.2391C87.0719 60.073 89.1235 59.8057 90.2961 60.7439C90.943 61.2614 92.297 62.7805 92.3456 64.1776C92.3657 64.7585 92.1775 65.6462 92.4118 66.231C92.8774 67.3934 94.0381 68.2512 94.0495 69.9345C94.0632 71.9643 93.1876 73.6628 91.5475 74.7471C90.9006 75.1749 89.9601 75.1056 89.1789 75.5411C88.2685 76.0486 87.3467 77.9729 87.3567 78.9767C87.3784 81.1501 89.3103 81.0336 90.3205 81.6079C90.792 81.8761 91.3294 82.4264 91.6418 82.9267C92.3947 84.1324 91.9229 85.4943 93.0848 86.2044C94.3513 86.9784 95.5236 86.1848 96.5423 87.6677C96.6801 87.8683 96.9435 88.2049 96.9517 88.5936C96.9984 90.7889 94.6323 90.8518 94.5362 92.8254C94.3907 95.8126 98.6709 94.5083 98.7239 97.9167C98.7565 100.015 97.0926 100.314 96.8706 101.839C96.5291 104.185 99.1652 104.033 99.2343 106.144C99.2917 107.897 98.1371 108.239 97.9589 109.513C97.8237 110.48 98.4449 111.197 98.8773 111.736C99.715 112.781 100.499 113.731 101.299 114.752C101.274 114.758 101.249 114.765 101.223 114.772C101.217 114.747 101.21 114.722 101.204 114.698C100.504 114.308 99.9057 113.732 99.2756 113.223C98.0094 112.2 96.5993 111.238 95.38 110.124C94.8692 109.658 94.5283 109.139 94.0187 108.657C92.9612 107.657 91.6256 106.316 91.0175 104.682C91.9852 103.643 91.268 102.647 90.6171 101.682C91.6068 100.847 91.35 98.2589 89.7564 98.1688C89.7498 98.144 89.7431 98.1192 89.7365 98.0945C90.3093 97.7766 90.3426 97.3071 90.6066 96.8258C90.3866 95.5088 89.882 94.7332 88.6898 94.7903C88.7986 93.5039 87.5878 93.0843 86.9236 92.7145C86.9486 92.7077 86.9738 92.701 86.9988 92.6943C87.0077 92.281 87.2027 92.2122 87.7272 92.1008C87.9049 91.9065 88.1984 91.8531 88.4201 91.6762C88.7936 91.3781 89.2098 90.7542 89.3455 90.313C89.6026 89.4773 89.3509 88.5666 88.9141 87.7999C88.7799 87.1986 88.6457 86.5972 88.5115 85.9959C87.944 84.9913 87.132 84.5939 86.0722 84.4191C85.4848 82.6513 83.5543 82.0302 81.8843 82.0363C80.8821 82.0399 80.0183 82.7387 79.5953 83.1275C79.4314 83.2781 79.0273 83.6879 78.9223 83.6265C76.8213 82.9774 74.5678 82.8847 72.8015 84.8683C72.4996 85.3474 72.1977 85.8266 71.8959 86.3058C71.8463 86.4328 71.7703 87.0903 71.7187 87.1499C71.3676 87.244 71.0162 87.3381 70.665 87.4322C70.4231 87.7006 70.0309 87.8065 69.7862 88.066C69.2104 88.6764 68.9103 89.6559 69.124 90.7128ZM64.2923 63.649C59.2009 64.9538 56.7902 66.883 55.6983 70.4126C55.402 71.3704 54.838 72.9744 55.4101 74.1541C55.6504 74.1959 55.7709 74.2494 56.072 74.2158C56.1299 74.1367 56.2497 74.053 56.3332 73.9864C56.4357 73.3642 56.3622 72.7085 56.4574 72.0414C56.8544 69.2587 58.4955 67.2244 61.224 65.7456C62.5727 65.0147 65.0832 65.0673 65.8905 64.4953C65.9305 64.259 65.9474 64.1311 65.8618 63.786C65.7509 63.7303 65.6979 63.6703 65.5762 63.6236C65.2293 63.4902 64.6688 63.766 64.2923 63.649ZM76.3125 61.5434C76.0084 61.6468 75.9769 61.724 75.7503 61.8534C75.7547 62.1124 75.7052 62.1752 75.759 62.4883C76.7455 63.0238 78.8184 62.6681 80.0158 63.0205C81.6386 63.4981 82.9681 64.4722 83.9114 66.1189C84.3543 66.8921 84.4488 68.1447 84.7789 68.7542C85.0408 68.7482 85.104 68.7967 85.4209 68.7415C85.4969 68.6005 85.5849 68.5216 85.6423 68.3636C85.9895 67.5302 85.1276 65.8956 84.7306 65.2622C83.3988 63.1379 81.5912 61.9676 79.2412 61.6349C78.6163 61.5464 77.9546 61.5298 77.3507 61.5042C76.9791 61.4884 76.6241 61.6442 76.3125 61.5434ZM53.3991 84.4114C52.9741 84.5628 52.7926 84.7289 52.881 85.1875C52.6636 85.8727 53.8141 87.5401 54.0893 87.8907C55.5913 89.8037 57.2273 90.398 59.736 90.5996C60.4839 90.6597 61.649 90.7174 62.4145 90.3598C62.4925 90.1049 62.7422 89.7825 62.4213 89.4818C62.0699 89.1526 61.5317 89.4676 60.9669 89.4732C59.8059 89.4847 58.543 89.4591 57.5624 89.1109C56.2419 88.6421 55.1432 87.6267 54.3684 86.2228C54.0967 85.7303 54.0407 84.9564 53.8351 84.5335C53.6814 84.5085 53.526 84.4819 53.3991 84.4114ZM76.3632 84.3122C76.7727 84.3352 77.1823 84.3583 77.5918 84.3813C78.3392 84.581 78.5941 84.9804 79.6925 84.6947C80.5854 83.211 83.0032 82.8374 84.2327 83.8764C84.6731 84.2485 84.8177 84.9463 85.273 85.3502C85.6973 85.7265 86.5178 85.5715 86.9619 85.9332C87.8173 86.6298 87.2877 87.375 87.7099 88.1225C87.8718 88.4092 88.303 88.8077 88.2942 89.3998C88.2657 91.3197 85.4995 90.8246 85.6994 92.9628C85.7843 93.8707 86.7195 93.7356 87.1315 94.0926C87.5124 94.4227 87.5118 95.3847 87.8906 95.7214C88.2263 96.0197 88.8502 95.8174 89.1435 96.1822C89.3033 96.282 89.3249 96.3337 89.4135 96.5878C88.958 97.267 88.296 97.5671 88.6119 98.7144C89.0555 99.0355 89.4107 99.3191 89.8891 99.5671C90.004 99.8969 90.1277 100.039 90.013 100.33C89.9983 100.523 89.4619 101.486 89.3332 101.707C89.5438 102.442 90.3883 103.007 90.2274 103.539C90.2052 103.88 89.9429 104.271 89.769 104.538C90.0116 105.902 90.9785 106.949 91.7034 107.843C93.4122 109.953 95.2682 111.462 97.1594 113.152C97.1343 113.159 97.1092 113.166 97.0841 113.173C97.0775 113.148 97.0709 113.123 97.0642 113.098C96.2518 112.818 95.471 112.084 94.7954 111.555C93.2008 110.307 91.5554 109.082 90.0388 107.652C89.4806 107.126 89.1367 106.364 88.5226 105.908C88.1754 105.649 87.7034 105.905 87.2741 105.764C86.8172 105.614 86.6618 105.127 86.0567 105.135C85.7193 105.138 85.5719 105.38 85.4191 105.465C84.7743 105.824 83.8568 105.583 83.5287 105.334C82.7709 104.759 82.8836 103.53 82.4156 102.685C82.1883 102.614 81.9395 102.416 81.6939 102.4C81.1457 102.366 80.9051 102.568 80.4853 102.405C79.915 102.185 79.7501 101.312 79.1086 101.181C78.7691 101.219 78.4297 101.257 78.0903 101.295C77.7097 101.196 77.5243 100.56 77.1341 100.436C76.4234 100.209 75.5056 100.893 74.812 100.5C74.5016 100.325 74.1706 99.8889 73.9864 99.5266C73.8029 99.1657 73.987 98.9499 73.7474 98.6348C73.2141 97.9331 72.1108 98.3553 71.5073 97.8011C71.1066 97.4333 71.109 96.3876 70.7084 96.0237C70.3167 95.668 69.7566 95.8677 69.2496 95.6977C68.642 95.4939 67.8434 94.6342 67.8995 93.6697C67.9362 93.0413 68.3587 92.3052 68.8959 91.9689C69.3161 91.7058 69.7854 91.7984 70.0603 91.4975C70.64 90.8629 70.0515 89.5357 70.6472 88.8708C71.1023 88.3628 71.9467 88.5999 72.4691 88.1437C72.8969 87.7701 72.9335 86.9584 73.1444 86.4492C73.5882 85.3777 74.748 84.7369 76.3632 84.3122ZM80.6264 86.6749C80.4825 86.7399 80.3387 86.8051 80.1948 86.8702C80.0807 87.2367 79.922 87.7376 80.4736 87.9107C80.8344 88.0239 81.7197 87.7301 82.1338 87.7845C83.675 87.987 83.7901 88.8959 84.5862 90.3137C84.8482 90.3077 84.9113 90.3562 85.2282 90.301C85.3042 90.16 85.3922 90.0811 85.4496 89.9231C85.6196 89.521 85.3029 88.9382 85.0911 88.5852C84.3742 87.3904 83.4522 86.7117 82.1361 86.589C81.6576 86.5444 81.0729 86.8031 80.6264 86.6749ZM74.2924 94.3465C73.9793 94.4633 73.8595 94.5651 73.77 94.8051C73.5823 95.2272 73.9431 95.8646 74.1483 96.2172C74.9204 97.5438 75.7159 98.2045 77.1985 98.2677C77.8407 98.295 78.9234 98.1051 79.1156 97.5947C79.189 97.4231 79.1887 97.3107 79.0913 97.2029C79.0228 97.0357 79.008 97.0279 78.9363 96.9258C78.3616 96.7907 77.7663 97.1444 77.1256 97.0923C75.6827 96.975 75.4381 96.0005 74.7484 94.5429C74.5946 94.498 74.426 94.429 74.2924 94.3465Z" stroke="#7AC834" mask="url(#path-5-inside-2_302_2)"/>
</g>
<path d="M151.5 67.5L146 65L138.5 66L83 82L78.5 83.5L77 85.5V121L78.5 125L83 128.5L112 144H113.5L156 132L172 126.5L175 122V87L174 83.5L151.5 67.5Z" fill="white"/>
<path d="M114 142C115.815 141.109 119.991 139.327 122.17 139.327C124.893 139.327 133.607 136.119 134.152 135.584C134.696 135.049 148.857 129.168 148.857 130.238C148.857 131.093 150.31 130.594 151.036 130.238C155.03 129.347 163.345 127.351 164.652 126.495C166.286 125.426 170.643 123.287 172.277 122.753C173.584 122.325 174.637 122.218 175 122.218M114 138.792C115.815 137.901 119.991 136.119 122.17 136.119C124.893 136.119 133.607 132.911 134.152 132.376C134.696 131.842 148.857 125.96 148.857 127.03C148.857 127.885 150.31 127.386 151.036 127.03C155.03 126.139 163.345 124.143 164.652 123.287C166.286 122.218 170.643 120.079 172.277 119.545C173.584 119.117 174.637 119.01 175 119.01M114 135.584C115.815 134.693 119.991 132.911 122.17 132.911C124.893 132.911 133.607 129.703 134.152 129.168C134.696 128.634 148.857 122.752 148.857 123.822C148.857 124.677 150.31 124.178 151.036 123.822C155.03 122.931 163.345 120.935 164.652 120.079C166.286 119.01 170.643 116.871 172.277 116.337C173.584 115.909 174.637 115.802 175 115.802M114 128.099C115.815 127.208 119.991 125.426 122.17 125.426C124.893 125.426 133.607 122.218 134.152 121.683C134.696 121.148 148.857 115.267 148.857 116.337C148.857 117.192 150.31 116.693 151.036 116.337C155.03 115.446 163.345 113.45 164.652 112.594C166.286 111.525 170.643 109.386 172.277 108.852C173.584 108.424 174.637 108.317 175 108.317M114 124.891C115.815 124 119.991 122.218 122.17 122.218C124.893 122.218 133.607 119.01 134.152 118.475C134.696 117.941 148.857 112.059 148.857 113.129C148.857 113.984 150.31 113.485 151.036 113.129C155.03 112.238 163.345 110.242 164.652 109.386C166.286 108.317 170.643 106.178 172.277 105.644C173.584 105.216 174.637 105.109 175 105.109M114 121.683C115.815 120.792 119.991 119.01 122.17 119.01C124.893 119.01 133.607 115.802 134.152 115.267C134.696 114.733 148.857 108.851 148.857 109.921C148.857 110.776 150.31 110.277 151.036 109.921C155.03 109.03 163.345 107.034 164.652 106.178C166.286 105.109 170.643 102.97 172.277 102.436C173.584 102.008 174.637 101.901 175 101.901M114 114.198C115.815 113.307 119.991 111.525 122.17 111.525C124.893 111.525 133.607 108.317 134.152 107.782C134.696 107.247 148.857 101.366 148.857 102.436C148.857 103.291 150.31 102.792 151.036 102.436C155.03 101.545 163.345 99.5485 164.652 98.6931C166.286 97.6238 170.643 95.4852 172.277 94.9505C173.584 94.5228 174.637 94.4159 175 94.4159M114 110.99C115.815 110.099 119.991 108.317 122.17 108.317C124.893 108.317 133.607 105.109 134.152 104.574C134.696 104.04 148.857 98.1583 148.857 99.2276C148.857 100.083 150.31 99.5841 151.036 99.2276C155.03 98.3366 163.345 96.3406 164.652 95.4852C166.286 94.4159 170.643 92.2772 172.277 91.7426C173.584 91.3149 174.637 91.2079 175 91.2079M114 107.782C115.815 106.891 119.991 105.109 122.17 105.109C124.893 105.109 133.607 101.901 134.152 101.366C134.696 100.832 148.857 94.9504 148.857 96.0197C148.857 96.8752 150.31 96.3761 151.036 96.0197C155.03 95.1287 163.345 93.1327 164.652 92.2772C166.286 91.2079 170.643 89.0693 172.277 88.5347C173.584 88.1069 174.637 88 175 88" stroke="#7AC834" stroke-width="0.5"/>
<path d="M114 142C112.899 141.12 110.366 139.359 109.045 139.359C107.393 139.359 102.107 136.19 101.777 135.661C101.446 135.133 92.8571 129.323 92.8571 130.379C92.8571 131.224 91.9762 130.731 91.5357 130.379C89.1131 129.499 84.0696 127.527 83.2768 126.682C82.2857 125.625 79.6429 123.513 78.6518 122.984C77.8589 122.562 77.2202 122.456 77 122.456M114 138.831C112.899 137.95 110.366 136.19 109.045 136.19C107.393 136.19 102.107 133.02 101.777 132.492C101.446 131.964 92.8571 126.154 92.8571 127.21C92.8571 128.055 91.9762 127.562 91.5357 127.21C89.1131 126.33 84.0696 124.358 83.2768 123.513C82.2857 122.456 79.6429 120.343 78.6518 119.815C77.8589 119.393 77.2202 119.287 77 119.287M114 135.661C112.899 134.781 110.366 133.02 109.045 133.02C107.393 133.02 102.107 129.851 101.777 129.323C101.446 128.795 92.8571 122.984 92.8571 124.041C92.8571 124.886 91.9762 124.393 91.5357 124.041C89.1131 123.16 84.0696 121.188 83.2768 120.343C82.2857 119.287 79.6429 117.174 78.6518 116.646C77.8589 116.223 77.2202 116.118 77 116.118M114 132.294C112.899 131.414 110.366 129.653 109.045 129.653C107.393 129.653 102.107 126.484 101.777 125.956C101.446 125.427 92.8571 119.617 92.8571 120.673C92.8571 121.519 91.9762 121.026 91.5357 120.673C89.1131 119.793 84.0696 117.821 83.2768 116.976C82.2857 115.92 79.6429 113.807 78.6518 113.279C77.8589 112.856 77.2202 112.75 77 112.75M114 129.125C112.899 128.244 110.366 126.484 109.045 126.484C107.393 126.484 102.107 123.314 101.777 122.786C101.446 122.258 92.8571 116.448 92.8571 117.504C92.8571 118.349 91.9762 117.856 91.5357 117.504C89.1131 116.624 84.0696 114.652 83.2768 113.807C82.2857 112.75 79.6429 110.637 78.6518 110.109C77.8589 109.687 77.2202 109.581 77 109.581M114 125.956C112.899 125.075 110.366 123.314 109.045 123.314C107.393 123.314 102.107 120.145 101.777 119.617C101.446 119.089 92.8571 113.278 92.8571 114.335C92.8571 115.18 91.9762 114.687 91.5357 114.335C89.1131 113.455 84.0696 111.483 83.2768 110.637C82.2857 109.581 79.6429 107.468 78.6518 106.94C77.8589 106.517 77.2202 106.412 77 106.412M114 122.588C112.899 121.708 110.366 119.947 109.045 119.947C107.393 119.947 102.107 116.778 101.777 116.25C101.446 115.721 92.8571 109.911 92.8571 110.968C92.8571 111.813 91.9762 111.32 91.5357 110.968C89.1131 110.087 84.0696 108.115 83.2768 107.27C82.2857 106.214 79.6429 104.101 78.6518 103.573C77.8589 103.15 77.2202 103.044 77 103.044M114 119.419C112.899 118.539 110.366 116.778 109.045 116.778C107.393 116.778 102.107 113.609 101.777 113.08C101.446 112.552 92.8571 106.742 92.8571 107.798C92.8571 108.643 91.9762 108.15 91.5357 107.798C89.1131 106.918 84.0696 104.946 83.2768 104.101C82.2857 103.044 79.6429 100.932 78.6518 100.403C77.8589 99.9808 77.2202 99.8752 77 99.8752M114 116.25C112.899 115.369 110.366 113.609 109.045 113.609C107.393 113.609 102.107 110.439 101.777 109.911C101.446 109.383 92.8571 103.573 92.8571 104.629C92.8571 105.474 91.9762 104.981 91.5357 104.629C89.1131 103.749 84.0696 101.777 83.2768 100.932C82.2857 99.8752 79.6429 97.7623 78.6518 97.2341C77.8589 96.8115 77.2202 96.7059 77 96.7059M114 112.882C112.899 112.002 110.366 110.241 109.045 110.241C107.393 110.241 102.107 107.072 101.777 106.544C101.446 106.016 92.8571 100.205 92.8571 101.262C92.8571 102.107 91.9762 101.614 91.5357 101.262C89.1131 100.381 84.0696 98.4094 83.2768 97.5643C82.2857 96.5078 79.6429 94.395 78.6518 93.8668C77.8589 93.4442 77.2202 93.3386 77 93.3386M114 109.713C112.899 108.833 110.366 107.072 109.045 107.072C107.393 107.072 102.107 103.903 101.777 103.375C101.446 102.846 92.8571 97.0359 92.8571 98.0924C92.8571 98.9375 91.9762 98.4445 91.5357 98.0924C89.1131 97.2121 84.0696 95.2401 83.2768 94.395C82.2857 93.3386 79.6429 91.2257 78.6518 90.6975C77.8589 90.2749 77.2202 90.1693 77 90.1693M114 106.544C112.899 105.663 110.366 103.903 109.045 103.903C107.393 103.903 102.107 100.733 101.777 100.205C101.446 99.677 92.8571 93.8667 92.8571 94.9231C92.8571 95.7682 91.9762 95.2752 91.5357 94.9231C89.1131 94.0428 84.0696 92.0708 83.2768 91.2257C82.2857 90.1693 79.6429 88.0564 78.6518 87.5282C77.8589 87.1056 77.2202 87 77 87" stroke="#7AC834" stroke-width="0.5"/>
<path d="M114 142C112.899 141.12 110.366 139.359 109.045 139.359C107.393 139.359 102.107 136.19 101.777 135.661C101.446 135.133 92.8571 129.323 92.8571 130.379C92.8571 131.224 91.9762 130.731 91.5357 130.379C89.1131 129.499 84.0696 127.527 83.2768 126.682C82.2857 125.625 79.6429 123.513 78.6518 122.984C77.8589 122.562 77.2202 122.456 77 122.456M114 138.831C112.899 137.95 110.366 136.19 109.045 136.19C107.393 136.19 102.107 133.02 101.777 132.492C101.446 131.964 92.8571 126.154 92.8571 127.21C92.8571 128.055 91.9762 127.562 91.5357 127.21C89.1131 126.33 84.0696 124.358 83.2768 123.513C82.2857 122.456 79.6429 120.343 78.6518 119.815C77.8589 119.393 77.2202 119.287 77 119.287M114 135.661C112.899 134.781 110.366 133.02 109.045 133.02C107.393 133.02 102.107 129.851 101.777 129.323C101.446 128.795 92.8571 122.984 92.8571 124.041C92.8571 124.886 91.9762 124.393 91.5357 124.041C89.1131 123.16 84.0696 121.188 83.2768 120.343C82.2857 119.287 79.6429 117.174 78.6518 116.646C77.8589 116.223 77.2202 116.118 77 116.118M114 132.294C112.899 131.414 110.366 129.653 109.045 129.653C107.393 129.653 102.107 126.484 101.777 125.956C101.446 125.427 92.8571 119.617 92.8571 120.673C92.8571 121.519 91.9762 121.026 91.5357 120.673C89.1131 119.793 84.0696 117.821 83.2768 116.976C82.2857 115.92 79.6429 113.807 78.6518 113.279C77.8589 112.856 77.2202 112.75 77 112.75M114 129.125C112.899 128.244 110.366 126.484 109.045 126.484C107.393 126.484 102.107 123.314 101.777 122.786C101.446 122.258 92.8571 116.448 92.8571 117.504C92.8571 118.349 91.9762 117.856 91.5357 117.504C89.1131 116.624 84.0696 114.652 83.2768 113.807C82.2857 112.75 79.6429 110.637 78.6518 110.109C77.8589 109.687 77.2202 109.581 77 109.581M114 125.956C112.899 125.075 110.366 123.314 109.045 123.314C107.393 123.314 102.107 120.145 101.777 119.617C101.446 119.089 92.8571 113.278 92.8571 114.335C92.8571 115.18 91.9762 114.687 91.5357 114.335C89.1131 113.455 84.0696 111.483 83.2768 110.637C82.2857 109.581 79.6429 107.468 78.6518 106.94C77.8589 106.517 77.2202 106.412 77 106.412M114 122.588C112.899 121.708 110.366 119.947 109.045 119.947C107.393 119.947 102.107 116.778 101.777 116.25C101.446 115.721 92.8571 109.911 92.8571 110.968C92.8571 111.813 91.9762 111.32 91.5357 110.968C89.1131 110.087 84.0696 108.115 83.2768 107.27C82.2857 106.214 79.6429 104.101 78.6518 103.573C77.8589 103.15 77.2202 103.044 77 103.044M114 119.419C112.899 118.539 110.366 116.778 109.045 116.778C107.393 116.778 102.107 113.609 101.777 113.08C101.446 112.552 92.8571 106.742 92.8571 107.798C92.8571 108.643 91.9762 108.15 91.5357 107.798C89.1131 106.918 84.0696 104.946 83.2768 104.101C82.2857 103.044 79.6429 100.932 78.6518 100.403C77.8589 99.9808 77.2202 99.8752 77 99.8752M114 116.25C112.899 115.369 110.366 113.609 109.045 113.609C107.393 113.609 102.107 110.439 101.777 109.911C101.446 109.383 92.8571 103.573 92.8571 104.629C92.8571 105.474 91.9762 104.981 91.5357 104.629C89.1131 103.749 84.0696 101.777 83.2768 100.932C82.2857 99.8752 79.6429 97.7623 78.6518 97.2341C77.8589 96.8115 77.2202 96.7059 77 96.7059M114 112.882C112.899 112.002 110.366 110.241 109.045 110.241C107.393 110.241 102.107 107.072 101.777 106.544C101.446 106.016 92.8571 100.205 92.8571 101.262C92.8571 102.107 91.9762 101.614 91.5357 101.262C89.1131 100.381 84.0696 98.4094 83.2768 97.5643C82.2857 96.5078 79.6429 94.395 78.6518 93.8668C77.8589 93.4442 77.2202 93.3386 77 93.3386M114 109.713C112.899 108.833 110.366 107.072 109.045 107.072C107.393 107.072 102.107 103.903 101.777 103.375C101.446 102.846 92.8571 97.0359 92.8571 98.0924C92.8571 98.9375 91.9762 98.4445 91.5357 98.0924C89.1131 97.2121 84.0696 95.2401 83.2768 94.395C82.2857 93.3386 79.6429 91.2257 78.6518 90.6975C77.8589 90.2749 77.2202 90.1693 77 90.1693M114 106.544C112.899 105.663 110.366 103.903 109.045 103.903C107.393 103.903 102.107 100.733 101.777 100.205C101.446 99.677 92.8571 93.8667 92.8571 94.9231C92.8571 95.7682 91.9762 95.2752 91.5357 94.9231C89.1131 94.0428 84.0696 92.0708 83.2768 91.2257C82.2857 90.1693 79.6429 88.0564 78.6518 87.5282C77.8589 87.1056 77.2202 87 77 87" stroke="#7AC834" stroke-width="0.5"/>
<mask id="mask0_302_2" style="mask-type:alpha" maskUnits="userSpaceOnUse" x="77" y="65" width="97" height="41">
<path d="M82.7121 87.7259L77.8423 83.9383L87.0409 80.6917L141.692 65.541H147.103L172.534 82.8561L173.616 84.4794L153.596 91.5136L113.555 105.041L82.7121 87.7259Z" fill="white"/>
</mask>
<g mask="url(#mask0_302_2)">
<path d="M79.9511 115.76C82.7597 114.622 89.243 112.269 92.7076 111.959C97.0385 111.572 110.614 107.166 111.433 106.56C112.252 105.955 134.253 98.1343 134.347 99.1902C134.423 100.035 136.689 99.3358 137.812 98.8806C144.085 97.4329 157.133 94.28 159.136 93.2494C161.64 91.9613 168.381 89.2301 170.932 88.4699C172.973 87.8617 174.638 87.6064 175.216 87.5548M79.668 112.593C82.4765 111.455 88.9598 109.101 92.4245 108.791C96.7553 108.404 110.331 103.998 111.15 103.392C111.969 102.787 133.97 94.9666 134.064 96.0225C134.14 96.8673 136.406 96.1681 137.529 95.7129C143.802 94.2652 156.849 91.1123 158.853 90.0817C161.357 88.7936 168.097 86.0624 170.649 85.3022C172.69 84.694 174.355 84.4387 174.932 84.3871M79.3848 109.425C82.1934 108.287 88.6767 105.933 92.1413 105.624C96.4722 105.237 110.048 100.83 110.867 100.225C111.686 99.6194 133.687 91.7989 133.781 92.8548C133.857 93.6996 136.122 93.0003 137.246 92.5451C143.519 91.0975 156.566 87.9446 158.57 86.914C161.074 85.6259 167.814 82.8947 170.366 82.1345C172.407 81.5263 174.072 81.271 174.649 81.2194M79.084 106.059C81.8925 104.921 88.3758 102.568 91.8405 102.258C96.1713 101.871 109.747 97.4645 110.566 96.8591C111.385 96.2537 133.386 88.4333 133.48 89.4892C133.556 90.3339 135.822 89.6347 136.945 89.1795C143.218 87.7319 156.266 84.5789 158.269 83.5484C160.773 82.2602 167.513 79.529 170.065 78.7688C172.106 78.1606 173.771 77.9054 174.348 77.8538M78.8008 102.891C81.6094 101.753 88.0927 99.4001 91.5574 99.0904C95.8882 98.7032 109.464 94.2968 110.283 93.6914C111.102 93.086 133.103 85.2656 133.197 86.3215C133.273 87.1662 135.538 86.467 136.662 86.0118C142.935 84.5642 155.982 81.4112 157.986 80.3807C160.49 79.0925 167.23 76.3613 169.782 75.6011C171.823 74.9929 173.488 74.7377 174.065 74.6861M78.5177 99.7238C81.3263 98.5858 87.8095 96.2324 91.2742 95.9227C95.605 95.5355 109.181 91.1291 110 90.5237C110.818 89.9183 132.82 82.0979 132.914 83.1538C132.99 83.9985 135.255 83.2993 136.379 82.8441C142.652 81.3965 155.699 78.2435 157.703 77.213C160.207 75.9248 166.947 73.1936 169.498 72.4334C171.54 71.8252 173.205 71.57 173.782 71.5184M78.2168 96.3581C81.0254 95.2201 87.5087 92.8667 90.9734 92.557C95.3042 92.1699 108.88 87.7634 109.699 87.1581C110.518 86.5527 132.519 78.7322 132.613 79.7881C132.689 80.6329 134.954 79.9337 136.078 79.4785C142.351 78.0308 155.398 74.8779 157.402 73.8473C159.906 72.5592 166.646 69.828 169.198 69.0678C171.239 68.4596 172.904 68.2043 173.481 68.1527M77.9337 93.1904C80.7423 92.0524 87.2256 89.699 90.6902 89.3893C95.021 89.0022 108.597 84.5957 109.416 83.9904C110.234 83.385 132.236 75.5645 132.33 76.6204C132.406 77.4652 134.671 76.766 135.795 76.3108C142.068 74.8631 155.115 71.7102 157.119 70.6796C159.623 69.3915 166.363 66.6603 168.914 65.9001C170.956 65.2919 172.621 65.0366 173.198 64.985M77.6506 90.0227C80.4591 88.8847 86.9424 86.5313 90.4071 86.2216C94.7379 85.8345 108.313 81.428 109.132 80.8227C109.951 80.2173 131.953 72.3968 132.047 73.4527C132.122 74.2975 134.388 73.5982 135.512 73.1431C141.785 71.6954 154.832 68.5425 156.835 67.5119C159.339 66.2238 166.08 63.4926 168.631 62.7324C170.672 62.1242 172.338 61.8689 172.915 61.8173M77.3497 86.6571C80.1583 85.5191 86.6416 83.1657 90.1062 82.856C94.4371 82.4689 108.013 78.0624 108.832 77.457C109.651 76.8516 131.652 69.0312 131.746 70.0871C131.822 70.9318 134.087 70.2326 135.211 69.7774C141.484 68.3298 154.531 65.1768 156.535 64.1463C159.039 62.8581 165.779 60.1269 168.331 59.3667C170.372 58.7585 172.037 58.5033 172.614 58.4517M77.0666 83.4894C79.8751 82.3514 86.3584 79.998 89.8231 79.6883C94.1539 79.3012 107.729 74.8947 108.548 74.2893C109.367 73.6839 131.369 65.8635 131.463 66.9194C131.538 67.7641 133.804 67.0649 134.928 66.6097C141.201 65.1621 154.248 62.0091 156.251 60.9786C158.756 59.6904 165.496 56.9592 168.047 56.199C170.088 55.5908 171.754 55.3356 172.331 55.284M76.7834 80.3217C79.592 79.1837 86.0753 76.8303 89.5399 76.5206C93.8708 76.1335 107.446 71.727 108.265 71.1216C109.084 70.5162 131.085 62.6958 131.18 63.7517C131.255 64.5964 133.521 63.8972 134.644 63.442C140.918 61.9944 153.965 58.8414 155.968 57.8109C158.472 56.5227 165.213 53.7915 167.764 53.0313C169.805 52.4231 171.47 52.1679 172.048 52.1163" stroke="#7AC834" stroke-width="0.5"/>
</g>
<path d="M136.889 66.6233C138.522 66.023 143.678 65 145.056 65C146.433 65 147.787 65.3521 148.991 66.023L172.917 82.9992C173.548 83.3515 174.074 83.8669 174.441 84.4919C174.807 85.1169 175 85.8288 175 86.5538V120.047C175 121.497 174.613 122.921 173.879 124.171C173.146 125.421 172.093 126.452 170.829 127.156L121.769 141.895C120.011 142.377 114.855 144 113.478 144C112.101 144 110.746 143.648 109.542 142.977L81.1706 127.156C79.9075 126.452 78.8548 125.422 78.1215 124.173C77.3883 122.924 77.0011 121.5 77 120.051V86.5538C77 85.8288 77.1931 85.1169 77.5594 84.4919C77.9257 83.8669 78.4518 83.3515 79.0833 82.9992L132.533 67.7055L136.889 66.6233Z" stroke="#7AC834" stroke-width="2" stroke-linecap="round" stroke-linejoin="round"/>
<path d="M77 84L113.307 104.69M113.307 104.69L174 84M113.307 104.69V144" stroke="#7AC834" stroke-width="2" stroke-linejoin="round"/>
<path d="M114.448 117.682L175 97M90 107.003L102.167 114.003M114.448 132L175 111.318" stroke="#7AC834" stroke-width="2" stroke-linecap="round" stroke-linejoin="round"/>
</svg>
