<svg width="85" height="85" fill="none" xmlns="http://www.w3.org/2000/svg"><path d="M69.913 20.754l-1.711 1.708h11.486c2.37 0 4.312 1.948 4.312 4.376V41.93h-5.293v35.994c0 2.428-1.942 4.376-4.312 4.376H10.672c-2.37 0-4.313-1.948-4.313-4.376V41.93H1V26.84c0-2.428 1.942-4.376 4.313-4.376h11.674l-1.753-1.715c-2.225-2.177-3.637-5-3.637-8.48 0-2.155.613-4.332 2.007-5.953C14.975 4.72 17.196 3.55 20.66 3.55c4.523 0 8.834 2.446 12.559 5.745 3.708 3.285 6.711 7.308 8.602 10.214l.838 1.29.839-1.29c1.893-2.915 4.835-6.937 8.48-10.22 3.66-3.298 7.908-5.74 12.43-5.74 3.462 0 5.683 1.17 7.054 2.763 1.394 1.622 2.007 3.798 2.007 5.953 0 3.49-1.377 6.314-3.555 8.488zm-23.363.152l-1.034 1.555h10.859c3.252 0 6.642-.843 9.253-2.516 2.629-1.685 4.528-4.267 4.528-7.678 0-1.625-.406-3.03-1.465-4.008-1.042-.962-2.527-1.332-4.285-1.332-3.681 0-7.23 2.173-10.244 4.898-3.043 2.75-5.7 6.207-7.612 9.082zm-8.615 1.553h1.867l-1.034-1.554c-1.918-2.882-4.64-6.339-7.746-9.088-3.076-2.722-6.686-4.89-10.363-4.89-1.745 0-3.23.344-4.274 1.28-1.07.958-1.476 2.351-1.476 3.976 0 3.424 1.977 6.024 4.658 7.722 2.667 1.69 6.117 2.554 9.373 2.554h8.995zm39.752 13.095h1v-7.716h-32.53v7.716h31.53zM7.312 27.838h-1v7.716h32.532v-7.716H7.312zm7.36 14.092h-1v32.992h25.172V41.93H14.67zm55.724 32.992h1V41.93h-25.24v32.992h24.24z" stroke="#7AC834" stroke-width="2"/></svg>34.1279 14.5663 31.0221 11.8175C27.9459 9.09502 24.336 6.9274 20.6589 6.9274C18.9143 6.9274 17.4299 7.27081 16.3851 8.20697C15.3156 9.16531 14.9094 10.5582 14.9094 12.1826C14.9094 15.6073 16.8857 18.2072 19.5666 19.9051C22.2344 21.5947 25.6843 22.4592 28.9397 22.4592H37.9351ZM77.6874 35.554H78.6874V34.554V28.838V27.838H77.6874H47.1562H46.1562V28.838V34.554V35.554H47.1562H77.6874ZM7.31242 27.838H6.31242V28.838V34.554V35.554H7.31242H37.8437H38.8437V34.554V28.838V27.838H37.8437H7.31242ZM14.6714 41.9302H13.6714V42.9302V73.9223V74.9223H14.6714H37.8437H38.8437V73.9223V42.9302V41.9302H37.8437H14.6714ZM70.3962 74.9223H71.3962V73.9223V42.9302V41.9302H70.3962H47.1562H46.1562V42.9302V73.9223V74.9223H47.1562H70.3962Z" stroke="#7AC834" stroke-width="2"/>
</svg>
