<svg width="85" height="85" viewBox="0 0 85 85" fill="none" xmlns="http://www.w3.org/2000/svg">
<mask id="path-1-inside-1_72_53" fill="white">
<path d="M36.7128 1.94192C38.4512 0.686539 40.4691 0 42.5 0C44.5832 0.0242857 46.6066 0.703271 48.2872 1.94192L53.6683 5.72115L59.7609 6.53846H59.8649C64.1412 7.06481 67.5043 10.5367 68.0892 14.8129C68.1022 14.8881 68.1769 14.9404 68.1899 15.0188H68.0892L69.3078 21.1487L73.0641 26.5658C75.5401 30.0508 75.4394 34.6637 73.1681 38.3154V38.4167L73.0641 38.5181L69.3078 43.9319L68.4954 50.0617L78.6498 65.5873L82 70.5958H66.4645L62.7082 79.3802L60.3718 85L57.0217 79.8902L46.7665 64.3614C44.0987 65.6037 40.989 65.499 38.2335 64.3614L27.9783 79.8902L24.6282 85L22.2918 79.3802L18.5355 70.5958H3L6.35016 65.5873L16.8101 49.5517L15.793 43.9287L11.9359 38.5148C9.45985 35.0298 9.56059 30.3156 11.8319 26.6638V26.5625L11.9359 26.4612L15.6923 21.5573L16.5046 15.2215V15.1202L16.6021 15.0188C17.0613 12.9731 18.0874 11.1001 19.5614 9.61713C21.0354 8.13413 22.897 7.1018 24.9304 6.63981L25.0311 6.53846H25.1318L31.3317 5.72115L36.7128 1.94192Z"/>
</mask>
<path d="M44.5309 7.25442L45.1172 6.44424L45.108 6.43776L44.5309 7.25442ZM50.3181 11.4423L49.7319 12.2524L49.7356 12.2551L50.3181 11.4423ZM51.0297 11.9523L50.4472 12.7651L50.6521 12.9119L50.902 12.9441L51.0297 11.9523ZM51.8421 12.0569L51.9841 11.0671L51.977 11.066L51.9698 11.0651L51.8421 12.0569ZM58.9518 13.0769L58.8098 14.0668L58.8805 14.0769H58.9518V13.0769ZM59.0493 13.0769L59.1604 12.0831L59.105 12.0769H59.0493V13.0769ZM61.6911 15.7348H62.6911V15.6787L62.6848 15.6229L61.6911 15.7348ZM61.6911 15.9375H60.6911V16.0279L60.7073 16.1168L61.6911 15.9375ZM63.0136 23.1919L64.0045 23.057L64.0014 23.0347L63.9974 23.0126L63.0136 23.1919ZM63.1111 23.9079L62.1202 24.0428L62.159 24.3278L62.3433 24.5486L63.1111 23.9079ZM63.6213 24.5192L64.4348 23.9377L64.413 23.9072L64.389 23.8785L63.6213 24.5192ZM67.7838 30.3417L66.9703 30.9233L66.9705 30.9236L67.7838 30.3417ZM67.683 34.8369L68.4985 35.4157L68.5159 35.3913L68.5317 35.3659L67.683 34.8369ZM63.1143 41.274L62.2989 40.6953L62.1539 40.8994L62.1223 41.1478L63.1143 41.274ZM63.0104 42.0913L64.0005 42.2317L64.0015 42.2246L64.0024 42.2176L63.0104 42.0913ZM61.9965 49.2444L61.0064 49.1041L60.9965 49.1739V49.2444H61.9965ZM61.9965 49.3425L62.991 49.4478L62.9965 49.3953V49.3425H61.9965ZM61.4896 50.7744L61.9447 51.6649L62.183 51.5431L62.3286 51.3186L61.4896 50.7744ZM61.2849 50.879L60.8299 49.9886L60.2849 50.2671V50.879H61.2849ZM61.2849 50.9771L62.0554 51.6146L62.2849 51.3372V50.9771H61.2849ZM59.358 52.0004V53.0004H59.4057L59.4532 52.9958L59.358 52.0004ZM59.1533 52.0004V51.0004H59.0643L58.9766 51.0161L59.1533 52.0004ZM51.7414 53.331L51.8612 54.3238L51.8898 54.3203L51.9181 54.3152L51.7414 53.331ZM50.929 53.429L50.8091 52.4363L50.5136 52.4719L50.2857 52.6634L50.929 53.429ZM50.3181 53.9423L50.9044 54.7524L50.9337 54.7312L50.9614 54.7079L50.3181 53.9423ZM44.5309 58.1302L43.9446 57.3201L43.9443 57.3203L44.5309 58.1302ZM39.9622 58.0288L39.3502 58.8197L39.3881 58.849L39.4286 58.8746L39.9622 58.0288ZM34.6819 53.9423L34.041 54.71L34.0552 54.7218L34.0698 54.7331L34.6819 53.9423ZM34.071 53.4323L34.7119 52.6647L34.4821 52.4729L34.1848 52.4388L34.071 53.4323ZM33.1579 53.3277L33.0159 54.3176L33.03 54.3196L33.0441 54.3212L33.1579 53.3277ZM26.0482 52.3077L26.1902 51.3178L26.1195 51.3077H26.0482V52.3077ZM25.9507 52.3077L25.8622 53.3038L25.9064 53.3077H25.9507V52.3077ZM23.7151 50.8758L22.8473 51.3727L22.8484 51.3747L23.7151 50.8758ZM23.3089 49.6498H22.3089V49.7099L22.3161 49.7696L23.3089 49.6498ZM23.3089 49.4471H24.3089V49.3593L24.2936 49.2729L23.3089 49.4471ZM21.9896 41.99L20.9976 42.1162L21.0007 42.1403L21.0049 42.1642L21.9896 41.99ZM21.8857 41.1727L22.8777 41.0465L22.8412 40.7596L22.6571 40.5364L21.8857 41.1727ZM21.3787 40.5581L20.5652 41.1396L20.5853 41.1677L20.6073 41.1944L21.3787 40.5581ZM17.2162 34.7356L18.0297 34.154L18.0295 34.1537L17.2162 34.7356ZM17.317 30.139L16.5226 29.5317L16.4936 29.5696L16.4683 29.6101L17.317 30.139ZM21.3787 24.8265L20.6073 24.1903L20.5955 24.2045L20.5843 24.2192L21.3787 24.8265ZM21.8857 24.2119L22.6571 24.8482L22.8471 24.6178L22.8797 24.3209L21.8857 24.2119ZM21.9864 23.2933L20.9952 23.1606L20.9936 23.1724L20.9923 23.1843L21.9864 23.2933ZM22.9027 16.4475L21.9361 16.1913L21.9199 16.2523L21.9116 16.3148L22.9027 16.4475ZM23.0035 16.3462L22.035 16.0969L22.033 16.105L23.0035 16.3462ZM26.2529 13.0769L26.0089 12.1071L26.0007 12.1092L26.2529 13.0769ZM26.3536 12.9756L26.2193 11.9846L26.1561 11.9932L26.0945 12.0097L26.3536 12.9756ZM33.1579 12.0537L33.038 11.0609L33.0308 11.0617L33.0236 11.0627L33.1579 12.0537ZM33.9703 11.9556L34.0901 12.9484L34.3461 12.9175L34.5552 12.7666L33.9703 11.9556ZM34.6819 11.4423L35.2669 12.2534L35.2681 12.2524L34.6819 11.4423ZM40.4691 7.25442L39.8953 6.43545L39.889 6.43982L39.8829 6.44429L40.4691 7.25442ZM64.9405 56.3942L65.7791 55.8495L65.4834 55.3942H64.9405V56.3942ZM69.9186 64.0573V65.0573H71.7607L70.7572 63.5125L69.9186 64.0573ZM62.094 64.0573V63.0573H61.4155L61.1648 63.6879L62.094 64.0573ZM61.2817 66.1006L62.2008 66.4946L62.206 66.4824L62.2109 66.47L61.2817 66.1006ZM59.0493 71.3085L58.2108 71.8534L59.2309 73.423L59.9684 71.7024L59.0493 71.3085ZM25.9474 71.3085L25.0283 71.7024L25.7618 73.4137L26.7834 71.8572L25.9474 71.3085ZM23.7151 66.1006L22.7858 66.47L22.7907 66.4824L22.796 66.4946L23.7151 66.1006ZM22.9027 64.0573L23.832 63.6879L23.5813 63.0573H22.9027V64.0573ZM15.0846 64.0573L14.2492 63.5077L13.2297 65.0573H15.0846V64.0573ZM42.5 7.63981C43.0576 7.63981 43.59 7.814 43.9538 8.07109L45.108 6.43776C44.38 5.9233 43.4372 5.63981 42.5 5.63981V7.63981ZM43.9446 8.06456L49.7319 12.2524L50.9044 10.6322L45.1171 6.44429L43.9446 8.06456ZM49.7356 12.2551L50.4472 12.7651L51.6123 11.1395L50.9006 10.6295L49.7356 12.2551ZM50.902 12.9441L51.7144 13.0487L51.9698 11.0651L51.1575 10.9605L50.902 12.9441ZM51.7001 13.0468L58.8098 14.0668L59.0938 12.0871L51.9841 11.0671L51.7001 13.0468ZM58.9518 14.0769H59.0493V12.0769H58.9518V14.0769ZM58.9382 14.0707C59.9299 14.1816 60.5832 14.8329 60.6974 15.8467L62.6848 15.6229C62.4676 13.6944 61.0933 12.2992 59.1604 12.0831L58.9382 14.0707ZM60.6911 15.7348V15.9375H62.6911V15.7348H60.6911ZM60.7073 16.1168L62.0298 23.3713L63.9974 23.0126L62.6749 15.7582L60.7073 16.1168ZM62.0228 23.3268L62.1202 24.0428L64.102 23.773L64.0045 23.057L62.0228 23.3268ZM62.3433 24.5486L62.8535 25.1599L64.389 23.8785L63.8789 23.2672L62.3433 24.5486ZM62.8078 25.1008L66.9703 30.9233L68.5973 29.7602L64.4348 23.9377L62.8078 25.1008ZM66.9705 30.9236C67.4827 31.6394 67.6261 33.0377 66.8344 34.308L68.5317 35.3659C69.6961 33.4977 69.6381 31.2148 68.597 29.7598L66.9705 30.9236ZM66.8676 34.2581L62.2989 40.6953L63.9298 41.8528L68.4985 35.4157L66.8676 34.2581ZM62.1223 41.1478L62.0184 41.9651L64.0024 42.2176L64.1064 41.4002L62.1223 41.1478ZM62.0203 41.951L61.0064 49.1041L62.9867 49.3848L64.0005 42.2317L62.0203 41.951ZM60.9965 49.2444V49.3425H62.9965V49.2444H60.9965ZM61.0021 49.2372C60.9646 49.5919 60.844 49.9322 60.6507 50.2302L62.3286 51.3186C62.6935 50.7561 62.9204 50.1149 62.991 49.4478L61.0021 49.2372ZM61.0346 49.884L60.8299 49.9886L61.74 51.7695L61.9447 51.6649L61.0346 49.884ZM60.2849 50.879V50.9771H62.2849V50.879H60.2849ZM60.5145 50.3396C60.1997 50.72 59.7495 50.9584 59.2628 51.0049L59.4532 52.9958C60.4692 52.8987 61.4043 52.4014 62.0554 51.6146L60.5145 50.3396ZM59.358 51.0004H59.1533V53.0004H59.358V51.0004ZM58.9766 51.0161L51.5647 52.3467L51.9181 54.3152L59.33 52.9846L58.9766 51.0161ZM51.6215 52.3382L50.8091 52.4363L51.0489 54.4218L51.8612 54.3238L51.6215 52.3382ZM50.2857 52.6634L49.6748 53.1767L50.9614 54.7079L51.5723 54.1947L50.2857 52.6634ZM49.7319 53.1322L43.9446 57.3201L45.1171 58.9403L50.9044 54.7524L49.7319 53.1322ZM43.9443 57.3203C43.2372 57.8324 41.7545 57.9772 40.4958 57.1831L39.4286 58.8746C41.2894 60.0486 43.667 59.9907 45.1175 58.9401L43.9443 57.3203ZM40.5742 57.238L35.2939 53.1515L34.0698 54.7331L39.3502 58.8197L40.5742 57.238ZM35.3228 53.1747L34.7119 52.6647L33.4301 54.2L34.041 54.71L35.3228 53.1747ZM34.1848 52.4388L33.2717 52.3342L33.0441 54.3212L33.9572 54.4258L34.1848 52.4388ZM33.2999 52.3378L26.1902 51.3178L25.9062 53.2976L33.0159 54.3176L33.2999 52.3378ZM26.0482 51.3077H25.9507V53.3077H26.0482V51.3077ZM26.0391 51.3116C25.7405 51.2851 25.4522 51.1867 25.1985 51.0242L24.1198 52.7084C24.6444 53.0443 25.242 53.2487 25.8622 53.3038L26.0391 51.3116ZM25.1985 51.0242C24.9448 50.8617 24.7331 50.6398 24.5817 50.3768L22.8484 51.3747C23.1594 51.9148 23.5953 52.3724 24.1198 52.7084L25.1985 51.0242ZM24.5828 50.3788C24.4335 50.118 24.3378 49.8294 24.3017 49.5301L22.3161 49.7696C22.3842 50.3342 22.5648 50.8794 22.8473 51.3727L24.5828 50.3788ZM24.3089 49.6498V49.4471H22.3089V49.6498H24.3089ZM24.2936 49.2729L22.9743 41.8158L21.0049 42.1642L22.3242 49.6213L24.2936 49.2729ZM22.9816 41.8638L22.8777 41.0465L20.8937 41.2989L20.9976 42.1162L22.9816 41.8638ZM22.6571 40.5364L22.1502 39.9218L20.6073 41.1944L21.1142 41.809L22.6571 40.5364ZM22.1922 39.9765L18.0297 34.154L16.4027 35.3171L20.5652 41.1396L22.1922 39.9765ZM18.0295 34.1537C17.5173 33.4379 17.3739 31.9382 18.1656 30.668L16.4683 29.6101C15.3039 31.4783 15.3619 33.8625 16.403 35.3175L18.0295 34.1537ZM18.1114 30.7464L22.1732 25.4339L20.5843 24.2192L16.5226 29.5317L18.1114 30.7464ZM22.1502 25.4628L22.6571 24.8482L21.1142 23.5756L20.6073 24.1903L22.1502 25.4628ZM22.8797 24.3209L22.9804 23.4023L20.9923 23.1843L20.8916 24.1029L22.8797 24.3209ZM22.9775 23.4259L23.8939 16.5802L21.9116 16.3148L20.9952 23.1606L22.9775 23.4259ZM23.8693 16.7037C23.8396 16.8159 23.7912 16.9154 23.733 16.9996C23.6765 17.0814 23.617 17.14 23.5713 17.179C23.5268 17.217 23.4889 17.2418 23.4712 17.2529C23.4558 17.2627 23.4415 17.2708 23.4532 17.264C23.4576 17.2615 23.4847 17.246 23.5153 17.2261C23.5473 17.2052 23.5974 17.1704 23.6525 17.1209C23.7088 17.0704 23.7746 17.0006 23.8346 16.9081C23.8959 16.8137 23.9445 16.7059 23.9739 16.5873L22.033 16.105C22.0592 15.9994 22.1025 15.9031 22.1572 15.8189C22.2107 15.7366 22.2684 15.6758 22.3156 15.6334C22.3617 15.592 22.4018 15.5645 22.4233 15.5505C22.4434 15.5374 22.4596 15.5283 22.4529 15.5321C22.4524 15.5324 22.4449 15.5367 22.4378 15.5409C22.4297 15.5457 22.4172 15.5531 22.4025 15.5624C22.3744 15.5802 22.3265 15.612 22.2729 15.6577C22.2182 15.7044 22.1506 15.7714 22.0875 15.8628C22.0227 15.9566 21.9691 16.0668 21.9361 16.1913L23.8693 16.7037ZM23.9719 16.5954C24.1303 15.9802 24.4491 15.4195 24.8948 14.9711L23.4763 13.5612C22.7792 14.2626 22.2818 15.1381 22.035 16.0969L23.9719 16.5954ZM24.8948 14.9711C25.3404 14.5228 25.8964 14.2032 26.505 14.0446L26.0007 12.1092C25.0449 12.3583 24.1734 12.8599 23.4763 13.5612L24.8948 14.9711ZM26.4968 14.0467C26.6165 14.0166 26.7249 13.9671 26.8194 13.905C26.9119 13.8442 26.9814 13.7778 27.0315 13.7213C27.0806 13.6661 27.115 13.6159 27.1356 13.5839C27.1552 13.5533 27.1705 13.5262 27.173 13.5218C27.1797 13.5101 27.1718 13.5243 27.1622 13.5396C27.1512 13.5572 27.1267 13.5951 27.0891 13.6397C27.0506 13.6854 26.9923 13.7455 26.9105 13.8027C26.8262 13.8616 26.7262 13.911 26.6127 13.9414L26.0945 12.0097C25.9689 12.0434 25.8582 12.098 25.7643 12.1636C25.6731 12.2275 25.6063 12.2957 25.5601 12.3505C25.5148 12.4042 25.4834 12.4521 25.4658 12.4802C25.4567 12.4949 25.4493 12.5074 25.4446 12.5154C25.4405 12.5226 25.4362 12.5301 25.4359 12.5307C25.4321 12.5373 25.441 12.5213 25.4539 12.5013C25.4677 12.4798 25.4949 12.4397 25.5359 12.3935C25.5779 12.3461 25.6385 12.2878 25.7209 12.2337C25.8052 12.1782 25.9022 12.134 26.009 12.1071L26.4968 14.0467ZM26.4879 13.9665L33.2922 13.0446L33.0236 11.0627L26.2193 11.9846L26.4879 13.9665ZM33.2778 13.0464L34.0901 12.9484L33.8504 10.9628L33.038 11.0609L33.2778 13.0464ZM34.5552 12.7666L35.2669 12.2534L34.0969 10.6313L33.3853 11.1445L34.5552 12.7666ZM35.2681 12.2524L41.0554 8.06456L39.8829 6.44429L34.0956 10.6322L35.2681 12.2524ZM41.0429 8.07339C41.4108 7.81566 41.9455 7.63981 42.5 7.63981V5.63981C41.5598 5.63981 40.6193 5.92818 39.8953 6.43545L41.0429 8.07339ZM64.1019 56.939L69.0801 64.6021L70.7572 63.5125L65.7791 55.8495L64.1019 56.939ZM69.9186 63.0573H62.094V65.0573H69.9186V63.0573ZM61.1648 63.6879L60.3524 65.7311L62.2109 66.47L63.0233 64.4268L61.1648 63.6879ZM60.3626 65.7066L58.1302 70.9145L59.9684 71.7024L62.2008 66.4946L60.3626 65.7066ZM59.8878 70.7635L52.9828 60.1385L51.3058 61.2284L58.2108 71.8534L59.8878 70.7635ZM64.9373 57.3942H64.9405V55.3942H64.9373V57.3942ZM32.0165 60.2394L25.1114 70.7598L26.7834 71.8572L33.6885 61.3368L32.0165 60.2394ZM26.8666 70.9145L24.6342 65.7066L22.796 66.4946L25.0283 71.7024L26.8666 70.9145ZM24.6443 65.7311L23.832 63.6879L21.9735 64.4268L22.7858 66.47L24.6443 65.7311ZM22.9027 63.0573H15.0846V65.0573H22.9027V63.0573ZM15.92 64.6069L20.8949 57.0452L19.2241 55.946L14.2492 63.5077L15.92 64.6069ZM42.5 0L42.5233 -1.99986L42.5117 -2H42.5V0ZM36.7128 1.94192L37.8623 3.5786L37.873 3.57105L37.8837 3.56335L36.7128 1.94192ZM31.3317 5.72115L31.5931 7.704L32.0796 7.63986L32.4812 7.35783L31.3317 5.72115ZM25.1318 6.53846V8.53846H25.2631L25.3932 8.52131L25.1318 6.53846ZM25.0311 6.53846V4.53846H24.1991L23.6126 5.12858L25.0311 6.53846ZM24.9304 6.63981L25.3735 8.5901L25.9396 8.46147L26.3489 8.04969L24.9304 6.63981ZM19.5614 9.61713L20.9799 11.027V11.027L19.5614 9.61713ZM16.6021 15.0188L18.0435 16.4053L18.4311 16.0024L18.5535 15.4569L16.6021 15.0188ZM16.5046 15.1202L15.0632 13.7337L14.5046 14.3144V15.1202H16.5046ZM16.5046 15.2215L18.4884 15.4759L18.5046 15.3492V15.2215H16.5046ZM15.6923 21.5573L17.28 22.7735L17.6075 22.3459L17.676 21.8117L15.6923 21.5573ZM11.9359 26.4612L13.3319 27.8934L13.4356 27.7923L13.5236 27.6773L11.9359 26.4612ZM11.8319 26.5625L10.436 25.1302L9.83193 25.719V26.5625H11.8319ZM11.8319 26.6638L13.5302 27.7202L13.8319 27.2351V26.6638H11.8319ZM11.9359 38.5148L10.3055 39.6732L10.307 39.6753L11.9359 38.5148ZM15.793 43.9287L17.761 43.5727L17.6814 43.1325L17.4219 42.7682L15.793 43.9287ZM16.8101 49.5517L18.4852 50.6444L18.9197 49.9783L18.7781 49.1958L16.8101 49.5517ZM6.35016 65.5873L8.01254 66.6993L8.01897 66.6897L8.02529 66.68L6.35016 65.5873ZM3 70.5958L1.33761 69.4838L-0.743979 72.5958H3V70.5958ZM18.5355 70.5958L20.3744 69.8094L19.8555 68.5958H18.5355V70.5958ZM22.2918 79.3802L24.1386 78.6124L24.1347 78.6031L24.1308 78.5938L22.2918 79.3802ZM24.6282 85L22.7814 85.7678L24.2307 89.2539L26.3007 86.0966L24.6282 85ZM27.9783 79.8902L26.3094 78.788L26.3058 78.7936L27.9783 79.8902ZM38.2335 64.3614L38.9968 62.5127L37.473 61.8836L36.5646 63.2592L38.2335 64.3614ZM46.7665 64.3614L48.4354 63.2592L47.4852 61.8204L45.9222 62.5483L46.7665 64.3614ZM57.0217 79.8902L58.6943 78.7936L58.6906 78.7881L57.0217 79.8902ZM60.3718 85L58.6993 86.0966L60.7693 89.2539L62.2186 85.7678L60.3718 85ZM62.7082 79.3802L60.8692 78.5938L60.8653 78.6031L60.8614 78.6124L62.7082 79.3802ZM66.4645 70.5958V68.5958H65.1446L64.6256 69.8094L66.4645 70.5958ZM82 70.5958V72.5958H85.744L83.6624 69.4838L82 70.5958ZM78.6498 65.5873L76.9761 66.682L76.9817 66.6907L76.9875 66.6993L78.6498 65.5873ZM68.4954 50.0617L66.5127 49.799L66.4152 50.5351L66.8216 51.1565L68.4954 50.0617ZM69.3078 43.9319L67.6646 42.7918L67.3887 43.1894L67.3251 43.6692L69.3078 43.9319ZM73.0641 38.5181L71.6681 37.0858L71.5305 37.22L71.4209 37.378L73.0641 38.5181ZM73.1681 38.4167L74.564 39.849L75.1681 39.2602V38.4167H73.1681ZM73.1681 38.3154L71.4698 37.2591L71.1681 37.7441V38.3154H73.1681ZM73.0641 26.5658L71.4206 27.7054L71.4271 27.7148L71.4337 27.7241L73.0641 26.5658ZM69.3078 21.1487L67.3461 21.5386L67.4272 21.9465L67.6642 22.2883L69.3078 21.1487ZM68.0892 15.0188V13.0188H65.6525L66.1276 15.4088L68.0892 15.0188ZM68.1899 15.0188V17.0188H70.5486L70.163 14.6919L68.1899 15.0188ZM68.0892 14.8129L66.1077 15.0839L66.1124 15.1189L66.1185 15.1536L68.0892 14.8129ZM59.8649 6.53846L60.1093 4.55344L59.9875 4.53846H59.8649V6.53846ZM59.7609 6.53846L59.495 8.52071L59.6274 8.53846H59.7609V6.53846ZM53.6683 5.72115L52.5188 7.35783L52.9184 7.63848L53.4024 7.7034L53.6683 5.72115ZM48.2872 1.94192L47.1006 3.55189L47.119 3.56546L47.1378 3.5786L48.2872 1.94192ZM42.5 -2C40.0154 -2 37.5931 -1.16074 35.5419 0.320496L37.8837 3.56335C39.3093 2.53382 40.9228 2 42.5 2V-2ZM35.5633 0.305248L30.1823 4.08448L32.4812 7.35783L37.8623 3.5786L35.5633 0.305248ZM31.0703 3.73831L24.8704 4.55562L25.3932 8.52131L31.5931 7.704L31.0703 3.73831ZM25.1318 4.53846H25.0311V8.53846H25.1318V4.53846ZM23.6126 5.12858L23.5118 5.22992L26.3489 8.04969L26.4496 7.94835L23.6126 5.12858ZM24.4873 4.68951C22.083 5.23577 19.8834 6.45605 18.1429 8.20722L20.9799 11.027C22.1874 9.81221 23.711 8.96783 25.3735 8.5901L24.4873 4.68951ZM18.1429 8.20722C16.4024 9.95829 15.1921 12.1684 14.6506 14.5808L18.5535 15.4569C18.9304 13.7777 19.7723 12.242 20.9799 11.027L18.1429 8.20722ZM15.1607 13.6324L15.0632 13.7337L17.946 16.5067L18.0435 16.4053L15.1607 13.6324ZM14.5046 15.1202V15.2215H18.5046V15.1202H14.5046ZM14.5208 14.9672L13.7085 21.303L17.676 21.8117L18.4884 15.4759L14.5208 14.9672ZM14.1045 20.3411L10.3482 25.245L13.5236 27.6773L17.28 22.7735L14.1045 20.3411ZM10.54 25.0289L10.436 25.1302L13.2279 27.9948L13.3319 27.8934L10.54 25.0289ZM9.83193 26.5625V26.6638H13.8319V26.5625H9.83193ZM10.1336 25.6075C7.48925 29.859 7.30741 35.4534 10.3055 39.6732L13.5663 37.3564C11.6123 34.6062 11.6319 30.7721 13.5302 27.7202L10.1336 25.6075ZM10.307 39.6753L14.1641 45.0891L17.4219 42.7682L13.5648 37.3543L10.307 39.6753ZM13.8249 44.2846L14.842 49.9077L18.7781 49.1958L17.761 43.5727L13.8249 44.2846ZM15.1349 48.4591L4.67503 64.4946L8.02529 66.68L18.4852 50.6444L15.1349 48.4591ZM4.68777 64.4753L1.33761 69.4838L4.66239 71.7077L8.01254 66.6993L4.68777 64.4753ZM3 72.5958H18.5355V68.5958H3V72.5958ZM16.6966 71.3821L20.4529 80.1665L24.1308 78.5938L20.3744 69.8094L16.6966 71.3821ZM20.4451 80.148L22.7814 85.7678L26.4749 84.2322L24.1386 78.6124L20.4451 80.148ZM26.3007 86.0966L29.6509 80.9868L26.3058 78.7936L22.9556 83.9034L26.3007 86.0966ZM29.6472 80.9923L39.9024 65.4635L36.5646 63.2592L26.3094 78.7881L29.6472 80.9923ZM37.4702 66.21C40.6563 67.5254 44.3565 67.6898 47.6108 66.1744L45.9222 62.5483C43.8409 63.5175 41.3218 63.4727 38.9968 62.5127L37.4702 66.21ZM45.0976 65.4635L55.3528 80.9923L58.6906 78.7881L48.4354 63.2592L45.0976 65.4635ZM55.3491 80.9868L58.6993 86.0966L62.0444 83.9034L58.6942 78.7936L55.3491 80.9868ZM62.2186 85.7678L64.5549 80.148L60.8614 78.6124L58.5251 84.2322L62.2186 85.7678ZM64.5471 80.1665L68.3034 71.3821L64.6256 69.8094L60.8692 78.5938L64.5471 80.1665ZM66.4645 72.5958H82V68.5958H66.4645V72.5958ZM83.6624 69.4838L80.3122 64.4753L76.9875 66.6993L80.3376 71.7077L83.6624 69.4838ZM80.3236 64.4926L70.1692 48.967L66.8216 51.1565L76.9761 66.682L80.3236 64.4926ZM70.4781 50.3245L71.2904 44.1947L67.3251 43.6692L66.5127 49.799L70.4781 50.3245ZM70.951 45.072L74.7073 39.6582L71.4209 37.378L67.6646 42.7918L70.951 45.072ZM74.46 39.9503L74.564 39.849L71.7721 36.9845L71.6681 37.0858L74.46 39.9503ZM75.1681 38.4167V38.3154H71.1681V38.4167H75.1681ZM74.8664 39.3717C77.5107 35.1202 77.6926 29.6272 74.6945 25.4074L71.4337 27.7241C73.3877 30.4744 73.3681 34.2071 71.4698 37.2591L74.8664 39.3717ZM74.7076 25.4261L70.9513 20.009L67.6642 22.2883L71.4206 27.7054L74.7076 25.4261ZM71.2694 20.7587L70.0508 14.6289L66.1276 15.4088L67.3461 21.5386L71.2694 20.7587ZM68.0892 17.0188H68.1899V13.0188H68.0892V17.0188ZM70.163 14.6919C70.1146 14.3997 70.0151 14.1741 69.9391 14.0302C69.9013 13.9587 69.8661 13.9013 69.8419 13.8634C69.8191 13.8276 69.7983 13.7972 69.7939 13.7907C69.7845 13.7768 69.7934 13.7898 69.8034 13.8053C69.8151 13.8234 69.8395 13.8619 69.8677 13.9141C69.9239 14.018 70.0148 14.2106 70.06 14.4721L66.1185 15.1536C66.1702 15.4527 66.2752 15.6801 66.3496 15.8175C66.3868 15.8863 66.4211 15.9412 66.4434 15.9756C66.4638 16.0073 66.4837 16.0363 66.4852 16.0386C66.4918 16.0483 66.482 16.034 66.4696 16.0146C66.456 15.9932 66.4307 15.9525 66.402 15.8981C66.3441 15.7884 66.2588 15.5988 66.2169 15.3458L70.163 14.6919ZM70.0708 14.5418C69.3691 9.41189 65.3313 5.1962 60.1093 4.55344L59.6206 8.52348C62.9511 8.93342 65.6396 11.6616 66.1077 15.0839L70.0708 14.5418ZM59.8649 4.53846H59.7609V8.53846H59.8649V4.53846ZM60.0269 4.55622L53.9342 3.73891L53.4024 7.7034L59.495 8.52071L60.0269 4.55622ZM54.8177 4.08448L49.4367 0.305248L47.1378 3.5786L52.5188 7.35783L54.8177 4.08448ZM49.4738 0.331959C47.4567 -1.15475 45.0265 -1.97068 42.5233 -1.99986L42.4767 1.99986C44.1398 2.01925 45.7566 2.56129 47.1006 3.55189L49.4738 0.331959Z" fill="#7AC834" mask="url(#path-1-inside-1_72_53)"/>
<path d="M45.1233 35.5523C46.9471 35.5523 48.6962 34.8383 49.9859 33.5676C51.2755 32.2968 52 30.5733 52 28.7761C52 26.979 51.2755 25.2555 49.9859 23.9847C48.6962 22.7139 46.9471 22 45.1233 22H35V24.0495H37.5962V33.5028H35V35.5523H37.5962V38.3639H35V40.4134H37.5962V44H39.6761V40.4134H45.9195V38.3639H39.6761V35.5523H45.1233ZM39.6761 24.0495H45.1233C46.3955 24.0495 47.6156 24.5475 48.5151 25.4339C49.4147 26.3203 49.9201 27.5225 49.9201 28.7761C49.9201 30.0297 49.4147 31.2319 48.5151 32.1184C47.6156 33.0048 46.3955 33.5028 45.1233 33.5028H39.6761V24.0495Z" fill="#7AC834"/>
</svg>
