<svg width="85" height="85" viewBox="0 0 85 85" fill="none" xmlns="http://www.w3.org/2000/svg">
<path d="M55.0491 79.8843L54.6 79.6586L54.1509 79.8843L47.2 83.3781V53.4444H62V83.3781L55.0491 79.8843ZM62 28.3333V28.9499L62.5509 29.2268L69.1733 32.5556L62.5509 35.8843L62 36.1612V36.7778V43.6004L55.0491 40.1065L54.6 39.8808L54.1509 40.1065L47.2 43.6004V36.7778V36.1612L46.6491 35.8843L40.0267 32.5556L46.6491 29.2268L47.2 28.9499V28.3333V21.5108L54.1509 25.0046L54.6 25.2303L55.0491 25.0046L62 21.5108V28.3333ZM7.4 56.6667V57.6667H8.4H36.8V64.1111H8.4C6.43911 64.1111 4.55745 63.3281 3.16927 61.9326C1.78092 60.5368 1 58.6428 1 56.6667V8.44444C1 6.46836 1.78092 4.57426 3.16927 3.17856C4.55745 1.78303 6.43911 1 8.4 1H75.6C77.5609 1 79.4425 1.78303 80.8307 3.17856C82.2191 4.57426 83 6.46836 83 8.44444V56.6667C83 58.6427 82.2191 60.5368 80.8307 61.9326C79.4425 63.3281 77.5609 64.1111 75.6 64.1111H72.4V57.6667H75.6H76.6V56.6667V8.44444V7.44444H75.6H8.4H7.4V8.44444V56.6667ZM36.8 21.1111H13.6V14.6667H36.8V21.1111ZM28.4 35.7778H13.6V29.3333H28.4V35.7778ZM36.8 50.4444H13.6V44H36.8V50.4444Z" stroke="#7AC834" stroke-width="2"/>
</svg>
