<svg width="98" height="85" fill="none" xmlns="http://www.w3.org/2000/svg"><mask id="a" fill="#fff"><path fill-rule="evenodd" clip-rule="evenodd" d="M50.289 0a3.078 3.078 0 00-2.385 1.129l-.545.4C36.81-1.71 24.771.668 16.392 8.68a28.446 28.446 0 00-7.589 12.007 28.264 28.264 0 00-.815 14.15 10.01 10.01 0 00-.306.279l-4.764 4.552a9.284 9.284 0 00-2.158 3.07 9.223 9.223 0 000 7.332 9.286 9.286 0 002.158 3.07c2.434 2.331 5.81 3.205 8.948 2.622a9.364 9.364 0 002.71 4.783c1.877 1.796 4.317 2.725 6.776 2.791.068 2.35 1.04 4.68 2.918 6.476 1.878 1.796 4.324 2.731 6.783 2.792.061 2.348 1.04 4.685 2.917 6.481a10.292 10.292 0 006.63 2.785 10.304 10.304 0 006.839-2.226l2.673 2.549c3.914 3.744 10.263 3.744 14.177 0 1.872-1.785 2.844-4.103 2.93-6.446a10.132 10.132 0 006.728-2.785c1.872-1.79 2.844-4.109 2.918-6.451a10.163 10.163 0 006.648-2.786 9.332 9.332 0 002.759-5.001c1.574.274 3.191.177 4.721-.282a10.23 10.23 0 004.086-2.364 9.285 9.285 0 002.16-3.072 9.225 9.225 0 000-7.336 9.285 9.285 0 00-2.16-3.071l-4.404-4.206.9-3.338a27.063 27.063 0 00-2.57-20.246C83.893 5.668 73.973.024 63.245.024H55.72A20.113 20.113 0 0054.748 0h-4.459zm1.18 6.069l-15.853 11.55a4.244 4.244 0 00-.838 6.16 4.978 4.978 0 006.728.904l10.447-7.611a3.074 3.074 0 011.804-.589H66.6a3.07 3.07 0 012.16.892l16.88 16.186.019-.06c1.413-5.299.703-10.912-2-15.743-3.994-7.143-11.83-11.665-20.416-11.665h-7.597c-.3-.018-.6-.026-.9-.024H51.47zM38.38 69.81l-.06.06h-.007a3.48 3.48 0 00-1.036 2.514 3.461 3.461 0 001.097 2.487 3.864 3.864 0 002.646 1.046c.984 0 1.93-.374 2.645-1.046l4.765-4.551a3.483 3.483 0 001.095-2.528 3.46 3.46 0 00-1.095-2.528 3.865 3.865 0 00-5.236-.055l-.055.05-4.759 4.551zm.349-8.758L38.79 61a3.482 3.482 0 001.04-2.516 3.46 3.46 0 00-1.101-2.491 3.864 3.864 0 00-2.615-1.047 3.864 3.864 0 00-2.633 1.005l-.043.042-4.758 4.552-.043.042a3.481 3.481 0 00-1.051 2.516A3.46 3.46 0 0028.68 65.6a3.865 3.865 0 005.23.06l.06-.054 4.759-4.552zm-14.46-4.721l4.766-4.552.042-.036a3.48 3.48 0 001.055-2.519 3.461 3.461 0 00-1.098-2.5 3.864 3.864 0 00-2.648-1.049c-.985 0-1.933.376-2.648 1.049l-4.759 4.551a3.484 3.484 0 00-1.095 2.528 3.461 3.461 0 001.095 2.528 3.863 3.863 0 002.616 1.047 3.864 3.864 0 002.632-1.005l.043-.042zm-11.65-7.398l4.758-4.552a3.485 3.485 0 001.098-2.53 3.46 3.46 0 00-1.098-2.531 3.864 3.864 0 00-2.646-1.046c-.984 0-1.93.374-2.645 1.046l-4.765 4.551a3.484 3.484 0 00-1.098 2.531 3.46 3.46 0 001.098 2.53 3.857 3.857 0 002.649 1.052c.986 0 1.934-.377 2.648-1.051z"/></mask><path d="M80.02 36.626l.692-.723-.065-.061-.074-.05-.552.834zM90.67 46.81l-.692.722.006.006.685-.728zm1.094 2.527h1-1zm-1.095 2.528l.685.729-.685-.729zm-2.645 1.046v-1 1zm-2.645-1.046l-.691.723.006.006.685-.729zm-8.08-7.72l.69-.723-.69.723zm-2.202-.878v-1 1zm-2.202.878l.648.762.021-.018.02-.02-.689-.724zm-.085.073l-.648-.762-.02.017-.017.017.684.728zm0 4.212l.69-.723-.006-.005-.684.728zm6.3 6.02l-.692.723.002.002.69-.724zm0 5.068l.684.729.006-.006-.69-.723zm-4.894.334l-.582.813.003.002.58-.815zm-4.092.279l-.688-.725.688.725zm-.25 3.915l.779-.627-.005-.006-.774.633zm-.33 4.703l-.685-.729h-.001l.685.729zm-4.955.291l-.597.802.002.002.595-.804zm-4.122.23l.683.731-.683-.73zm-.263 3.934l.776-.631-.003-.003-.773.634zm-.325 4.782l-.684-.73-.001.002.685.728zm-5.364 0l-.69.723.005.005.685-.728zm-2.648-2.53l-.69-.724-.758.723.757.723.691-.723zm.966-.923l-.685-.729-.005.005.69.724zm2.921-6.74h1-1zm-2.92-6.74l-.69.725.004.004.685-.728zm-6.778-2.791l-1 .03.03.948.948.021.022-1zM43.14 51.78l-.689.725.002.002.687-.727zm-6.783-2.785l-1 .03.029.949.95.02.02-1zm-2.918-6.482l-.686.727.686-.727zm-8.948-2.616l-.976.216.209.947.952-.18-.185-.983zm-2.71-4.782l.688-.726-.688.726zm57.67 2.333l.019.012 1.104-1.668-.019-.012-1.103 1.668zm-.12-.1l10.648 10.184 1.383-1.445-10.65-10.184-1.382 1.446zm10.654 10.19c.247.233.443.512.577.821l1.836-.795a4.485 4.485 0 00-1.042-1.483l-1.371 1.457zm.577.821c.134.31.203.642.203.978h2c0-.61-.125-1.213-.367-1.773l-1.836.795zm.203.978c0 .336-.069.67-.203.979l1.836.795c.242-.56.367-1.164.367-1.774h-2zm-.203.979c-.134.309-.33.588-.577.82l1.37 1.457a4.49 4.49 0 001.043-1.482l-1.836-.795zm-.576.82a2.864 2.864 0 01-1.961.775v2a4.86 4.86 0 003.33-1.317l-1.37-1.458zm-1.961.775a2.86 2.86 0 01-1.96-.775l-1.37 1.458a4.863 4.863 0 003.33 1.317v-2zm-1.954-.769l-8.08-7.72-1.382 1.447 8.08 7.72 1.382-1.447zm-8.082-7.72a4.193 4.193 0 00-2.891-1.155v2c.565 0 1.107.217 1.512.603l1.38-1.449zm-2.891-1.155a4.193 4.193 0 00-2.891 1.154l1.379 1.449a2.194 2.194 0 011.512-.603v-2zm-2.85 1.117l-.085.072 1.295 1.524.086-.073-1.296-1.523zm-.123.106a3.901 3.901 0 00-.907 1.29l1.835.796a1.9 1.9 0 01.442-.63l-1.37-1.456zm-.907 1.29a3.882 3.882 0 00-.32 1.544h2c0-.257.052-.512.155-.748l-1.835-.796zm-.32 1.544c0 .531.109 1.057.32 1.544l1.835-.795a1.882 1.882 0 01-.155-.749h-2zm.32 1.544a3.9 3.9 0 00.907 1.29l1.37-1.456a1.901 1.901 0 01-.442-.63l-1.835.796zm.902 1.285l6.3 6.02 1.381-1.446-6.3-6.02-1.381 1.446zm6.301 6.022c1.053 1.001 1.055 2.611-.001 3.62l1.38 1.445a4.466 4.466 0 00-.001-6.515l-1.379 1.45zm.004 3.614a2.868 2.868 0 01-1.769.77l.136 1.996a4.868 4.868 0 003.003-1.308l-1.37-1.458zm-1.769.77a2.876 2.876 0 01-1.86-.523l-1.158 1.631a4.88 4.88 0 003.154.888l-.136-1.995zm-1.856-.52a4.224 4.224 0 00-2.748-.78l.136 1.996a2.223 2.223 0 011.447.41l1.165-1.626zm-2.748-.78a4.217 4.217 0 00-2.615 1.147l1.377 1.45a2.217 2.217 0 011.374-.601l-.136-1.996zm-2.615 1.147a3.885 3.885 0 00-1.205 2.57l1.996.128c.03-.473.239-.918.586-1.248l-1.377-1.45zm-1.205 2.57a3.88 3.88 0 00.868 2.702l1.55-1.265a1.88 1.88 0 01-.422-1.31l-1.996-.127zm.864 2.696c.391.487.583 1.1.54 1.719l1.995.14a4.465 4.465 0 00-.977-3.112l-1.559 1.253zm.54 1.719c-.044.619-.32 1.2-.776 1.629l1.369 1.458a4.472 4.472 0 001.402-2.947l-1.995-.14zm-.777 1.63a2.868 2.868 0 01-1.797.772l.117 1.997a4.868 4.868 0 003.05-1.313l-1.37-1.456zm-1.797.772a2.874 2.874 0 01-1.877-.557l-1.19 1.608a4.874 4.874 0 003.184.946l-.117-1.997zm-1.875-.555a4.223 4.223 0 00-2.756-.827l.111 1.996a2.222 2.222 0 011.451.435l1.194-1.604zm-2.756-.827a4.218 4.218 0 00-2.647 1.13L61.15 70a2.22 2.22 0 011.391-.594l-.111-1.996zm-2.646 1.13a3.886 3.886 0 00-1.225 2.578l1.995.134c.032-.476.244-.923.596-1.252l-1.366-1.46zm-1.225 2.578a3.88 3.88 0 00.871 2.718l1.547-1.267a1.88 1.88 0 01-.423-1.317l-1.995-.134zm.869 2.715c.403.496.601 1.123.559 1.756l1.995.135a4.514 4.514 0 00-1.002-3.152l-1.552 1.261zm.559 1.756a2.522 2.522 0 01-.792 1.667l1.369 1.458a4.521 4.521 0 001.418-2.99l-1.995-.135zm-.793 1.668a2.913 2.913 0 01-1.997.79v2a4.912 4.912 0 003.368-1.334l-1.371-1.456zm-1.997.79a2.913 2.913 0 01-1.996-.79l-1.371 1.456a4.912 4.912 0 003.367 1.334v-2zm-1.99-.785l-2.65-2.53-1.38 1.445 2.648 2.53 1.381-1.445zm-2.65-1.085l.967-.922-1.381-1.447-.967.923 1.381 1.446zm.961-.917a10.285 10.285 0 002.392-3.402l-1.835-.795a8.284 8.284 0 01-1.927 2.74l1.37 1.457zm2.392-3.402c.557-1.284.844-2.668.844-4.066h-2c0 1.124-.23 2.237-.679 3.27l1.835.796zm.844-4.066c0-1.398-.287-2.782-.843-4.066l-1.836.796a8.222 8.222 0 01.68 3.27h2zm-.843-4.066a10.285 10.285 0 00-2.393-3.402l-1.37 1.457a8.284 8.284 0 011.927 2.74l1.835-.795zm-2.389-3.398a11.17 11.17 0 00-7.443-3.067l-.045 2a9.17 9.17 0 016.11 2.516l1.379-1.45zm-6.466-2.097a10.302 10.302 0 00-3.23-7.179l-1.374 1.454a8.302 8.302 0 012.605 5.785l1.999-.06zm-3.229-7.177a11.17 11.17 0 00-7.45-3.06l-.043 2a9.17 9.17 0 016.116 2.51l1.377-1.45zm-6.472-2.09a10.301 10.301 0 00-3.23-7.18l-1.373 1.455a8.302 8.302 0 012.604 5.785l2-.06zm-3.23-7.18a11.233 11.233 0 00-4.562-2.613l-.56 1.92a9.234 9.234 0 013.749 2.148l1.373-1.454zm-4.562-2.613a11.298 11.298 0 00-5.258-.258l.37 1.966a9.291 9.291 0 014.327.212l.561-1.92zm-4.096.51a10.37 10.37 0 00-2.999-5.293l-1.375 1.452a8.37 8.37 0 012.42 4.272l1.953-.431zm-2.999-5.293a11.191 11.191 0 00-4.01-2.44l-.659 1.888a9.192 9.192 0 013.294 2.004l1.375-1.452zm-4.01-2.44a11.254 11.254 0 00-4.665-.586l.17 1.993a9.253 9.253 0 013.836.481l.658-1.888zM50.288 0l-.004 2h.004V0zm-2.385 1.129l1.185 1.61.205-.15.161-.198-1.551-1.262zm-.545.4l-.587 1.912.962.296.81-.597-1.185-1.61zM16.392 8.68l1.37 1.456.006-.005.006-.006-1.382-1.445zM7.988 34.836l1.318 1.504.869-.76-.225-1.134-1.962.39zm-.306.279l-1.378-1.45-.003.004 1.381 1.446zm-4.764 4.552l1.37 1.456.006-.005.005-.005-1.381-1.446zM0 46.403h-2 2zm2.918 6.737L4.3 51.695l-.006-.006-.007-.006-1.37 1.457zm8.948 2.621l1.953-.429-.415-1.89-1.903.353.365 1.966zm2.71 4.783l1.382-1.445-.002-.002-1.38 1.447zm6.776 2.791l2-.057-.055-1.89-1.89-.052-.055 2zm9.7 9.268l2-.052-.05-1.9-1.9-.048-.05 2zm2.918 6.481l-1.382 1.445.006.006.005.005 1.371-1.456zm13.469.559l1.38-1.448-1.261-1.202-1.364 1.084 1.245 1.566zm2.673 2.549l1.382-1.446-.002-.002-1.38 1.448zm14.177 0l-1.38-1.448-.002.002 1.382 1.446zm2.93-6.446l-.051-1.999-1.879.048-.069 1.878 2 .073zm6.728-2.785l1.38 1.448.003-.003-1.383-1.445zm2.918-6.451l-.07-2-1.87.066-.06 1.87 2 .064zm6.648-2.786l1.378 1.45v-.001l-1.378-1.45zm2.759-5.001l.343-1.97-1.934-.337-.373 1.927 1.964.38zm8.807-2.646l-1.37-1.457-.004.004 1.374 1.453zM98 49.337h-2 2zm-2.92-6.74l-1.382 1.447.006.006.005.005 1.37-1.457zm-4.405-4.205l-1.93-.52-.31 1.146.86.82 1.38-1.446zm.9-3.338l1.93.52.002-.005-1.932-.515zm-2.57-20.246l-1.745.977.002.004 1.744-.98zM55.72.024l-.098 1.998.05.002h.048v-2zM54.748 0l.001-2h-.001v2zM35.616 17.618l1.157 1.632.01-.008.01-.007-1.177-1.617zm15.853-11.55v-2h-.65l-.527.384 1.177 1.617zm3.279 0V8.07h.01l-.01-2zm.899.025l-.119 1.997.06.003h.059v-2zM83.66 17.758l-1.746.976 1.746-.976zm2 15.743l1.914.578.01-.031.008-.032-1.932-.515zm-.018.06l-1.385 1.444 2.355 2.257.944-3.122-1.914-.579zM68.76 17.375l-1.41 1.418.013.013.013.013 1.384-1.444zm-2.159-.892l.005-2H66.6v2zm-12.844 0v-2h-.004l.004 2zm-1.804.589l1.177 1.616-1.177-1.616zm-10.447 7.61l1.158 1.63.01-.006.01-.007-1.178-1.617zm-6.728-.904l1.55-1.264-.002-.002-1.548 1.266zm3.541 46.094v2h.824l.585-.58-1.409-1.42zm.061-.061l-1.382-1.445-.013.012-.013.013 1.408 1.42zm4.759-4.552l-1.323-1.5-.03.027-.03.028 1.383 1.445zm.055-.048l1.323 1.5.008-.008.009-.007-1.34-1.485zm5.236.054l-1.371 1.457 1.37-1.457zm0 5.056l-1.371-1.457-.005.005-.006.006 1.382 1.446zm-4.765 4.552l1.37 1.457.006-.006.005-.005-1.381-1.447zm-2.645 1.045v-2 2zm-2.646-1.046l1.37-1.457-1.37 1.457zm-.06-5v-2h-.821l-.584.576 1.404 1.424zm.476-8.873l1.332 1.492.036-.032.035-.034-1.403-1.426zm-.061.054l-1.332-1.491-.026.023-.025.023 1.383 1.446zm-4.759 4.552l1.333 1.492.025-.023.025-.023-1.383-1.446zm-.06.055l-1.333-1.492-.004.004 1.336 1.488zm-5.23-.06l-1.371 1.455 1.37-1.456zm-.043-5.014l1.395 1.433.007-.006.007-.007-1.41-1.42zm.043-.042l-1.383-1.446-.013.013-.013.013 1.409 1.42zm4.758-4.552l1.383 1.445.013-.012.013-.013-1.409-1.42zm.043-.042l-1.346-1.48-.032.03-.03.03 1.408 1.42zm5.248.042l-1.37 1.457.002.003 1.368-1.46zm-9.694-4.212l-1.296-1.523-.044.037-.042.04 1.382 1.446zm-4.765 4.552l-1.382-1.446-.013.013-.014.013 1.409 1.42zm-.043.042l1.346 1.48.032-.03.03-.03-1.408-1.42zm-5.248-.042l-1.37 1.456 1.37-1.456zm-1.095-2.528h2-2zm1.095-2.528l1.37 1.457.007-.006.006-.005-1.383-1.446zm4.759-4.551l-1.371-1.456-.006.005-.006.005 1.383 1.446zm5.297 0l-1.372 1.456.002.002 1.37-1.458zm.042 5.019l1.296 1.523.05-.043.048-.046-1.394-1.434zm-11.7-7.362l-1.369-1.458-.007.006-.007.007 1.383 1.445zm-4.759 4.552l1.373 1.454.01-.009-1.383-1.445zm-5.297 0l1.374-1.454-.005-.005-1.369 1.459zm0-5.062l1.369 1.459.006-.006.007-.007-1.382-1.446zm4.765-4.551l-1.37-1.458-.006.006-.006.005 1.382 1.447zm2.645-1.046v2-2zm2.646 1.046l-1.37 1.457h.001l1.369-1.457zM50.292-2a5.078 5.078 0 00-2.18.488l1.71 3.615c.144-.068.303-.103.463-.103l.008-4zm-2.18.488a5.055 5.055 0 00-1.76 1.379l3.103 2.524c.098-.121.224-.22.367-.288l-1.71-3.615zm-1.394 1.03l-.544.4 2.37 3.222.545-.4-2.37-3.222zm1.228.1c-11.2-3.44-24.001-.927-32.936 7.615l2.764 2.891C25.598 2.644 36.87.4 46.772 3.441l1.175-3.823zM15.022 7.222A30.445 30.445 0 006.9 20.074l3.808 1.224a26.446 26.446 0 017.056-11.163L15.02 7.222zM6.899 20.074a30.264 30.264 0 00-.873 15.151l3.924-.779a26.263 26.263 0 01.757-13.148L6.9 20.074zM6.67 33.331c-.124.11-.246.22-.366.335l2.757 2.898c.08-.076.162-.15.245-.224L6.67 33.331zm-.37.338L1.537 38.22 4.3 41.113l4.765-4.552L6.3 33.669zM1.548 38.21a11.285 11.285 0 00-2.622 3.732l3.67 1.59a7.285 7.285 0 011.693-2.41L1.547 38.21zm-2.622 3.732A11.224 11.224 0 00-2 46.403h4c0-.987.202-1.964.596-2.871l-3.671-1.59zM-2 46.403c0 1.534.315 3.052.925 4.461l3.67-1.59A7.223 7.223 0 012 46.404h-4zm.925 4.461a11.285 11.285 0 002.622 3.732l2.741-2.913a7.286 7.286 0 01-1.692-2.409l-3.671 1.59zm2.61 3.72C4.462 57.388 8.5 58.42 12.23 57.728l-.73-3.933c-2.546.473-5.26-.242-7.2-2.1l-2.767 2.89zm8.377 1.606a11.364 11.364 0 003.283 5.8l2.76-2.894a7.364 7.364 0 01-2.136-3.764l-3.907.858zm3.28 5.799c2.26 2.162 5.185 3.266 8.106 3.346l.109-3.999c-1.997-.054-3.954-.807-5.45-2.237l-2.764 2.89zm6.161 1.404c.082 2.868 1.272 5.699 3.534 7.863l2.765-2.89c-1.493-1.429-2.248-3.259-2.3-5.088l-3.999.115zm3.534 7.863c2.259 2.16 5.19 3.274 8.117 3.346l.098-3.999c-1.99-.049-3.953-.805-5.45-2.237l-2.765 2.89zm6.167 1.399c.074 2.874 1.273 5.712 3.534 7.874l2.765-2.89c-1.495-1.43-2.253-3.265-2.3-5.088l-4 .104zm3.545 7.885a12.292 12.292 0 007.917 3.327l.166-3.996a8.291 8.291 0 01-5.34-2.243l-2.743 2.912zm7.917 3.327a12.304 12.304 0 008.168-2.66l-2.49-3.13a8.304 8.304 0 01-5.512 1.794l-.166 3.996zm5.542-2.777l2.673 2.549 2.76-2.895-2.672-2.549-2.76 2.895zm2.671 2.547c4.688 4.484 12.255 4.484 16.943 0l-2.765-2.89c-3.141 3.004-8.272 3.004-11.413 0l-2.765 2.89zm16.94.002c2.258-2.152 3.445-4.967 3.549-7.82l-3.998-.146c-.067 1.833-.825 3.655-2.31 5.071l2.76 2.895zm1.601-5.893a12.132 12.132 0 008.056-3.337l-2.758-2.897a8.132 8.132 0 01-5.4 2.235l.102 3.999zm8.06-3.34c2.254-2.157 3.444-4.973 3.534-7.834l-3.998-.125c-.058 1.824-.813 3.644-2.301 5.069l2.765 2.89zm1.604-5.898a12.163 12.163 0 007.957-3.335l-2.756-2.899a8.163 8.163 0 01-5.34 2.237l.14 3.997zm7.958-3.335a11.331 11.331 0 003.343-6.07l-3.927-.76a7.332 7.332 0 01-2.173 3.932l2.757 2.898zm1.037-4.48c1.88.328 3.812.212 5.64-.337l-1.151-3.83a8.285 8.285 0 01-3.803.227l-.686 3.94zm5.64-.337a12.228 12.228 0 004.885-2.826l-2.75-2.906a8.225 8.225 0 01-3.286 1.901l1.15 3.831zm4.88-2.822a11.285 11.285 0 002.625-3.733l-3.67-1.59a7.287 7.287 0 01-1.695 2.409l2.74 2.914zm2.625-3.733c.61-1.41.926-2.928.926-4.464h-4a7.23 7.23 0 01-.596 2.873l3.67 1.59zm.926-4.464c0-1.535-.315-3.054-.926-4.463l-3.67 1.59c.393.909.596 1.886.596 2.873h4zm-.926-4.463a11.286 11.286 0 00-2.625-3.733l-2.74 2.914a7.286 7.286 0 011.695 2.41l3.67-1.591zm-2.613-3.723l-4.404-4.205-2.763 2.892 4.404 4.206 2.763-2.892zm-3.854-2.239l.899-3.338-3.863-1.04-.899 3.338 3.863 1.04zm.9-3.343a29.063 29.063 0 00-2.758-21.741l-3.486 1.96a25.063 25.063 0 012.379 18.751l3.865 1.03zm-2.756-21.737C85.27 4.032 74.663-1.976 63.243-1.976v4c10.037 0 19.273 5.28 24.017 13.76l3.491-1.952zM63.243-1.976H55.72v4h7.523v-4zm-7.425.003A22.111 22.111 0 0054.75-2l-.003 4c.292 0 .584.008.876.022l.197-3.995zM54.748-2h-4.459v4h4.459v-4zM36.793 19.235l15.854-11.55-2.355-3.233-15.854 11.55 2.355 3.233zM51.47 8.069h3.279v-4H51.47v4zm3.29 0c.256-.001.513.005.77.02l.236-3.992c-.342-.02-.685-.03-1.028-.028l.021 4zm.888.024h7.596v-4h-7.596v4zm7.596 0c7.895 0 15.046 4.157 18.671 10.64l3.492-1.951C81.043 8.979 72.523 4.093 63.243 4.093v4zm18.672 10.641c2.451 4.38 3.09 9.46 1.813 14.251l3.865 1.03c1.547-5.804.768-11.953-2.188-17.234l-3.49 1.953zm1.83 14.188l-.018.06 3.83 1.158.017-.06-3.828-1.158zm3.28-.804l-16.88-16.186-2.769 2.887 16.881 16.186 2.769-2.887zm-16.854-16.16a5.07 5.07 0 00-3.565-1.475l-.009 4c.285 0 .556.114.753.31l2.821-2.835zm-3.57-1.475H53.757v4H66.6v-4zm-12.848 0a5.075 5.075 0 00-2.978.973l2.355 3.232a1.08 1.08 0 01.63-.205l-.007-4zm-2.978.972l-10.447 7.61 2.355 3.234 10.447-7.61-2.355-3.234zm-10.428 7.597a2.977 2.977 0 01-2.12.522l-.533 3.964a6.978 6.978 0 004.97-1.225l-2.317-3.261zm-2.12.522a2.957 2.957 0 01-1.899-1.06l-3.1 2.528a6.958 6.958 0 004.466 2.496l.533-3.964zm-1.901-1.062a2.253 2.253 0 01-.425-.814l-3.849 1.09a6.253 6.253 0 001.178 2.256l3.096-2.532zm-.425-.814a2.231 2.231 0 01-.064-.91l-3.964-.54a6.235 6.235 0 00.18 2.54l3.848-1.09zm-.064-.91c.041-.305.145-.598.305-.863l-3.419-2.075a6.242 6.242 0 00-.85 2.399l3.964.539zm.305-.863a2.28 2.28 0 01.63-.675l-2.313-3.263c-.7.496-1.29 1.13-1.736 1.863l3.42 2.075zm3.586 51.366l.061-.06-2.817-2.84-.061.06 2.817 2.84zm.035-.035l4.758-4.552-2.765-2.89-4.758 4.552 2.765 2.89zm4.699-4.497l.055-.048-2.646-3-.055.048 2.646 3zm.072-.063c.344-.31.797-.483 1.268-.478l.041-4a5.864 5.864 0 00-3.989 1.508l2.68 2.97zm1.268-.478c.47.005.92.186 1.257.504l2.741-2.913a5.863 5.863 0 00-3.957-1.59l-.041 3.999zm1.257.504c.148.14.265.306.345.49l3.67-1.59A5.483 5.483 0 0049.8 63.81l-2.741 2.913zm.345.49c.08.184.12.382.12.581h4c0-.747-.153-1.485-.45-2.17l-3.67 1.59zm.12.581c0 .2-.04.397-.12.58l3.67 1.59a5.46 5.46 0 00.45-2.17h-4zm-.12.58c-.08.185-.197.352-.345.491l2.741 2.913a5.483 5.483 0 001.274-1.813l-3.67-1.59zm-.356.502l-4.765 4.551 2.763 2.893 4.765-4.552-2.763-2.892zm-4.753 4.54a1.863 1.863 0 01-1.275.503v4c1.49 0 2.927-.567 4.014-1.588l-2.739-2.915zm-1.275.503a1.86 1.86 0 01-1.276-.503l-2.74 2.915a5.863 5.863 0 004.016 1.588v-4zm-1.277-.503a1.484 1.484 0 01-.342-.483l-3.66 1.614c.297.674.727 1.28 1.264 1.784l2.738-2.915zm-.342-.483a1.46 1.46 0 01-.124-.572l-4 .05c.01.736.167 1.462.465 2.136l3.66-1.614zm-.124-.572a1.46 1.46 0 01.11-.574l-3.698-1.524a5.46 5.46 0 00-.412 2.147l4-.049zm.11-.574a1.48 1.48 0 01.33-.49l-2.808-2.849a5.483 5.483 0 00-1.22 1.815l3.698 1.524zm-1.074.086h.006v-4h-.006v4zm-.855-12.365l-.061.055 2.664 2.983.061-.054-2.664-2.984zm-.111.101l-4.759 4.552 2.765 2.89 4.756-4.55-2.764-2.89zm-4.709 4.506l-.06.054 2.663 2.983.062-.054-2.665-2.983zm-.065.058c-.345.31-.797.48-1.267.475l-.047 4a5.864 5.864 0 003.987-1.5l-2.673-2.975zm-1.267.475a1.863 1.863 0 01-1.255-.504l-2.742 2.912a5.863 5.863 0 003.95 1.592l.047-4zm-1.255-.504a1.483 1.483 0 01-.342-.485l-3.664 1.605a5.484 5.484 0 001.264 1.792l2.742-2.912zm-.342-.485a1.46 1.46 0 01-.123-.573l-4 .034c.006.738.162 1.468.459 2.144l3.663-1.605zm-.123-.573a1.459 1.459 0 01.113-.576l-3.691-1.542a5.46 5.46 0 00-.422 2.152l4-.034zm.113-.576c.076-.183.19-.35.333-.49l-2.79-2.865a5.481 5.481 0 00-1.234 1.813l3.69 1.542zm.347-.503l.042-.042-2.817-2.84-.043.042 2.818 2.84zm.016-.017l4.759-4.552-2.765-2.89-4.759 4.551 2.765 2.891zm4.785-4.577l.043-.043-2.818-2.84-.042.043 2.817 2.84zm-.02.016a1.864 1.864 0 011.27-.483l.033-4a5.865 5.865 0 00-3.995 1.526l2.693 2.957zm1.27-.483c.473.004.923.185 1.262.504l2.74-2.914a5.864 5.864 0 00-3.97-1.59l-.032 4zm1.264.507c.147.137.264.301.344.483l3.659-1.617a5.485 5.485 0 00-1.268-1.785l-2.734 2.919zm.344.483c.08.18.122.375.124.572l4-.049a5.462 5.462 0 00-.465-2.14l-3.66 1.617zm.124.572a1.46 1.46 0 01-.11.575l3.697 1.527a5.46 5.46 0 00.413-2.15l-4 .048zm-.11.575c-.076.183-.188.35-.331.491l2.805 2.852a5.482 5.482 0 001.223-1.816l-3.697-1.527zm-10.066-8.748l-4.765 4.552 2.763 2.892 4.765-4.552-2.763-2.892zm-4.792 4.578l-.043.043 2.818 2.839.043-.042-2.818-2.84zm.02-.017a1.864 1.864 0 01-1.27.484l-.033 4a5.864 5.864 0 003.995-1.526l-2.692-2.958zm-1.27.484a1.864 1.864 0 01-1.262-.504l-2.74 2.914a5.863 5.863 0 003.97 1.59l.032-4zm-1.261-.504a1.484 1.484 0 01-.345-.49l-3.67 1.59a5.46 5.46 0 001.274 1.813l2.74-2.913zm-.345-.49a1.46 1.46 0 01-.12-.58h-4c0 .746.153 1.485.45 2.17l3.67-1.59zm-.12-.58c0-.2.04-.398.12-.581l-3.67-1.59a5.46 5.46 0 00-.45 2.17h4zm.12-.581c.08-.184.197-.351.345-.491L17.61 49.82a5.483 5.483 0 00-1.275 1.813l3.67 1.59zm.357-.502l4.758-4.552-2.765-2.89-4.758 4.551 2.765 2.89zm4.747-4.541c.342-.323.8-.505 1.277-.505v-4a5.863 5.863 0 00-4.02 1.593l2.743 2.912zm1.277-.505c.478 0 .935.182 1.277.505l2.743-2.912a5.863 5.863 0 00-4.02-1.593v4zm1.28.507c.146.138.263.303.343.485l3.662-1.608a5.483 5.483 0 00-1.267-1.793l-2.739 2.916zm.343.485c.08.181.121.377.123.574l4-.034a5.46 5.46 0 00-.46-2.148l-3.663 1.608zm.123.574a1.45 1.45 0 01-.114.577l3.69 1.544a5.46 5.46 0 00.424-2.155l-4 .034zm-.114.577c-.076.183-.19.35-.334.49l2.787 2.87a5.483 5.483 0 001.237-1.816l-3.69-1.544zm-.236.401l-.043.037 2.591 3.047.043-.037-2.591-3.047zm-11.788-7.283l-4.758 4.552L14 50.379l4.758-4.552-2.765-2.89zm-4.75 4.543a1.857 1.857 0 01-1.274.505v4c1.494 0 2.934-.57 4.021-1.597l-2.746-2.908zm-1.274.505c-.478 0-.934-.183-1.275-.505l-2.747 2.908a5.857 5.857 0 004.022 1.597v-4zm-1.28-.51a1.484 1.484 0 01-.346-.49l-3.67 1.592a5.483 5.483 0 001.279 1.815l2.737-2.917zm-.346-.49a1.46 1.46 0 01-.12-.582h-4c0 .748.153 1.488.45 2.174l3.67-1.592zm-.12-.582c0-.2.04-.397.12-.581l-3.67-1.593a5.46 5.46 0 00-.45 2.174h4zm.12-.581c.08-.185.197-.352.346-.491l-2.737-2.917a5.485 5.485 0 00-1.278 1.815l3.669 1.593zm.359-.504l4.764-4.551-2.763-2.893-4.764 4.552 2.763 2.892zm4.753-4.54a1.863 1.863 0 011.275-.503v-4c-1.49 0-2.928.567-4.014 1.588l2.739 2.915zm1.275-.503c.478 0 .934.182 1.276.503l2.74-2.915a5.863 5.863 0 00-4.016-1.588v4zm1.277.504c.149.14.266.307.346.49l3.67-1.591a5.485 5.485 0 00-1.279-1.816l-2.737 2.917zm.346.49c.08.185.12.383.12.582h4c0-.748-.153-1.487-.45-2.173l-3.67 1.592zm.12.582c0 .2-.04.398-.12.582l3.67 1.592a5.46 5.46 0 00.45-2.174h-4zm-.12.582c-.08.184-.197.351-.346.49l2.737 2.917a5.468 5.468 0 001.278-1.815l-3.669-1.592z" fill="#7AC834" mask="url(#a)"/></svg>9.0965C14.824 58.0169 14.1207 56.7045 13.8192 55.3322L9.9124 56.1905ZM13.1928 61.9889C15.4528 64.151 18.3767 65.2554 21.298 65.3347L21.4066 61.3362C19.4104 61.282 17.4534 60.5293 15.9579 59.0985L13.1928 61.9889ZM19.3531 63.3927C19.4353 66.261 20.6251 69.092 22.8873 71.2561L25.6524 68.3658C24.1591 66.9372 23.4039 65.1072 23.3515 63.2781L19.3531 63.3927ZM22.8873 71.2561C25.1458 73.4168 28.0766 74.5298 31.0036 74.6021L31.1023 70.6033C29.1117 70.5542 27.1494 69.7979 25.6524 68.3658L22.8873 71.2561ZM29.0536 72.6547C29.1284 75.5288 30.3273 78.3668 32.5879 80.5295L35.353 77.6391C33.8581 76.209 33.0997 74.3739 33.0522 72.5506L29.0536 72.6547ZM32.5993 80.5404C34.7486 82.5642 37.5614 83.7448 40.5162 83.8673L40.6819 79.8707C38.6845 79.7879 36.7875 78.9899 35.3415 77.6282L32.5993 80.5404ZM40.5162 83.8673C43.4711 83.9898 46.3726 83.0462 48.6837 81.2079L46.1937 78.0774C44.6375 79.3153 42.6794 79.9535 40.6819 79.8707L40.5162 83.8673ZM46.0584 81.09L48.7313 83.639L51.4918 80.7442L48.819 78.1953L46.0584 81.09ZM48.7291 83.6368C53.4168 88.121 60.9841 88.121 65.6718 83.6368L62.9069 80.7464C59.7656 83.7512 54.6353 83.7512 51.4941 80.7464L48.7291 83.6368ZM65.6694 83.6392C67.9268 81.4871 69.1135 78.6719 69.2178 75.8195L65.2204 75.6733C65.1534 77.5061 64.3951 79.3276 62.9093 80.744L65.6694 83.6392ZM67.2702 77.7457C70.278 77.6688 73.1513 76.4804 75.3264 74.4091L72.5679 71.5124C71.114 72.897 69.1885 73.6954 67.168 73.747L67.2702 77.7457ZM75.3296 74.406C77.584 72.2495 78.774 69.4329 78.8637 66.5721L74.8656 66.4468C74.8085 68.2712 74.0535 70.0913 72.5647 71.5155L75.3296 74.406ZM76.9342 68.5083C79.9067 68.4048 82.7394 67.2191 84.8912 65.1733L82.1351 62.2744C80.6949 63.6436 78.7943 64.4411 76.7951 64.5107L76.9342 68.5083ZM84.8917 65.1728C86.6842 63.4674 87.8027 61.3379 88.2352 59.1031L84.3081 58.343C84.0311 59.7738 83.3147 61.1521 82.1346 62.2748L84.8917 65.1728ZM85.9288 60.6934C87.8092 61.0206 89.7408 60.9051 91.5684 60.3561L90.4175 56.5252C89.1855 56.8953 87.8828 56.9733 86.6145 56.7526L85.9288 60.6934ZM91.5684 60.3561C93.3961 59.807 95.0696 58.8393 96.4538 57.5298L93.7047 54.6241C92.7753 55.5035 91.6495 56.1551 90.4175 56.5252L91.5684 60.3561ZM96.4494 57.5339C97.5698 56.4803 98.4631 55.2102 99.0739 53.8008L95.4038 52.2103C95.0102 53.1183 94.4339 53.9384 93.7091 54.62L96.4494 57.5339ZM99.0739 53.8008C99.6848 52.3914 100 50.8727 100 49.3374H96C96 50.3248 95.7973 51.3022 95.4038 52.2103L99.0739 53.8008ZM100 49.3374C100 47.8022 99.6848 46.2834 99.0739 44.874L95.4038 46.4646C95.7973 47.3726 96 48.35 96 49.3374H100ZM99.0739 44.874C98.4631 43.4646 97.5698 42.1946 96.4494 41.1409L93.7091 44.0548C94.4339 44.7364 95.0102 45.5565 95.4038 46.4646L99.0739 44.874ZM96.4606 41.1515L92.0568 36.9457L89.2941 39.8384L93.6979 44.0442L96.4606 41.1515ZM92.6066 38.9123L93.5057 35.5744L89.6434 34.534L88.7443 37.8719L92.6066 38.9123ZM93.5071 35.5692C95.4604 28.2403 94.4709 20.4456 90.7489 13.8278L87.2625 15.7886C90.4738 21.4984 91.3262 28.2199 89.642 34.5391L93.5071 35.5692ZM90.7511 13.8317C85.2686 4.03203 74.6633 -1.97572 63.2435 -1.97572V2.02428C73.2799 2.02428 82.5161 7.30475 87.2602 15.7847L90.7511 13.8317ZM63.2435 -1.97572H55.7203V2.02428H63.2435V-1.97572ZM55.8185 -1.97331C55.4624 -1.99082 55.1059 -1.99972 54.7493 -1.99999L54.7462 2C55.0383 2.00023 55.3303 2.00752 55.6221 2.02187L55.8185 -1.97331ZM54.7478 -2H50.289V2H54.7478V-2ZM36.7934 19.2347L52.647 7.68548L50.2918 4.4524L34.4381 16.0016L36.7934 19.2347ZM51.4694 8.06894H54.7478V4.06894H51.4694V8.06894ZM54.7584 8.06891C55.0152 8.06756 55.272 8.07449 55.5284 8.0897L55.7654 4.09673C55.423 4.07641 55.0801 4.06716 54.7372 4.06897L54.7584 8.06891ZM55.6469 8.09321H63.2435V4.09321H55.6469V8.09321ZM63.2435 8.09321C71.1383 8.09321 78.2891 12.2502 81.9143 18.7338L85.4056 16.7816C81.0428 8.97894 72.5234 4.09321 63.2435 4.09321V8.09321ZM81.9146 18.7344C84.366 23.1148 85.0053 28.1937 83.7275 32.9852L87.5925 34.0159C89.1405 28.211 88.3608 22.0624 85.4052 16.781L81.9146 18.7344ZM83.7456 32.9217L83.7272 32.9824L87.5561 34.14L87.5744 34.0793L83.7456 32.9217ZM87.0258 32.1176L70.1446 15.9317L67.3763 18.819L84.2575 35.0049L87.0258 32.1176ZM70.1714 15.9579C69.2239 15.0148 67.9411 14.4862 66.6057 14.4832L66.597 18.4832C66.8824 18.4839 67.1527 18.597 67.3495 18.7929L70.1714 15.9579ZM66.6013 14.4832H53.7569V18.4832H66.6013V14.4832ZM53.7531 14.4832C52.6832 14.4853 51.6401 14.825 50.7748 15.4555L53.1304 18.6883C53.3116 18.5563 53.5324 18.4837 53.7607 18.4832L53.7531 14.4832ZM50.775 15.4554L40.3282 23.0658L42.6835 26.2989L53.1302 18.6884L50.775 15.4554ZM40.3474 23.052C39.7356 23.4867 38.977 23.6744 38.2273 23.5736L37.6944 27.538C39.4461 27.7734 41.2237 27.3362 42.6642 26.3127L40.3474 23.052ZM38.2273 23.5736C37.4777 23.4729 36.799 23.0922 36.328 22.5144L33.2276 25.0418C34.344 26.4113 35.9426 27.3025 37.6944 27.538L38.2273 23.5736ZM36.3257 22.5116C36.129 22.2712 35.9847 21.9943 35.9009 21.6981L32.0521 22.7878C32.2857 23.6129 32.6868 24.3808 33.2299 25.0445L36.3257 22.5116ZM35.9009 21.6981C35.817 21.4021 35.7952 21.0924 35.8367 20.788L31.8732 20.2488C31.7576 21.0985 31.8185 21.9627 32.0521 22.7878L35.9009 21.6981ZM35.8367 20.788C35.8781 20.4835 35.9819 20.19 36.1425 19.9255L32.7234 17.8496C32.2783 18.5826 31.9887 19.3991 31.8732 20.2488L35.8367 20.788ZM36.1425 19.9255C36.3032 19.6609 36.5174 19.4306 36.7727 19.2495L34.4587 15.9868C33.7592 16.4829 33.1684 17.1166 32.7234 17.8496L36.1425 19.9255ZM39.7278 71.2914L39.789 71.2308L36.9717 68.3912L36.9106 68.4519L39.7278 71.2914ZM39.7628 71.2562L44.5213 66.7045L41.7564 63.814L36.9979 68.3657L39.7628 71.2562ZM44.4618 66.7592L44.5169 66.7106L41.871 63.7108L41.8159 63.7593L44.4618 66.7592ZM44.5337 66.6957C44.8779 66.3851 45.3307 66.2129 45.8017 66.2178L45.8434 62.2181C44.3722 62.2027 42.947 62.7398 41.8542 63.7258L44.5337 66.6957ZM45.8017 66.2178C46.2726 66.2228 46.7215 66.4043 47.0589 66.7218L49.8002 63.8089C48.7284 62.8002 47.3146 62.2334 45.8434 62.2181L45.8017 66.2178ZM47.059 66.7219C47.2072 66.8614 47.3243 67.0284 47.404 67.2124L51.0744 65.6224C50.7776 64.9372 50.3437 64.3203 49.8001 63.8088L47.059 66.7219ZM47.404 67.2124C47.4837 67.3963 47.5246 67.5939 47.5246 67.793H51.5246C51.5246 67.0462 51.3713 66.3076 51.0744 65.6224L47.404 67.2124ZM47.5246 67.793C47.5246 67.9922 47.4837 68.1898 47.404 68.3737L51.0744 69.9637C51.3713 69.2785 51.5246 68.5399 51.5246 67.793H47.5246ZM47.404 68.3737C47.3243 68.5577 47.2072 68.7247 47.059 68.8642L49.8001 71.7773C50.3437 71.2658 50.7776 70.6489 51.0744 69.9637L47.404 68.3737ZM47.048 68.8746L42.2834 73.4263L45.0464 76.3186L49.8111 71.7669L47.048 68.8746ZM42.2954 73.4149C41.9532 73.7365 41.4968 73.9181 41.0196 73.9181V77.9181C42.5105 77.9181 43.9475 77.3513 45.0344 76.33L42.2954 73.4149ZM41.0196 73.9181C40.5423 73.9181 40.0859 73.7365 39.7438 73.4149L37.0047 76.33C38.0916 77.3513 39.5286 77.9181 41.0196 77.9181V73.9181ZM39.7435 73.4147C39.5972 73.2773 39.4812 73.113 39.4014 72.9321L35.7415 74.5461C36.0385 75.2198 36.4685 75.8263 37.005 76.3302L39.7435 73.4147ZM39.4014 72.9321C39.3216 72.7512 39.2795 72.5569 39.2771 72.3604L35.2774 72.4094C35.2864 73.1457 35.4443 73.8724 35.7415 74.5461L39.4014 72.9321ZM39.2771 72.3604C39.2747 72.164 39.312 71.9688 39.3873 71.7861L35.6891 70.2619C35.4085 70.9427 35.2684 71.673 35.2774 72.4094L39.2771 72.3604ZM39.3873 71.7861C39.4626 71.6034 39.5745 71.4365 39.7173 71.2958L36.9088 68.4475C36.3847 68.9643 35.9697 69.5812 35.6891 70.2619L39.3873 71.7861ZM38.3131 71.8717H38.3192V67.8717H38.3131V71.8717ZM37.458 59.5071L37.3968 59.5617L40.0611 62.5453L40.1223 62.4906L37.458 59.5071ZM37.3465 59.6082L32.588 64.1599L35.3529 67.0505L40.1114 62.4988L37.3465 59.6082ZM32.6382 64.1135L32.5771 64.1681L35.2415 67.1515L35.3026 67.0969L32.6382 64.1135ZM32.5729 64.1718C32.2284 64.4812 31.776 64.6523 31.3057 64.6469L31.2593 68.6466C32.7283 68.6637 34.1523 68.1298 35.2457 67.1478L32.5729 64.1718ZM31.3057 64.6469C30.8355 64.6414 30.3874 64.4599 30.0506 64.1428L27.309 67.0555C28.3791 68.0628 29.7903 68.6296 31.2593 68.6466L31.3057 64.6469ZM30.0508 64.143C29.9042 64.005 29.7881 63.84 29.7085 63.6583L26.0447 65.2634C26.341 65.9399 26.7712 66.5491 27.3087 67.0553L30.0508 64.143ZM29.7085 63.6583C29.6289 63.4767 29.5873 63.2816 29.5856 63.0846L25.5857 63.1188C25.5921 63.8574 25.7483 64.5869 26.0447 65.2634L29.7085 63.6583ZM29.5856 63.0846C29.5839 62.8876 29.6222 62.6919 29.6987 62.509L26.008 60.9666C25.7232 61.6481 25.5794 62.3801 25.5857 63.1188L29.5856 63.0846ZM29.6987 62.509C29.7751 62.3261 29.8883 62.1592 30.0324 62.0189L27.2415 59.1535C26.7126 59.6686 26.2928 60.2851 26.008 60.9666L29.6987 62.509ZM30.0456 62.006L30.0884 61.9635L27.2711 59.1239L27.2283 59.1664L30.0456 62.006ZM30.0622 61.989L34.8208 57.4373L32.0558 54.5467L27.2973 59.0984L30.0622 61.989ZM34.8469 57.4118L34.8897 57.3693L32.0725 54.5297L32.0297 54.5722L34.8469 57.4118ZM34.8275 57.4284C35.1713 57.1154 35.6249 56.9412 36.0973 56.945L36.1297 52.9451C34.6541 52.9332 33.2263 53.4769 32.1347 54.4706L34.8275 57.4284ZM36.0973 56.945C36.5696 56.9488 37.0202 57.1304 37.3586 57.4488L40.0993 54.5352C39.0241 53.5238 37.6052 52.9571 36.1297 52.9451L36.0973 56.945ZM37.3615 57.4515C37.5082 57.5889 37.6246 57.7533 37.7046 57.9345L41.3636 56.3182C41.0656 55.6437 40.6344 55.0366 40.0964 54.5325L37.3615 57.4515ZM37.7046 57.9345C37.7846 58.1156 37.8269 58.3103 37.8293 58.507L41.829 58.4581C41.82 57.7206 41.6615 56.9928 41.3636 56.3182L37.7046 57.9345ZM37.8293 58.507C37.8317 58.7037 37.7942 58.8993 37.7187 59.0822L41.4159 60.6088C41.6974 59.9271 41.838 59.1957 41.829 58.4581L37.8293 58.507ZM37.7187 59.0822C37.6432 59.2651 37.5309 59.4322 37.3877 59.573L40.1926 62.4248C40.7182 61.9078 41.1345 61.2904 41.4159 60.6088L37.7187 59.0822ZM27.653 50.334L22.8883 54.8857L25.6514 57.778L30.416 53.2263L27.653 50.334ZM22.8611 54.9122L22.8183 54.9547L25.6358 57.794L25.6786 57.7515L22.8611 54.9122ZM22.8806 54.8954C22.5368 55.2084 22.0832 55.3827 21.6109 55.3789L21.5785 59.3787C23.0541 59.3907 24.4819 58.847 25.5734 57.8533L22.8806 54.8954ZM21.6109 55.3789C21.1385 55.375 20.688 55.1935 20.3495 54.8751L17.6088 57.7886C18.684 58.8001 20.1029 59.3668 21.5785 59.3787L21.6109 55.3789ZM20.3497 54.8753C20.2015 54.7358 20.0844 54.5688 20.0047 54.3848L16.3343 55.9748C16.6311 56.66 17.065 57.2769 17.6086 57.7884L20.3497 54.8753ZM20.0047 54.3848C19.925 54.2009 19.8842 54.0033 19.8842 53.8041H15.8842C15.8842 54.551 16.0375 55.2896 16.3343 55.9748L20.0047 54.3848ZM19.8842 53.8041C19.8842 53.605 19.925 53.4074 20.0047 53.2235L16.3343 51.6335C16.0375 52.3187 15.8842 53.0573 15.8842 53.8041H19.8842ZM20.0047 53.2235C20.0844 53.0395 20.2015 52.8725 20.3497 52.733L17.6086 49.8199C17.065 50.3314 16.6311 50.9483 16.3343 51.6335L20.0047 53.2235ZM20.3616 52.7217L25.1202 48.17L22.3553 45.2795L17.5967 49.8312L20.3616 52.7217ZM25.1089 48.1808C25.4512 47.8584 25.9081 47.6763 26.3861 47.6763V43.6763C24.893 43.6763 23.454 44.2447 22.3666 45.2687L25.1089 48.1808ZM26.3861 47.6763C26.8641 47.6763 27.3211 47.8584 27.6634 48.1808L30.4056 45.2687C29.3182 44.2447 27.8792 43.6763 26.3861 43.6763V47.6763ZM27.6653 48.1826C27.8123 48.3206 27.9287 48.4858 28.0086 48.6677L31.6714 47.0603C31.3742 46.383 30.9427 45.7731 30.4037 45.2669L27.6653 48.1826ZM28.0086 48.6677C28.0884 48.8495 28.1302 49.0449 28.1318 49.2423L32.1317 49.2082C32.1254 48.4683 31.9687 47.7378 31.6714 47.0603L28.0086 48.6677ZM28.1318 49.2423C28.1335 49.4396 28.0951 49.6356 28.0184 49.8187L31.7081 51.3635C31.9938 50.6811 32.138 49.948 32.1317 49.2082L28.1318 49.2423ZM28.0184 49.8187C27.9417 50.0019 27.8282 50.1689 27.6837 50.3093L30.471 53.1782C31.0014 52.6629 31.4224 52.0458 31.7081 51.3635L28.0184 49.8187ZM27.7817 50.2202L27.7389 50.2566L30.3302 53.3037L30.373 53.2673L27.7817 50.2202ZM15.9942 42.9369L11.2357 47.4886L14.0006 50.3791L18.7591 45.8274L15.9942 42.9369ZM11.2448 47.4799C10.9034 47.8023 10.4471 47.9846 9.96973 47.9846V51.9846C11.4643 51.9846 12.9045 51.4145 13.9915 50.3878L11.2448 47.4799ZM9.96973 47.9846C9.49234 47.9846 9.03604 47.8023 8.69468 47.4799L5.948 50.3878C7.03495 51.4145 8.47513 51.9846 9.96973 51.9846V47.9846ZM8.69005 47.4755C8.54143 47.336 8.42398 47.1688 8.34403 46.9846L4.67464 48.5769C4.97236 49.263 5.4075 49.8805 5.95262 50.3921L8.69005 47.4755ZM8.34403 46.9846C8.2641 46.8004 8.22311 46.6026 8.22311 46.4031H4.22311C4.22311 47.1511 4.37691 47.8909 4.67464 48.5769L8.34403 46.9846ZM8.22311 46.4031C8.22311 46.2036 8.2641 46.0058 8.34403 45.8216L4.67464 44.2292C4.37691 44.9153 4.22311 45.6551 4.22311 46.4031H8.22311ZM8.34403 45.8216C8.42398 45.6373 8.54143 45.4701 8.69005 45.3306L5.95262 42.414C5.4075 42.9257 4.97236 43.5432 4.67464 44.2292L8.34403 45.8216ZM8.70286 45.3185L13.4675 40.7668L10.7045 37.8745L5.93982 42.4262L8.70286 45.3185ZM13.4555 40.7782C13.7977 40.4566 14.2541 40.275 14.7313 40.275V36.275C13.2404 36.275 11.8034 36.8418 10.7165 37.8631L13.4555 40.7782ZM14.7313 40.275C15.2086 40.275 15.665 40.4566 16.0071 40.7782L18.7462 37.8631C17.6593 36.8418 16.2223 36.275 14.7313 36.275V40.275ZM16.008 40.7789C16.1566 40.9184 16.274 41.0856 16.354 41.2699L20.0234 39.6775C19.7257 38.9915 19.2905 38.374 18.7454 37.8623L16.008 40.7789ZM16.354 41.2699C16.4339 41.4541 16.4749 41.6519 16.4749 41.8514H20.4749C20.4749 41.1034 20.3211 40.3636 20.0234 39.6775L16.354 41.2699ZM16.4749 41.8514C16.4749 42.0509 16.4339 42.2487 16.354 42.4329L20.0234 44.0252C20.3211 43.3392 20.4749 42.5994 20.4749 41.8514H16.4749ZM16.354 42.4329C16.274 42.6171 16.1566 42.7843 16.008 42.9238L18.7454 45.8404C19.2905 45.3288 19.7257 44.7113 20.0234 44.0252L16.354 42.4329Z" fill="#7AC834" mask="url(#path-1-inside-1_28_246)"/>
</svg>
