<svg width="85" height="85" fill="none" xmlns="http://www.w3.org/2000/svg"><g clip-path="url(#clip0_69_15)" stroke="#7AC834" stroke-width="2"><path d="M77.525 77.525a3.5 3.5 0 00-.88 1.475h-3.068A6.5 6.5 0 0179 73.577v3.069a3.5 3.5 0 00-1.475.88zm0-15.05a3.5 3.5 0 001.475.88v3.068A6.5 6.5 0 0173.577 61h3.069a3.5 3.5 0 00.88 1.475zm-30.05 0a3.5 3.5 0 00.88-1.475h3.068A6.5 6.5 0 0146 66.423v-3.069a3.5 3.5 0 001.475-.88zm0 15.05a3.5 3.5 0 00-1.475-.88v-3.068A6.5 6.5 0 0151.423 79h-3.069a3.5 3.5 0 00-.88-1.475zm10.429-12.121a6.5 6.5 0 119.192 9.192 6.5 6.5 0 01-9.192-9.192z"/><path d="M84 62.5v15a6.5 6.5 0 01-6.5 6.5h-30a6.5 6.5 0 01-6.5-6.5v-15a6.5 6.5 0 016.5-6.5h30a6.5 6.5 0 016.5 6.5z"/><path d="M1 7.5v0A6.5 6.5 0 017.5 1h65.001a6.5 6.5 0 012.167 12.632l-.668.235V49h-7V14H13v53h6V52.5a1.5 1.5 0 011.5-1.5h21a1.5 1.5 0 01.87.277c-.292.24-.608.518-.933.813a61.086 61.086 0 00-2.355 2.273 58.354 58.354 0 00-2.238 2.39c-.386.44-.745.87-1.026 1.247H24v9h10v7H7.5A1.5 1.5 0 016 72.5V13.868l-.667-.236A6.5 6.5 0 011 7.501zm23.44 16.94A1.5 1.5 0 0125.5 24h29a1.5 1.5 0 011.5 1.5v15a1.5 1.5 0 01-1.5 1.5h-29a1.5 1.5 0 01-1.5-1.5v-15c0-.398.158-.78.44-1.06z"/></g><defs><clipPath id="clip0_69_15"><path fill="#fff" d="M0 0h85v85H0z"/></clipPath></defs></svg>