<svg width="85" height="85" fill="none" xmlns="http://www.w3.org/2000/svg"><path d="M84.52 34.903l-9.862-5.726a.85.85 0 00-.427-.114h-2.14c-.243-8.33-4.036-15.78-9.913-20.884V6.467c0-3.566-2.894-6.467-6.45-6.467a6.474 6.474 0 00-4.808 2.16 28.57 28.57 0 00-7.51-1.002c-.89 0-33.026.124-33.026.124a2.368 2.368 0 00-.052 4.733l-7.258 16.35h-.711a2.368 2.368 0 000 4.736h12.49a29.034 29.034 0 00-.123 1.962h-3.242a.85.85 0 00-.817.614l-1.674 5.755a.854.854 0 00.817 1.091h9.663c-.04.326-.013.705.13 1.144.535 1.65 1.858 1.722 2.65 1.765.749.04 1.063.078 1.332.605.268.529.114.806-.294 1.437-.43.667-1.151 1.782-.134 3.186 1.018 1.404 2.3 1.062 3.066.858.724-.194 1.035-.256 1.453.162.418.42.357.732.164 1.46-.204.766-.545 2.05.855 3.07 1.4 1.018 2.514.297 3.179-.134.63-.408.907-.564 1.432-.295.528.269.565.584.606 1.336.042.792.114 2.119 1.76 2.656 1.646.535 2.482-.496 2.982-1.112.473-.583.688-.817 1.271-.724.585.093.718.381.988 1.083.285.74.763 1.98 2.493 1.98 1.732 0 2.209-1.24 2.494-1.98.27-.702.404-.99.988-1.083.584-.093.799.14 1.272.724.5.617 1.335 1.647 2.982 1.112 1.645-.537 1.717-1.864 1.76-2.657.04-.751.078-1.066.604-1.335.527-.268.803-.114 1.434.295.664.431 1.777 1.153 3.178.134 1.402-1.02 1.06-2.304.856-3.072-.193-.727-.254-1.039.162-1.457.419-.418.73-.357 1.455-.163.766.204 2.048.546 3.065-.858s.297-2.52-.133-3.185c-.408-.632-.563-.91-.295-1.437.268-.527.583-.565 1.332-.606.791-.043 2.115-.115 2.652-1.765a2.65 2.65 0 00.128-1.144H84.15a.852.852 0 00.371-1.62zM55.728 1.705c2.62 0 4.75 2.137 4.75 4.762v.345a28.633 28.633 0 00-7.699-4.08 4.7 4.7 0 012.95-1.027zM9.722 3.65c0-.365.297-.663.662-.663h22.96a28.471 28.471 0 00-2.992 1.326H10.384a.663.663 0 01-.662-.663zm6 18.716h-2.63L20.35 6.018h7.117c-5.666 3.808-9.907 9.586-11.745 16.347zm-7.64-7.086h6.294l-1.356 3.055H6.726l1.356-3.055zm2.113-4.76h6.294l-1.356 3.055H8.839l1.356-3.055zm8.293-4.501l-1.242 2.796h-6.294l1.241-2.796h6.295zm-12.52 14.02h6.295l-1.033 2.326H4.936l1.033-2.326zm-3.605 5.357a.663.663 0 010-1.326h12.95c-.09.438-.17.88-.241 1.326H2.363zM43.41 2.863c14.6 0 26.53 11.676 26.98 26.2h-7.523c-.445-9.038-7.92-16.253-17.046-16.253s-16.6 7.215-17.046 16.252H16.431c.45-14.523 12.38-26.199 26.98-26.199zm4.198 26.2a4.293 4.293 0 00-4.197-3.44 4.293 4.293 0 00-4.198 3.44h-8.735c.443-8.097 7.156-14.548 15.343-14.548 8.187 0 14.9 6.451 15.342 14.547H47.608zm-1.76 0h-4.875a2.587 2.587 0 012.437-1.735c1.126 0 2.086.725 2.438 1.735zm19.75 8.076c-.163.502-.307.545-1.126.59-.809.044-2.032.11-2.757 1.535-.722 1.424-.057 2.454.383 3.136.445.69.494.831.185 1.257-.309.426-.459.423-1.25.212-.784-.208-1.967-.524-3.096.605-1.126 1.13-.811 2.317-.603 3.102.21.794.214.944-.212 1.253-.425.31-.566.26-1.254-.185-.68-.441-1.708-1.108-3.13-.383-1.42.726-1.487 1.951-1.531 2.762-.044.82-.088.964-.587 1.127-.5.163-.62.072-1.136-.565-.51-.63-1.283-1.584-2.86-1.333-1.575.25-2.016 1.396-2.307 2.153-.295.766-.381.889-.907.889-.525 0-.611-.123-.906-.889-.292-.757-.733-1.902-2.308-2.153-1.575-.25-2.347.702-2.859 1.333-.517.638-.636.728-1.135.566-.5-.163-.543-.307-.588-1.127-.043-.811-.11-2.037-1.532-2.764-1.42-.724-2.448-.058-3.128.383-.69.447-.83.495-1.256.186-.424-.309-.421-.459-.21-1.252.208-.786.523-1.972-.606-3.104-1.128-1.129-2.31-.813-3.094-.604-.792.211-.942.214-1.25-.212-.31-.426-.26-.568.185-1.257.44-.682 1.106-1.713.381-3.138-.724-1.423-1.947-1.49-2.756-1.534-.817-.044-.96-.088-1.123-.59-.098-.3-.085-.464.015-.616h44.34c.1.153.114.317.017.617zm-54.65-2.321l1.178-4.05h61.877l6.976 4.05H10.948z" fill="#7AC834"/><path d="M28.976 18.077a.91.91 0 00-.151-.744.807.807 0 00-.647-.333h-5.616c-.35 0-.66.233-.776.582l-2.74 8.26a.912.912 0 00.105.791.81.81 0 00.67.367h6.44a.833.833 0 00.798-.662l1.917-8.261zm-3.36 7.184H20.98l2.163-6.522h3.986l-1.514 6.522z" fill="#7AC834"/><path stroke="#7AC834" stroke-width="2" d="M1 80h83v4H1zm0-10h83v4H1v-4zm0-10h83v4H1z"/></svg>5154 45.8207 14.5154C54.0081 14.5154 60.7202 20.966 61.1632 29.0625H47.6084ZM45.8482 29.0625H40.9727C41.3251 28.0534 42.2848 27.3276 43.4103 27.3276C44.5359 27.3276 45.4958 28.0534 45.8482 29.0625ZM65.5974 37.1391C65.4345 37.6405 65.2912 37.6842 64.4723 37.7287C63.663 37.7726 62.4402 37.8391 61.7154 39.2635C60.9927 40.688 61.6578 41.7184 62.0978 42.4001C62.5428 43.0892 62.5917 43.231 62.2829 43.6573C61.9742 44.0834 61.8245 44.0804 61.0327 43.8694C60.2495 43.6607 59.0659 43.3446 57.9371 44.4744C56.8107 45.6048 57.1257 46.7912 57.3342 47.5761C57.5449 48.3699 57.5477 48.5197 57.1225 48.829C56.6969 49.1387 56.5557 49.0895 55.8679 48.6436C55.1877 48.2025 54.1597 47.5356 52.7373 48.2607C51.3171 48.9868 51.2508 50.2122 51.2069 51.0231C51.1627 51.8437 51.1189 51.9874 50.6195 52.1505C50.1201 52.3129 50.0006 52.2223 49.4844 51.5854C48.9733 50.9544 48.201 50.0008 46.6247 50.2521C45.0495 50.5027 44.6084 51.6476 44.3166 52.4052C44.0216 53.1711 43.9359 53.2939 43.4103 53.2939C42.8848 53.2939 42.799 53.1709 42.504 52.4052C42.2122 51.6476 41.7711 50.5027 40.1959 50.2521C38.6207 50.0012 37.8486 50.9542 37.3373 51.585C36.8203 52.2227 36.7012 52.3129 36.2018 52.1509C35.702 51.9876 35.6586 51.8442 35.6143 51.0241C35.5707 50.2128 35.5048 48.9868 34.0823 48.2603C32.6624 47.536 31.634 48.2023 30.9536 48.6431C30.2647 49.0895 30.1233 49.1385 29.6981 48.829C29.274 48.5201 29.277 48.3703 29.4875 47.5769C29.696 46.7914 30.0112 45.6045 28.8824 44.4733C27.7545 43.3444 26.5713 43.6601 25.7884 43.869C24.9961 44.0804 24.8464 44.083 24.5374 43.6569C24.2287 43.2308 24.2777 43.089 24.7228 42.4001C25.1633 41.7182 25.8292 40.6874 25.1044 39.262C24.38 37.8385 23.1574 37.7722 22.3483 37.7281C21.5305 37.6837 21.3874 37.64 21.2247 37.1378C21.1271 36.8385 21.1402 36.6742 21.2396 36.5222H65.5806C65.6808 36.6751 65.6944 36.8394 65.5974 37.1391ZM10.9477 34.8176L12.1258 30.7677H74.003L80.9793 34.8176H10.9477Z" fill="#7AC834"/>
<path d="M28.9763 18.0769C29.0365 17.8176 28.9806 17.5432 28.8249 17.333C28.6691 17.1228 28.4305 17 28.178 17H22.5617C22.2126 17 21.9017 17.2333 21.7862 17.5817L19.0463 25.8424C18.9582 26.1085 18.9972 26.4033 19.1513 26.6333C19.3054 26.8633 19.5553 27 19.8218 27H26.2603C26.6388 27 26.9681 26.7267 27.0586 26.3378L28.9763 18.0769ZM25.6159 25.2607H20.9813L23.1442 18.7391H27.1297L25.6159 25.2607Z" fill="#7AC834"/>
<rect x="1" y="80" width="83" height="4" stroke="#7AC834" stroke-width="2"/>
<path d="M1 70H84V74H1V70Z" stroke="#7AC834" stroke-width="2"/>
<rect x="1" y="60" width="83" height="4" stroke="#7AC834" stroke-width="2"/>
</svg>
